<svg viewBox="0 0 48 48" fill="none" xmlns="http://www.w3.org/2000/svg">
    <circle cx="24" cy="24" r="24" fill="#F3F5FB"/>
    <g clip-path="url(#clip0)">
        <path d="M39.0001 13.0523H36.1476V10.1905L39.0001 13.043V13.0523Z" fill="#E1E1E1"/>
        <path d="M19.4763 31.6144L25.1906 25.8757C25.4864 25.5758 25.6668 25.1663 25.6668 24.7097C25.6668 23.7901 24.9202 23.043 24.0001 23.043C23.5953 23.043 23.2245 23.1904 22.9333 23.4285L19.4763 26.3763V10.1905H36.1476V13.0523H39.0001V37.8191H19.4763V31.6144ZM25.2006 21.1475V19.2428H23.2958V21.1475H25.2006ZM25.2006 16.8618V14.9571H23.2958V16.8618H25.2006Z" fill="white"/>
        <path d="M12.8093 32.0905C12.8093 32.3523 12.5954 32.5667 12.3331 32.5667H11.3807C11.1185 32.5667 10.9045 32.3523 10.9045 32.0905V23.5191C10.9045 23.2566 11.1185 23.0429 11.3807 23.0429H12.3331C12.5954 23.0429 12.8093 23.2566 12.8093 23.5191V24.4715V32.0905Z" fill="white"/>
        <path d="M25.199 14.4857H23.2942C23.0307 14.4857 22.818 14.6989 22.818 14.9619V16.8667C22.818 17.1301 23.0307 17.3429 23.2942 17.3429H25.199C25.4622 17.3429 25.6751 17.1301 25.6751 16.8667V14.9619C25.6751 14.6989 25.4617 14.4857 25.199 14.4857Z" fill="#EAEDF1"/>
        <path d="M25.199 18.7714H23.2942C23.0307 18.7714 22.818 18.9846 22.818 19.2476V21.1524C22.818 21.4158 23.0307 21.6285 23.2942 21.6285H25.199C25.4622 21.6285 25.6751 21.4158 25.6751 21.1524V19.2476C25.6751 18.9846 25.4617 18.7714 25.199 18.7714Z" fill="#EAEDF1"/>
        <path d="M34.7221 16.3905H28.0572C27.7938 16.3905 27.5811 16.1777 27.5811 15.9143C27.5811 15.6513 27.7938 15.4381 28.0572 15.4381H34.7221C34.9853 15.4381 35.1982 15.6513 35.1982 15.9143C35.1982 16.1777 34.9848 16.3905 34.7221 16.3905Z" fill="#CCD1D9"/>
        <path d="M34.7221 20.6762H28.0572C27.7938 20.6762 27.5811 20.4634 27.5811 20.2C27.5811 19.937 27.7938 19.7238 28.0572 19.7238H34.7221C34.9853 19.7238 35.1982 19.937 35.1982 20.2C35.1982 20.4634 34.9848 20.6762 34.7221 20.6762Z" fill="#CCD1D9"/>
        <path d="M25.1987 22.938H23.2939C23.0305 22.938 22.8177 23.1512 22.8177 23.4142V25.3189C22.8177 25.5824 23.0305 25.7951 23.2939 25.7951H25.1987C25.4619 25.7951 25.6749 25.5824 25.6749 25.3189V23.4142C25.6749 23.1512 25.4614 22.938 25.1987 22.938Z" fill="#EAEDF1"/>
        <path d="M34.7223 24.8425H28.0575C27.7941 24.8425 27.5813 24.6298 27.5813 24.3663C27.5813 24.1034 27.7941 23.8901 28.0575 23.8901H34.7223C34.9855 23.8901 35.1985 24.1034 35.1985 24.3663C35.1985 24.6298 34.985 24.8425 34.7223 24.8425Z" fill="#CCD1D9"/>
        <path d="M25.1987 27.1047H23.2939C23.0305 27.1047 22.8177 27.3179 22.8177 27.5808V29.4856C22.8177 29.749 23.0305 29.9618 23.2939 29.9618H25.1987C25.4619 29.9618 25.6749 29.749 25.6749 29.4856V27.5808C25.6749 27.3179 25.4614 27.1047 25.1987 27.1047Z" fill="#EAEDF1"/>
        <path d="M34.7223 29.0092H28.0575C27.7941 29.0092 27.5813 28.7964 27.5813 28.533C27.5813 28.27 27.7941 28.0568 28.0575 28.0568H34.7223C34.9855 28.0568 35.1985 28.27 35.1985 28.533C35.1985 28.7964 34.985 29.0092 34.7223 29.0092Z" fill="#CCD1D9"/>
        <path d="M25.1987 31.2713H23.2939C23.0305 31.2713 22.8177 31.4845 22.8177 31.7475V33.6523C22.8177 33.9157 23.0305 34.1285 23.2939 34.1285H25.1987C25.4619 34.1285 25.6749 33.9157 25.6749 33.6523V31.7475C25.6749 31.4845 25.4614 31.2713 25.1987 31.2713Z" fill="#EAEDF1"/>
        <path d="M34.7223 33.1759H28.0575C27.7941 33.1759 27.5813 32.9631 27.5813 32.6997C27.5813 32.4367 27.7941 32.2235 28.0575 32.2235H34.7223C34.9855 32.2235 35.1985 32.4367 35.1985 32.6997C35.1985 32.9631 34.985 33.1759 34.7223 33.1759Z" fill="#CCD1D9"/>
        <path d="M19.4762 31.6144L19 32.0906H12.8096V23.9953L17.0953 20.1858H19.4762V26.3763L22.9333 23.4285C23.2244 23.1904 23.5957 23.043 24 23.043C24.9201 23.043 25.6667 23.79 25.6667 24.7096C25.6667 25.1663 25.4863 25.5757 25.1905 25.8757L19.4762 31.6144Z" fill="#EAC6BB"/>
        <path d="M10.9048 21.6144H9V33.9953H10.9048C11.167 33.9953 11.381 33.781 11.381 33.5192V33.043C11.381 32.7809 11.381 32.3524 11.381 32.0906V23.5192C11.381 23.2567 11.381 22.8281 11.381 22.5668V22.0906C11.381 21.8285 11.167 21.6144 10.9048 21.6144Z" fill="#656D78"/>
    </g>
    <defs>
        <clipPath id="clip0">
            <rect x="9" y="9" width="30" height="30" fill="white"/>
        </clipPath>
    </defs>
</svg>
