<svg viewBox="0 0 48 48" fill="none" xmlns="http://www.w3.org/2000/svg">
    <circle cx="24" cy="24" r="24" fill="#F3F5FB"/>
    <rect x="38.25" y="35.25" width="1.5" height="6.75" rx="0.75" fill="#C8C6D6"/>
    <rect x="8.25" y="35.25" width="1.5" height="6.75" rx="0.75" fill="#C8C6D6"/>
    <path d="M39.2791 35.9995H8.72095C8.2027 35.9995 7.85398 35.4709 8.05929 34.9965L10.1046 30.2762C10.2825 29.8654 10.6888 29.5994 11.1377 29.5994H36.9243C37.3778 29.5994 37.7869 29.8706 37.962 30.2877L39.9436 35.004C40.1423 35.4771 39.7936 35.9995 39.2791 35.9995Z" fill="#868491"/>
    <g clip-path="url(#clip0)">
        <path d="M33.9999 9.18791H31.1246V6.23072L33.9999 9.1783V9.18791Z" fill="#E1E1E1"/>
        <path d="M14.3196 28.3688C14.3196 28.8407 14.6177 28.0588 14.3196 28.3688C14.3196 27.4185 14.3196 22.9561 14.3196 22.9561C14.6131 22.71 13.9116 22.9561 14.3196 22.9561L14.3196 6.23072H31.1243V9.18791H33.9996V32.9993H14.3196V28.3688ZM20.0897 17.553V15.5847H18.1697V17.553H20.0897ZM20.0897 13.1244V11.1562H18.1697V13.1244H20.0897Z" fill="white"/>
        <path d="M20.0886 10.6683H18.1686C17.9031 10.6683 17.6886 10.8886 17.6886 11.1603V13.1286C17.6886 13.4008 17.9031 13.6207 18.1686 13.6207H20.0886C20.3539 13.6207 20.5686 13.4008 20.5686 13.1286V11.1603C20.5686 10.8886 20.3534 10.6683 20.0886 10.6683Z" fill="#EAEDF1"/>
        <path d="M20.0886 15.0965H18.1686C17.9031 15.0965 17.6886 15.3168 17.6886 15.5885V17.5568C17.6886 17.829 17.9031 18.0488 18.1686 18.0488H20.0886C20.3539 18.0488 20.5686 17.829 20.5686 17.5568V15.5885C20.5686 15.3168 20.3534 15.0965 20.0886 15.0965Z" fill="#EAEDF1"/>
        <path d="M29.6873 12.6362H22.9691C22.7036 12.6362 22.4891 12.4163 22.4891 12.1441C22.4891 11.8724 22.7036 11.652 22.9691 11.652H29.6873C29.9526 11.652 30.1673 11.8724 30.1673 12.1441C30.1673 12.4163 29.9521 12.6362 29.6873 12.6362Z" fill="#CCD1D9"/>
        <path d="M29.6873 17.0661H22.9691C22.7036 17.0661 22.4891 16.8462 22.4891 16.574C22.4891 16.3023 22.7036 16.082 22.9691 16.082H29.6873C29.9526 16.082 30.1673 16.3023 30.1673 16.574C30.1673 16.8462 29.9521 17.0661 29.6873 17.0661Z" fill="#CCD1D9"/>
        <g clip-path="url(#clip1)">
            <g clip-path="url(#clip2)">
                <path fill-rule="evenodd" clip-rule="evenodd" d="M25.8138 29.6146V29.6111L25.8224 29.6043L25.8241 29.6027L25.8276 29.5992L25.8328 29.5959L25.838 29.5924L25.8449 29.5873L25.8518 29.5822L25.8604 29.5771L25.8708 29.5703L25.8811 29.5635L25.8933 29.5567L25.9071 29.5482L25.9209 29.5397L25.9364 29.5329L25.952 29.5244L25.9693 29.5159L25.9865 29.5074L26.0055 29.4989L26.0263 29.4904L26.047 29.4819L26.0677 29.4751L26.0919 29.4666L26.1144 29.4598L26.1386 29.453L26.1645 29.4462L26.1904 29.4394L26.218 29.4342L26.2457 29.4292L26.275 29.424L26.3044 29.4206L26.3355 29.4172L26.3666 29.4155L26.4219 29.4138L26.4806 29.4155L26.5393 29.419L26.6015 29.424L26.6637 29.4309L26.7277 29.4394L26.7933 29.4496L26.8054 29.4513L26.8503 29.4598L26.9125 29.47L26.9263 29.4734L26.9488 29.4768C27.0196 29.4887 27.0628 29.4955 27.0628 29.4989V29.4972L27.1319 29.5108L27.201 29.5227L27.2701 29.5363L27.3392 29.5482L27.4066 29.5584L27.4722 29.5686L27.5431 29.3475L27.5483 29.3441L27.569 29.3339L27.5949 29.3203L27.6433 29.2965L27.6778 29.2795L27.7158 29.2607L27.7573 29.2386L27.8022 29.2148L27.8506 29.1893L27.899 29.1604L27.9491 29.1298L28.0026 29.0975L28.0544 29.0617L28.1615 28.9835L28.2151 28.941L28.2669 28.895L28.317 28.8474L28.3671 28.7964L28.4138 28.7436L28.4587 28.6892L28.4984 28.6297L28.5381 28.5685L28.571 28.5055L28.6021 28.4392L28.628 28.3694L28.647 28.298L28.6625 28.2231L28.6729 28.1449L28.6746 28.0632L28.6729 28.019L28.6694 27.9748L28.6625 27.9272L28.6539 27.8779L28.6435 27.8268L28.6314 27.7741L28.6176 27.718L28.6003 27.6618L28.5831 27.604L28.5658 27.5444L28.5243 27.4186L28.5036 27.3539L28.4587 27.2179L28.4362 27.1481L28.412 27.0767L28.3671 26.927L28.3447 26.8504L28.3222 26.7722L28.3015 26.694L28.2808 26.6123L28.2617 26.529L28.2445 26.4456L28.2272 26.3589L28.2116 26.2721L28.1978 26.1836L28.1875 26.0935L28.1771 26.0016L28.1702 25.9081L28.165 25.8145L28.1615 25.7278L28.1598 25.6427L28.1633 25.476L28.1667 25.3944L28.1702 25.3144L28.184 25.158L28.1926 25.0831L28.203 25.01L28.2134 24.9385L28.2272 24.8688L28.2393 24.8024L28.2548 24.7378L28.2686 24.6749L28.2859 24.6136L28.3205 24.5014L28.3395 24.4504L28.3585 24.401L28.3792 24.3551L28.4017 24.3126L28.4224 24.2735L28.4449 24.2377L28.4673 24.2054L28.4915 24.1782L28.5157 24.1527L28.5416 24.1306L28.5692 24.1136L28.5969 24.0999L28.6263 24.0931L28.6556 24.0897H29.7544L29.7734 24.0965L29.7872 24.1084L29.7958 24.122L29.8027 24.1357L29.8062 24.1527L29.8097 24.1714L29.8131 24.1918L29.8148 24.2122V24.2887L29.8131 24.316L29.8114 24.3449L29.8097 24.3755L29.8062 24.4061L29.8045 24.4367L29.801 24.4674L29.7975 24.4997L29.7941 24.5303V24.5422H30.1241L30.1189 24.5677V24.5745L30.1172 24.583L30.1154 24.5949L30.112 24.6102L30.1085 24.6289L30.1051 24.6494L30.1016 24.6715L30.0912 24.7225L30.0861 24.7514L30.0792 24.7803L30.074 24.811L30.067 24.8416L30.0532 24.9062L30.0463 24.9368L30.0377 24.9674L30.0308 24.9981L30.0221 25.0287L30.0152 25.0593L30.0066 25.0882L29.9979 25.1154L29.9893 25.1409L29.9807 25.1648L29.9738 25.1852L29.9651 25.2056L29.9548 25.2226L29.9461 25.2379L29.9358 25.2498L29.9219 25.2617L29.9047 25.2685H29.3847L29.3829 25.2736L29.3812 25.2974L29.3778 25.3196L29.376 25.3434L29.3726 25.3655L29.3691 25.4131L29.3657 25.4352L29.3622 25.4828V25.5067L29.3588 25.5543V25.721L29.3605 25.7448V25.7703L29.3622 25.7941L29.3674 25.8741L29.376 25.9523L29.3847 26.0288L29.3968 26.1054L29.4244 26.2517L29.459 26.3946L29.478 26.4643L29.497 26.5323L29.5177 26.6004L29.5384 26.6667L29.5833 26.7994L29.6507 26.9933L29.6749 27.058L29.6974 27.1226L29.7198 27.1855L29.7613 27.3148L29.782 27.3777L29.8027 27.4424L29.82 27.5087L29.8373 27.5734L29.8546 27.6397L29.8822 27.7724L29.8926 27.8404L29.9029 27.9102L29.9099 27.9799L29.9133 28.0445V28.1126L29.9081 28.1789L29.8995 28.247L29.8874 28.3133L29.8719 28.3813L29.8546 28.4494L29.8321 28.5157L29.8079 28.582L29.7803 28.6484L29.7509 28.7147L29.7181 28.7794L29.687 28.8372L29.6593 28.8865L29.649 28.9053L29.611 28.9665L29.5712 29.0277L29.5315 29.0855L29.4883 29.1434L29.452 29.191L29.4106 29.2437L29.4037 29.2522L29.3588 29.305L29.3138 29.3543L29.2706 29.4019L29.2257 29.4479L29.1912 29.4802L29.1393 29.5278L29.1376 29.5312L29.1255 29.5397L29.0702 29.5856L29.0495 29.6027L29.008 29.635L28.9666 29.6639L28.9269 29.6894L28.8889 29.7115L28.8837 29.7132L28.8768 29.7166L28.8698 29.7217L28.8612 29.7251L28.8474 29.7336L28.8284 29.7438L28.8163 29.7506L28.8025 29.7591L28.7869 29.7677L28.7714 29.7761L28.7558 29.7847L28.7385 29.7949L28.7213 29.8034L28.7023 29.8136L28.6833 29.8238L28.6643 29.8357L28.6435 29.8459L28.6228 29.8578L28.6021 29.868L28.5814 29.8799L28.5364 29.9037L28.5157 29.9156L28.4932 29.9258L28.4483 29.9497L28.4259 29.9616L28.4034 29.9735L28.381 29.9837L28.3585 29.9956L28.3499 30.0007V30.2949L28.3447 30.3341L28.3308 30.3715L28.3067 30.4055L28.2756 30.4327L28.2376 30.4565L28.1926 30.4753L28.1425 30.4906L28.0873 30.5025L28.0268 30.511L27.9629 30.5178L27.8955 30.5195L27.8247 30.5212L27.7504 30.5195L27.6744 30.5161L27.5966 30.5127L27.5172 30.5059L27.4377 30.4974L27.3548 30.4889L27.2736 30.4804L27.1941 30.4702L27.1129 30.46L26.9574 30.4395L26.8831 30.4293L26.8106 30.4191L26.7432 30.4089L26.6776 30.4004L26.6171 30.3936L26.5618 30.3868L26.51 30.3817L26.4668 30.38L26.4271 30.3783H26.3718L26.3614 30.38H26.3303L26.3199 30.3817H26.3096L26.2992 30.3834H26.2802L26.2699 30.3851L26.2595 30.3868H26.2508L26.2405 30.3885H26.2318L26.2232 30.3902L26.2146 30.3919L26.2042 30.3936H26.1956L26.1783 30.397L26.1697 30.3987L26.1627 30.4004L26.1455 30.4038H26.142V30.6045L26.1334 30.613L26.1282 30.6164L26.1196 30.6232L26.0936 30.6403L26.0764 30.6522L26.0556 30.6658L26.0297 30.6811L26.0021 30.6964L25.971 30.7134L25.9347 30.7321L25.8967 30.7508L25.8535 30.7695L25.8069 30.79L25.7568 30.8103L25.7015 30.8308L25.6427 30.8512L25.5805 30.8716L25.5132 30.892L25.4423 30.9107L25.3681 30.9311L25.2886 30.9481L25.2039 30.9669L25.1158 30.9822L25.0225 30.9975L24.9258 31.0111L24.8239 31.023L24.7168 31.0349L24.6045 31.0434L24.4887 31.0502L24.3678 31.0536L24.2417 31.057H24.1138L24.0638 31.0553L24.0119 31.057H23.8841L23.758 31.0536L23.637 31.0502L23.5213 31.0434L23.409 31.0349L23.3036 31.023L23.2 31.0111L23.1032 30.9975L23.0099 30.9822L22.9218 30.9669L22.8389 30.9481L22.7594 30.9311L22.6834 30.9107L22.6126 30.892L22.5452 30.8716L22.483 30.8512L22.4243 30.8308L22.3707 30.8103L22.3189 30.79L22.2723 30.7695L22.2308 30.7508L22.191 30.7321L22.1565 30.7134L22.1237 30.6964L22.096 30.6811L22.0719 30.6658L22.0494 30.6522L22.0321 30.6403L22.0183 30.6301L22.0062 30.6232L21.9976 30.6164L21.9924 30.613L21.9837 30.6045V30.4038H21.9803L21.9734 30.4021L21.9561 30.3987L21.9475 30.397L21.9388 30.3953L21.9302 30.3936H21.9215L21.9129 30.3919L21.9043 30.3902L21.8939 30.3885H21.8853L21.8749 30.3868H21.8663L21.8559 30.3851L21.8473 30.3834H21.8265L21.8162 30.3817H21.8058L21.7972 30.38H21.7644L21.754 30.3783H21.6987L21.6607 30.38L21.6158 30.3817L21.5657 30.3868L21.5087 30.3936L21.4482 30.4004L21.3843 30.4089L21.3152 30.4191L21.2426 30.4293L21.1683 30.4395L21.0923 30.4497L20.9334 30.4702L20.8522 30.4804L20.6898 30.4974L20.6086 30.5059L20.5291 30.5127L20.4514 30.5161L20.3754 30.5195L20.3011 30.5212L20.2302 30.5195L20.1629 30.5178L20.099 30.511L20.0402 30.5025L19.9849 30.4906L19.9348 30.4753L19.8899 30.4565L19.8502 30.4327L19.8191 30.4055L19.7949 30.3715L19.7811 30.3341L19.7759 30.2949V30.0007L19.7673 29.9956L19.7448 29.9837L19.7224 29.9735L19.6999 29.9616L19.6774 29.9497L19.6567 29.9377L19.6342 29.9258L19.6118 29.9156L19.5669 29.8918L19.5254 29.868L19.5029 29.8578L19.484 29.8459L19.4632 29.8357L19.4442 29.8238L19.4235 29.8136L19.4062 29.8034L19.3872 29.7949L19.3716 29.7847L19.3544 29.7761L19.3388 29.7677L19.3112 29.7506L19.2974 29.7438L19.2801 29.7336L19.2645 29.7251L19.2559 29.7217L19.249 29.7166L19.2421 29.7132L19.2369 29.7115L19.1989 29.6894L19.1592 29.6639L19.1177 29.635L19.0763 29.6027L19.0555 29.5856L19.0002 29.5397L18.9899 29.5312L18.9864 29.5278L18.9346 29.4802L18.9017 29.4479L18.8568 29.4019L18.8119 29.3543L18.767 29.305L18.7238 29.2522L18.7152 29.2437L18.6737 29.191L18.6374 29.1434L18.5545 29.0277L18.4785 28.9053L18.4681 28.8865L18.4388 28.8372L18.4077 28.7794L18.3766 28.7147L18.3455 28.6484L18.2936 28.5157L18.2729 28.4494L18.2539 28.3813L18.2384 28.3133L18.2263 28.247L18.2176 28.1789L18.2142 28.1126L18.2124 28.0445L18.2176 27.9799L18.2245 27.9102L18.2332 27.8404L18.2453 27.7724L18.2574 27.7061L18.2885 27.5734L18.3057 27.5087L18.3247 27.4424L18.3437 27.3777L18.3645 27.3148L18.3852 27.2502L18.4077 27.1855L18.4301 27.1226L18.52 26.864L18.5441 26.7994L18.5666 26.7331L18.6081 26.6004L18.6495 26.4643L18.6685 26.3946L18.6858 26.3231L18.7013 26.2517L18.7169 26.1785L18.729 26.1054L18.7411 26.0288L18.7515 25.9523L18.7584 25.8741L18.7635 25.7941L18.7653 25.7703L18.767 25.7448V25.721L18.7687 25.6972V25.6019L18.767 25.5781V25.5543L18.7653 25.5305V25.5067L18.7601 25.4352L18.7584 25.4131L18.7566 25.3893L18.7532 25.3655L18.7515 25.3434L18.748 25.3196L18.7463 25.2974L18.7428 25.2736L18.7411 25.2685H18.2228L18.2038 25.2617L18.19 25.2498L18.1796 25.2379L18.171 25.2226L18.1624 25.2056L18.1451 25.1648L18.1364 25.1409L18.1278 25.1154L18.1192 25.0882L18.1122 25.0593L18.095 24.9981L18.0812 24.9368L18.0725 24.9062L18.0587 24.8416L18.0535 24.811L18.0466 24.7803L18.0414 24.7514L18.0345 24.7225L18.0311 24.697L18.0259 24.6715L18.0207 24.6494L18.0172 24.6289L18.0138 24.6102L18.012 24.5949L18.0103 24.583L18.0086 24.5745L18.0069 24.5677L18.0034 24.5422H18.3334L18.3317 24.5303L18.3282 24.4997L18.3247 24.4674L18.323 24.4367L18.3161 24.3755L18.3144 24.3449L18.3126 24.316V24.2887L18.3109 24.2615V24.236L18.3126 24.2122L18.3161 24.1714L18.3196 24.1527L18.3247 24.1357L18.3299 24.122L18.3386 24.1084L18.3524 24.0965L18.3714 24.0897H19.4701L19.4995 24.0931L19.5289 24.0999L19.5582 24.1136L19.5842 24.1306L19.6101 24.1527L19.6342 24.1782L19.6584 24.2054L19.6809 24.2377L19.7033 24.2735L19.7258 24.3126L19.7465 24.3551L19.7673 24.401L19.7863 24.4504L19.8053 24.5014L19.8398 24.6136L19.8571 24.6749L19.8727 24.7378L19.8865 24.8024L19.9003 24.8688L19.9124 24.9385L19.9227 25.01L19.9331 25.0831L19.9418 25.158L19.9556 25.3144L19.9608 25.3944L19.9642 25.476L19.9659 25.5594V25.6427L19.9625 25.8145L19.9573 25.9081L19.9487 26.0016L19.94 26.0935L19.9279 26.1836L19.9141 26.2721L19.883 26.4456L19.845 26.6123L19.8243 26.694L19.8035 26.7722L19.7811 26.8504L19.7586 26.927L19.7137 27.0767L19.6913 27.1481L19.6671 27.2179L19.6446 27.2859L19.6239 27.3539L19.6014 27.4186L19.5807 27.4815L19.5617 27.5444L19.5427 27.604L19.5254 27.6618L19.4943 27.7741L19.4822 27.8268L19.4718 27.8779L19.4632 27.9272L19.4563 27.9748L19.4529 28.019L19.4511 28.0632L19.4546 28.1449L19.4632 28.2231L19.4788 28.298L19.4995 28.3694L19.5254 28.4392L19.5548 28.5055L19.5893 28.5685L19.6273 28.6297L19.6688 28.6892L19.7137 28.7436L19.7604 28.7964L19.8087 28.8474L19.8588 28.895L19.9124 28.941L19.9642 28.9835L20.0713 29.0617L20.1249 29.0975L20.1767 29.1298L20.2268 29.1604L20.2769 29.1893L20.3235 29.2148L20.3685 29.2386L20.4099 29.2607L20.4825 29.2965L20.5308 29.3203L20.5568 29.3339L20.5792 29.3441L20.5844 29.3475L20.6535 29.5686L20.7192 29.5584L20.7883 29.5482L20.8556 29.5363L20.9247 29.5227L21.0629 29.4989C21.0629 29.4955 21.1061 29.4887 21.1787 29.4768L21.2772 29.4598L21.3204 29.4513L21.3981 29.4394L21.462 29.4309L21.5259 29.424L21.5864 29.419L21.6469 29.4155L21.7039 29.4138L21.7609 29.4155L21.792 29.4172L21.8507 29.424L21.8801 29.4292L21.9077 29.4342L21.9354 29.4394L21.9613 29.4462L21.9872 29.453L22.0114 29.4598L22.0356 29.4666L22.058 29.4751L22.0805 29.4819L22.1012 29.4904L22.1582 29.5159L22.1755 29.5244L22.191 29.5329L22.2066 29.5397L22.2204 29.5482L22.2325 29.5567L22.2446 29.5635L22.255 29.5703L22.2653 29.5771L22.274 29.5822L22.2826 29.5873L22.2878 29.5924L22.2947 29.5959L22.2982 29.5992L22.3016 29.6027L22.3034 29.6043L22.312 29.6111V29.834L22.4865 29.8901L22.6851 29.9377L22.7612 29.9548L22.8406 29.9701L22.9218 29.9871L23.0082 30.0007L23.0963 30.016L23.1896 30.0296L23.2846 30.0415L23.3831 30.0517L23.4833 30.0619L23.5869 30.0704L23.694 30.0772L23.8029 30.0823L23.9152 30.0857H24.2106L24.3229 30.0823L24.4317 30.0772L24.5388 30.0704L24.6425 30.0619L24.7444 30.0517L24.8411 30.0415L24.9379 30.0296L25.0295 30.016L25.1175 30.0007L25.2039 29.9871L25.2869 29.9701L25.3646 29.9548L25.5944 29.8935L25.812 29.834L25.8138 29.6146Z" fill="#6D8CD1"/>
                <path fill-rule="evenodd" clip-rule="evenodd" d="M27.7916 20.0076H24.497L24.2625 20.0087L24.0629 20.0076L23.8632 20.0087L23.6276 20.0076H20.3352V22.1257C20.3352 22.7686 20.3352 23.1275 20.3352 23.1275C20.3352 23.1275 20.3352 23.6917 20.3352 24.1293C20.3352 25.3488 20.3352 26.5682 20.3352 27.7877C20.3624 27.954 20.4356 28.0793 20.5757 28.2042C20.7034 28.3016 20.8229 28.3869 20.9838 28.4112L23.4999 28.4126C23.5899 28.4196 23.7267 28.4662 23.8723 28.659C23.9736 28.8042 24.0243 28.9426 24.0667 29.0855C24.1073 28.9376 24.1504 28.8044 24.2575 28.6564C24.3754 28.4706 24.5278 28.4136 24.6298 28.4112C25.4076 28.4112 26.1882 28.4112 26.9659 28.4112C27.1681 28.3836 27.3653 28.2877 27.5226 28.182C27.6854 28.0437 27.7734 27.8907 27.7916 27.7377V24.1285C27.7916 24.1533 27.7916 23.1375 27.7916 23.1375C27.7916 23.1375 27.7916 22.7686 27.7916 22.1465V20.0076Z" fill="#B6C6E8"/>
                <path fill-rule="evenodd" clip-rule="evenodd" d="M24.0271 26.2635C23.157 26.6229 22.3862 26.7776 22.3862 26.7776L22.3672 26.6841C22.3672 26.6841 23.0594 26.5292 23.8799 26.2012C23.0641 25.8463 22.1955 25.313 21.8109 24.5612C22.2707 25.2729 23.1959 25.7935 24.0271 26.141C24.8581 25.7935 25.7832 25.2729 26.2439 24.5612C25.8585 25.313 24.9899 25.8463 24.1743 26.2011C24.9949 26.5292 25.6876 26.6841 25.6876 26.6841L25.6686 26.7776C25.6686 26.7776 24.8973 26.6229 24.0271 26.2635Z" fill="#6D8CD1"/>
                <path fill-rule="evenodd" clip-rule="evenodd" d="M23.9661 21.6197L23.9263 21.6588L23.88 21.6914L23.8336 21.724L23.7873 21.7436L23.6945 21.7827L23.6217 21.8088L23.5687 21.8153L23.5223 21.8284H23.4362L23.2838 21.8153L23.3567 21.7501L23.4295 21.6979L23.4958 21.6588L23.5753 21.6327L23.6217 21.6197L23.6746 21.6131L23.7806 21.6066H23.88L23.9661 21.6197Z" fill="#6D8CD1"/>
                <path fill-rule="evenodd" clip-rule="evenodd" d="M23.6677 21.3979L23.6478 21.4501L23.6147 21.5023L23.5352 21.5936L23.3961 21.7306L23.2968 21.7893L23.2107 21.8284L23.1245 21.861L23.045 21.8871L23.0848 21.7827L23.1113 21.7371L23.1444 21.698L23.204 21.6262L23.2703 21.5675L23.3233 21.5284L23.3763 21.4893L23.4292 21.4632L23.4822 21.4436L23.5286 21.424L23.5816 21.411L23.6677 21.3979Z" fill="#6D8CD1"/>
                <path fill-rule="evenodd" clip-rule="evenodd" d="M23.3834 21.7956L23.3636 21.8478L23.3304 21.9065L23.2973 21.9587L23.2576 22.0109L23.1781 22.1022L23.1185 22.1674L23.0323 22.2391L22.9529 22.2848L22.8734 22.3304L22.8005 22.3631L22.8336 22.2652L22.8734 22.1674L22.9198 22.0891L22.9794 22.0174L23.0191 21.9783L23.0655 21.9456L23.1185 21.9065L23.1781 21.8739L23.2841 21.8217L23.337 21.8087L23.3834 21.7956Z" fill="#6D8CD1"/>
                <path fill-rule="evenodd" clip-rule="evenodd" d="M23.1314 21.6329L23.1247 21.6851L23.1049 21.7503L23.085 21.809L23.0585 21.8677L22.9989 21.9721L22.9525 22.0503L22.8796 22.1416L22.7936 22.2264L22.7074 22.2982L22.6279 22.3569L22.6412 22.2395L22.6809 22.1221L22.7273 22.0243L22.7737 21.946L22.8134 21.8808L22.9061 21.7764L22.9989 21.6982L23.0916 21.646L23.1314 21.6329Z" fill="#6D8CD1"/>
                <path fill-rule="evenodd" clip-rule="evenodd" d="M22.8405 22.2195L22.8472 22.2782L22.8538 22.3434L22.8472 22.4152L22.8405 22.4804L22.814 22.6043L22.7875 22.6891L22.7412 22.7869L22.6815 22.8913L22.6021 22.9956L22.5159 23.0935L22.5027 22.9761V22.9108L22.5159 22.7804L22.5292 22.7152L22.5491 22.6435L22.5756 22.5782L22.6285 22.4739L22.6948 22.3695L22.7677 22.2782L22.8008 22.2456L22.8405 22.2195Z" fill="#6D8CD1"/>
                <path fill-rule="evenodd" clip-rule="evenodd" d="M22.615 22.0502L22.6348 22.1089L22.6481 22.1741V22.3176L22.6282 22.448L22.6084 22.5393L22.5819 22.6372L22.5355 22.748L22.4759 22.8589L22.4427 22.9176L22.403 22.9632L22.3765 22.8524L22.3699 22.7937L22.3633 22.7284V22.598L22.3765 22.5263L22.3898 22.4611L22.4295 22.3502L22.4891 22.2328L22.5554 22.1284L22.5885 22.0828L22.615 22.0502Z" fill="#6D8CD1"/>
                <path fill-rule="evenodd" clip-rule="evenodd" d="M22.5882 23.0349L22.6346 23.0805L22.6743 23.1327L22.7075 23.1914L22.7406 23.2566L22.7671 23.3153L22.7869 23.374L22.8068 23.4262L22.8134 23.4653L22.8201 23.5697L22.8267 23.7001L22.8201 23.8305L22.8134 23.8958L22.8002 23.961L22.7604 23.9153L22.7141 23.8697L22.681 23.811L22.6412 23.7523L22.6147 23.687L22.5882 23.6153L22.5684 23.5501L22.5551 23.4783L22.5419 23.361L22.5485 23.237L22.5617 23.1262L22.575 23.074L22.5882 23.0349Z" fill="#6D8CD1"/>
                <path fill-rule="evenodd" clip-rule="evenodd" d="M22.3038 22.7611L22.3435 22.8068L22.3899 22.8655L22.4562 22.9959L22.5158 23.1329L22.5423 23.2372L22.5555 23.3416L22.5621 23.4851V23.7655L22.5158 23.7199L22.4694 23.6677L22.4296 23.6025L22.3833 23.5372L22.3435 23.459L22.3104 23.3742L22.2839 23.2894L22.264 23.1981L22.2574 23.0872V22.9633L22.2773 22.8459L22.2905 22.8003L22.3038 22.7611Z" fill="#6D8CD1"/>
                <path fill-rule="evenodd" clip-rule="evenodd" d="M22.3964 23.6613L22.456 23.6874L22.5222 23.7135L22.5818 23.7526L22.701 23.8439L22.7871 23.9287L22.8136 23.9613L22.8799 24.0526L22.9594 24.1635L22.9991 24.2222L23.0322 24.2874L23.0654 24.3461L23.0852 24.4113L23.0256 24.3918L22.9594 24.3657L22.8865 24.3331L22.8203 24.2874L22.7474 24.2418L22.6878 24.1961L22.6282 24.1374L22.5818 24.0787L22.5156 23.9809L22.456 23.87L22.4162 23.7591L22.403 23.707L22.3964 23.6613Z" fill="#6D8CD1"/>
                <path fill-rule="evenodd" clip-rule="evenodd" d="M22.8202 23.7785L22.8798 23.7981L22.9394 23.8372L22.9924 23.8763L23.1382 24.0198L23.1978 24.085L23.2574 24.1698L23.317 24.2677L23.3501 24.3198L23.37 24.3785L23.3965 24.4372L23.4097 24.5025L23.2971 24.4568L23.2375 24.4372L23.1845 24.4046L23.1315 24.372L23.0785 24.3329L23.0322 24.2807L22.9858 24.222L22.9461 24.1633L22.9129 24.1046L22.8864 24.0394L22.8599 23.9807L22.8467 23.922L22.8202 23.8176V23.7785Z" fill="#6D8CD1"/>
                <path fill-rule="evenodd" clip-rule="evenodd" d="M22.8995 24.4046L22.9658 24.3981H23.0916L23.1579 24.4111L23.2175 24.4242L23.2705 24.4437L23.3168 24.4633L23.3566 24.4829L23.4493 24.5285L23.5619 24.6003L23.6216 24.6329L23.6745 24.6785L23.7275 24.7177L23.7673 24.7698L23.7143 24.7764L23.648 24.7829H23.5884L23.5222 24.7764L23.4559 24.7698L23.3897 24.7503L23.3235 24.7242L23.2572 24.6981L23.1513 24.6329L23.0519 24.5611L22.9592 24.4764L22.926 24.4372L22.8995 24.4046Z" fill="#6D8CD1"/>
                <path fill-rule="evenodd" clip-rule="evenodd" d="M23.6486 21.5153L23.6552 21.5414L23.6751 21.5675L23.6949 21.5805L23.7281 21.587L23.7546 21.5805L23.7744 21.5675L23.7943 21.5414L23.8009 21.5153L23.7943 21.4827L23.7546 21.4436L23.7281 21.437L23.6949 21.4436L23.6751 21.4631L23.6552 21.4827L23.6486 21.5153Z" fill="#6D8CD1"/>
                <path fill-rule="evenodd" clip-rule="evenodd" d="M22.8932 22.3764L22.8998 22.4025L22.9131 22.4286L22.9396 22.4416L22.9661 22.4481L22.9992 22.4416L23.019 22.4286L23.0389 22.4025V22.3438L23.019 22.3242L22.9992 22.3046L22.9661 22.2981L22.9396 22.3046L22.9131 22.3242L22.8998 22.3438L22.8932 22.3764Z" fill="#6D8CD1"/>
                <path fill-rule="evenodd" clip-rule="evenodd" d="M22.244 23.5958L22.2506 23.6284L22.2705 23.648L22.2904 23.6675H22.35L22.3699 23.648L22.3897 23.6284L22.3964 23.5958L22.3897 23.5697L22.3699 23.5436L22.35 23.5306L22.3169 23.524L22.2904 23.5306L22.2705 23.5436L22.2506 23.5697L22.244 23.5958Z" fill="#6D8CD1"/>
                <path fill-rule="evenodd" clip-rule="evenodd" d="M23.1975 24.7829L23.2041 24.8155L23.224 24.8351L23.2439 24.8547L23.277 24.8612L23.3035 24.8547L23.33 24.8351L23.3432 24.8155L23.3499 24.7829L23.3432 24.7568L23.33 24.7373L23.3035 24.7177L23.277 24.7112L23.2439 24.7177L23.224 24.7373L23.2041 24.7568L23.1975 24.7829Z" fill="#6D8CD1"/>
                <path fill-rule="evenodd" clip-rule="evenodd" d="M24.3969 24.998L24.3704 24.985L24.3439 24.972L24.2578 24.9328L24.1717 24.8937L24.1054 24.8545L24.0789 24.8285L24.0458 24.7893L23.973 24.7045L23.8868 24.6002L23.8338 24.5545L23.7742 24.5089L23.6749 24.4371L23.6351 24.411L23.5954 24.3915L23.549 24.3785L23.5027 24.3654L23.3569 24.3328L23.39 24.398L23.4364 24.4763L23.4695 24.5219L23.5689 24.6197L23.6285 24.6719L23.708 24.7306L23.7809 24.7763L23.8405 24.8024L23.8935 24.8219L23.9862 24.848L24.0259 24.8611L24.0723 24.8872L24.2313 24.998L24.3307 25.0633L24.3572 25.0567L24.3969 24.998Z" fill="#6D8CD1"/>
                <path fill-rule="evenodd" clip-rule="evenodd" d="M24.2378 21.6197L24.2775 21.6588L24.3239 21.6914L24.3703 21.724L24.4166 21.7436L24.5094 21.7827L24.5822 21.8088L24.6352 21.8153L24.6882 21.8284H24.7677L24.9201 21.8153L24.8472 21.7501L24.7743 21.6979L24.7081 21.6588L24.6286 21.6327L24.5822 21.6197L24.5292 21.6131L24.4233 21.6066H24.3239L24.2378 21.6197Z" fill="#6D8CD1"/>
                <path fill-rule="evenodd" clip-rule="evenodd" d="M24.5361 21.3979L24.5891 21.5023L24.6686 21.5936L24.7481 21.6719L24.8143 21.7306L24.9071 21.7893L24.9932 21.8284L25.0793 21.861L25.1588 21.8871L25.119 21.7827L25.0925 21.7371L25.0594 21.698L24.9998 21.6262L24.9335 21.5675L24.8806 21.5284L24.8276 21.4893L24.7746 21.4632L24.7282 21.4436L24.6752 21.424L24.6222 21.411L24.5361 21.3979Z" fill="#6D8CD1"/>
                <path fill-rule="evenodd" clip-rule="evenodd" d="M24.8209 21.7956L24.8408 21.8478L24.8739 21.9065L24.907 21.9587L24.9468 22.0109L25.0263 22.1022L25.0859 22.1674L25.172 22.2391L25.2515 22.2848L25.331 22.3304L25.4038 22.3631L25.3707 22.2652L25.331 22.1674L25.2846 22.0891L25.225 22.0174L25.1852 21.9783L25.1389 21.9456L25.0859 21.9065L25.0263 21.8739L24.9203 21.8217L24.8673 21.8087L24.8209 21.7956Z" fill="#6D8CD1"/>
                <path fill-rule="evenodd" clip-rule="evenodd" d="M25.0725 21.6329L25.0791 21.6851L25.099 21.7503L25.1189 21.809L25.1454 21.8677L25.205 21.9721L25.2514 22.0503L25.3309 22.1416L25.4103 22.2264L25.4964 22.2982L25.5759 22.3569L25.5627 22.2395L25.5229 22.1221L25.4766 22.0243L25.4302 21.946L25.3904 21.8808L25.2977 21.7764L25.205 21.6982L25.1123 21.646L25.0725 21.6329Z" fill="#6D8CD1"/>
                <path fill-rule="evenodd" clip-rule="evenodd" d="M25.364 22.2195L25.3573 22.2782L25.3507 22.3434L25.3573 22.4152L25.364 22.4804L25.3905 22.6043L25.417 22.6891L25.4633 22.7869L25.5296 22.8913L25.6024 22.9956L25.6886 23.0935L25.7018 22.9761V22.9108L25.6886 22.7804L25.6753 22.7152L25.6554 22.6435L25.6289 22.5782L25.576 22.4739L25.5097 22.3695L25.4368 22.2782L25.4037 22.2456L25.364 22.2195Z" fill="#6D8CD1"/>
                <path fill-rule="evenodd" clip-rule="evenodd" d="M25.5889 22.0502L25.569 22.1089L25.5558 22.1741V22.3176L25.5757 22.448L25.5955 22.5393L25.622 22.6372L25.6684 22.748L25.728 22.8589L25.7611 22.9176L25.8009 22.9632L25.8274 22.8524L25.834 22.7937L25.8406 22.7284V22.598L25.8274 22.5263L25.8141 22.4611L25.7744 22.3502L25.7148 22.2328L25.6485 22.1284L25.6154 22.0828L25.5889 22.0502Z" fill="#6D8CD1"/>
                <path fill-rule="evenodd" clip-rule="evenodd" d="M25.6159 23.0349L25.5695 23.0805L25.5298 23.1327L25.4967 23.1914L25.4636 23.2566L25.4371 23.3153L25.4172 23.374L25.4039 23.4262L25.3907 23.4653L25.3841 23.5697L25.3774 23.7001L25.3841 23.8305L25.3907 23.8958L25.4039 23.961L25.4503 23.9153L25.4901 23.8697L25.5232 23.811L25.5629 23.7523L25.596 23.687L25.6159 23.6153L25.6424 23.5501L25.649 23.4783L25.6623 23.361L25.6557 23.237L25.6424 23.1262L25.6292 23.074L25.6159 23.0349Z" fill="#6D8CD1"/>
                <path fill-rule="evenodd" clip-rule="evenodd" d="M25.9004 22.7611L25.8607 22.8068L25.8209 22.8655L25.7812 22.9307L25.7481 22.9959L25.6951 23.1329L25.662 23.2372L25.6487 23.3416L25.6421 23.4851V23.7655L25.6885 23.7199L25.7348 23.6677L25.7746 23.6025L25.8209 23.5372L25.8607 23.459L25.8938 23.3742L25.9203 23.2894L25.9402 23.1981L25.9468 23.0872V22.9633L25.9269 22.8459L25.9137 22.8003L25.9004 22.7611Z" fill="#6D8CD1"/>
                <path fill-rule="evenodd" clip-rule="evenodd" d="M25.8076 23.6613L25.748 23.6874L25.6818 23.7135L25.6222 23.7526L25.5029 23.8439L25.4566 23.8896L25.4168 23.9287L25.3903 23.9613L25.3241 24.0526L25.2446 24.1635L25.2049 24.2222L25.1717 24.2874L25.1386 24.3461L25.1188 24.4113L25.1784 24.3918L25.2446 24.3657L25.3175 24.3331L25.3837 24.2874L25.4566 24.2418L25.5228 24.1961L25.6288 24.0787L25.6884 23.9809L25.748 23.87L25.7878 23.7591L25.801 23.707L25.8076 23.6613Z" fill="#6D8CD1"/>
                <path fill-rule="evenodd" clip-rule="evenodd" d="M25.3835 23.7785L25.3239 23.7981L25.2643 23.8372L25.2113 23.8763L25.0655 24.0198L25.0059 24.085L24.9463 24.1698L24.8867 24.2677L24.8602 24.3198L24.8337 24.3785L24.8138 24.4372L24.7939 24.5025L24.9066 24.4568L24.9662 24.4372L25.0192 24.4046L25.0722 24.372L25.1251 24.3329L25.1715 24.2807L25.2179 24.222L25.2576 24.1633L25.2908 24.1046L25.3173 24.0394L25.3437 23.9807L25.357 23.922L25.3835 23.8176V23.7785Z" fill="#6D8CD1"/>
                <path fill-rule="evenodd" clip-rule="evenodd" d="M25.3042 24.4046L25.2379 24.3981H25.1121L25.0524 24.4111L24.9928 24.4242L24.9332 24.4437L24.8868 24.4633L24.8471 24.4829L24.7544 24.5285L24.6417 24.6003L24.5887 24.6329L24.5291 24.6785L24.4828 24.7177L24.4364 24.7698L24.496 24.7764L24.5556 24.7829H24.6152L24.6815 24.7764L24.7477 24.7698L24.814 24.7503L24.8868 24.7242L24.9531 24.6981L25.0524 24.6329L25.1518 24.5611L25.2445 24.4764L25.2777 24.4372L25.3042 24.4046Z" fill="#6D8CD1"/>
                <path fill-rule="evenodd" clip-rule="evenodd" d="M24.5558 21.5153L24.5492 21.5414L24.5359 21.5675L24.5094 21.5805L24.4829 21.587L24.4498 21.5805L24.4299 21.5675L24.4101 21.5414L24.4034 21.5153L24.4101 21.4827L24.4498 21.4436L24.4829 21.437L24.5094 21.4436L24.5359 21.4631L24.5492 21.4827L24.5558 21.5153Z" fill="#6D8CD1"/>
                <path fill-rule="evenodd" clip-rule="evenodd" d="M25.3109 22.3764L25.3043 22.4025L25.291 22.4286L25.2645 22.4416L25.238 22.4481L25.2115 22.4416L25.185 22.4286L25.1718 22.4025L25.1652 22.3764L25.1718 22.3438L25.185 22.3242L25.2115 22.3046L25.238 22.2981L25.2645 22.3046L25.291 22.3242L25.3043 22.3438L25.3109 22.3764Z" fill="#6D8CD1"/>
                <path fill-rule="evenodd" clip-rule="evenodd" d="M25.96 23.5958L25.9534 23.6284L25.9401 23.648L25.9136 23.6675H25.854L25.8341 23.648L25.8142 23.6284L25.8076 23.5958L25.8142 23.5697L25.8341 23.5436L25.854 23.5306L25.8871 23.524L25.9136 23.5306L25.9401 23.5436L25.9534 23.5697L25.96 23.5958Z" fill="#6D8CD1"/>
                <path fill-rule="evenodd" clip-rule="evenodd" d="M25.0063 24.7829L24.9997 24.8155L24.9798 24.8351L24.96 24.8547L24.9335 24.8612L24.9004 24.8547L24.8805 24.8351L24.8606 24.8155L24.854 24.7829L24.8606 24.7568L24.9004 24.7177L24.9335 24.7112L24.96 24.7177L24.9997 24.7568L25.0063 24.7829Z" fill="#6D8CD1"/>
                <path fill-rule="evenodd" clip-rule="evenodd" d="M23.8136 24.998L23.8335 24.985L23.86 24.972L23.9461 24.9328L24.0322 24.8937L24.0984 24.8545L24.1249 24.8285L24.1581 24.7893L24.2309 24.7045L24.317 24.6002L24.37 24.5545L24.4296 24.5089L24.529 24.4371L24.5688 24.411L24.6085 24.3915L24.6548 24.3785L24.7012 24.3654L24.8469 24.3328L24.8138 24.398L24.7674 24.4763L24.7343 24.5219L24.688 24.5676L24.635 24.6197L24.5753 24.6719L24.4959 24.7306L24.4296 24.7763L24.3634 24.8024L24.3104 24.8219L24.2177 24.848L24.1779 24.8611L24.1316 24.8872L23.9726 24.998L23.8732 25.0633L23.8467 25.0567L23.8335 25.0372L23.8202 25.0176L23.8136 24.998Z" fill="#6D8CD1"/>
            </g>
        </g>
    </g>
    <path d="M33.7738 33.6017H14.2233C13.8782 33.6017 13.5981 33.244 13.5981 32.8017C13.5981 32.3599 13.8779 32.0017 14.2233 32.0017H33.7738C34.1189 32.0017 34.3986 32.3599 34.3986 32.8017C34.3986 33.244 34.1189 33.6017 33.7738 33.6017Z" fill="#514E62"/>
    <defs>
        <clipPath id="clip0">
            <rect x="12.9998" y="4.99951" width="21" height="31" fill="white"/>
        </clipPath>
        <clipPath id="clip1">
            <rect x="17.9998" y="19.9995" width="13" height="12" fill="white"/>
        </clipPath>
        <clipPath id="clip2">
            <rect x="17.9998" y="19.9995" width="12.1338" height="11.0769" fill="white"/>
        </clipPath>
    </defs>
</svg>
