<svg width="64" height="65" viewBox="0 0 64 65" fill="none" xmlns="http://www.w3.org/2000/svg">
    <circle cx="32" cy="32.4668" r="32" fill="#0B40B3"/>
    <path fill-rule="evenodd" clip-rule="evenodd" d="M31.9996 11.1335L33.0383 12.3945H33.0385L31.9993 13.7214L30.9606 12.3945L31.9996 11.1335ZM18.099 21.5629L18.0987 21.5632L18.0988 21.5635L18.099 21.5629ZM19.5749 22.0172C19.9212 20.4506 18.4871 21.2698 18.099 21.5629C18.572 20.2679 18.0997 19.7738 17.7048 19.3609C17.4573 19.102 17.2403 18.875 17.3058 18.5026C17.3784 18.0894 17.971 18.0054 18.5449 17.9241C18.9088 17.8726 19.2652 17.8221 19.4768 17.6894C19.7349 17.5277 20.0056 17.2413 20.2781 16.953C21.0275 16.1602 21.7907 15.3527 22.344 17.0831C20.9382 18.383 21.7567 20.2962 23.5416 20.2962C23.5416 20.2962 23.5515 20.5768 23.5357 20.5991C21.4059 20.4956 20.6635 18.9373 21.0525 17.6895C21.1215 17.4688 18.8687 17.4633 18.8687 18.867C18.8687 19.3329 19.1994 19.6773 19.5331 20.0249C19.8732 20.3791 20.2164 20.7366 20.2164 21.2293C20.2164 21.6839 19.725 22.0172 19.5749 22.0172ZM42.9464 17.6895C42.8772 17.4688 45.1302 17.4633 45.1302 18.867C45.1302 19.3329 44.7995 19.6773 44.4658 20.0249C44.1257 20.3791 43.7825 20.7366 43.7825 21.2293C43.7825 21.6839 44.2739 22.0172 44.4247 22.0172C44.0775 20.4502 45.5127 21.2703 45.9004 21.5632C45.427 20.2678 45.8995 19.7736 46.2943 19.3607C46.5419 19.1019 46.7589 18.875 46.6931 18.5026C46.6204 18.0894 46.0278 18.0055 45.4538 17.9242C45.09 17.8726 44.7336 17.8221 44.5221 17.6895C44.264 17.5278 43.9933 17.2414 43.7208 16.9531C42.9714 16.1602 42.2082 15.3527 41.6549 17.0832C43.0614 18.383 42.243 20.2964 40.4573 20.2964C40.4573 20.2964 40.4474 20.5768 40.4638 20.5991C42.5936 20.4954 43.336 18.9372 42.9464 17.6895ZM37.4256 21.653C39.6496 21.6456 41.7467 21.6386 42.0118 23.0504L42.012 23.051C42.1051 23.5456 41.8662 24.2988 41.6081 24.5156C41.5618 24.3589 41.3212 23.8464 40.5606 23.7316C36.7184 23.1537 33.5106 29.0481 36.4069 31.4312C36.4505 31.4676 36.4254 31.5343 36.3666 31.5343H27.6853C27.6257 31.5343 27.6007 31.4677 27.6448 31.4311C30.5404 29.0479 27.3326 23.1534 23.4905 23.7313C22.7303 23.8461 22.4892 24.3587 22.443 24.5154C22.1849 24.2987 21.946 23.5455 22.0384 23.0509C22.1251 22.5899 22.4071 22.2802 22.8249 22.0724C23.687 21.6436 25.1275 21.6484 26.6255 21.6533C28.0812 21.6581 29.5913 21.6631 30.6777 21.2706C30.7311 21.9515 29.8321 23.0425 28.9732 23.4462C30.4415 24.7147 31.7599 27.2708 32.025 30.3935C32.2913 27.2708 33.6096 24.7147 35.0779 23.446C34.2188 23.0424 33.3208 21.9513 33.3733 21.2703C34.4598 21.6628 35.9699 21.6578 37.4256 21.653ZM37.7053 25.0612C38.2557 24.8922 39.2149 24.8789 39.882 25.4611C39.882 24.8386 39.3413 24.2858 39.153 24.2155C38.9058 24.2593 38.0657 24.6207 37.7053 25.0612ZM24.146 25.4611C24.8137 24.8789 25.7732 24.8922 26.3227 25.0612C25.9637 24.6207 25.1222 24.2593 24.8756 24.2155C24.6873 24.2858 24.1459 24.8386 24.1459 25.4611H24.146ZM38.969 16.2071L38.2304 15.3111L37.4921 16.2071L38.2302 17.0829L38.9691 16.2071H38.969ZM44.0251 41.1226L44.9614 42.1091L44.0251 42.9745L43.0885 42.109L44.0251 41.1226ZM26.5074 16.2071L25.7688 15.3111L25.0307 16.2071L25.7689 17.0829L26.5075 16.2071H26.5074ZM24.3916 20.5993H24.3912L24.3917 20.5994L24.3916 20.5993ZM27.1469 20.5993H24.3916C24.3833 20.5881 23.9079 19.9455 23.788 19.6261C23.3536 18.466 23.9082 17.9252 24.7201 17.9252L25.7691 18.8713L26.8181 17.9249C27.6301 17.9249 28.1847 18.4659 27.7503 19.6258C27.695 19.7741 27.5626 19.9919 27.436 20.1838C28.4138 20.0499 29.6618 19.3835 29.9361 17.9562C29.9361 17.9562 29.2129 16.8137 29.0323 16.3514C28.3803 14.6887 29.2121 14.0092 30.4289 14.0092L31.9997 15.8471L33.5706 14.0092C34.7873 14.0092 35.6193 14.6887 34.968 16.3514C34.7865 16.8137 34.0641 17.9561 34.0641 17.9561C34.3377 19.3835 35.5859 20.0499 36.5637 20.1836C36.4378 19.9921 36.3048 19.7741 36.2492 19.6259C35.814 18.4659 36.3701 17.925 37.1815 17.925L38.2302 18.8711L39.2792 17.9247C40.0906 17.9247 40.6468 18.4659 40.2116 19.6258C40.0906 19.9481 39.6087 20.5991 39.6087 20.5991H36.853C34.5355 20.5991 33.4937 19.1836 33.1785 17.9561H30.8211C30.5061 19.1836 29.4637 20.5993 27.1469 20.5993ZM52.8805 29.1017C52.3486 29.3698 49.2282 30.8248 45.2311 30.2866C45.2725 30.0968 45.3076 29.9057 45.3364 29.7136C47.9968 29.3968 50.1592 28.9477 51.5374 28.1847C53.1082 27.3143 53.7952 25.2366 53.0023 23.691C52.9817 23.6521 52.9248 23.645 52.8964 23.6778C52.4618 24.1758 49.7298 27.1341 45.4253 28.0539C45.4143 27.8319 45.3939 27.6104 45.3642 27.3901C47.4549 26.21 49.4958 24.8502 50.468 23.6068C51.937 21.7269 51.8019 19.3289 50.4039 18.1063C50.3894 18.0939 50.3702 18.0883 50.3512 18.091C50.3323 18.0936 50.3154 18.1043 50.3049 18.1202C49.8626 18.8467 45.7225 25.5073 41.1772 28.3831C41.1217 28.4184 41.0658 28.453 41.0094 28.4868C40.8791 28.5656 40.8648 28.7343 40.9756 28.8343C41.5 29.3071 41.8256 29.9649 41.8256 30.6954C41.8256 31.9656 40.8422 33.0219 39.5422 33.2511C38.8816 33.3785 37.9282 33.3414 37.012 33.0399C36.9708 33.0267 36.9282 33.0538 36.9282 33.0949V37.1171C36.9282 37.1819 37.027 37.198 37.0503 37.1362C37.6073 35.6675 39.2741 35.3556 40.0031 35.3556C40.2654 36.925 40.734 38.2249 41.3427 38.9247C42.334 40.0616 43.9527 40.0456 44.6545 39.2596C44.666 39.2465 44.6709 39.229 44.6679 39.2119C44.6648 39.1948 44.6541 39.18 44.6388 39.1717C44.2264 38.9359 41.8669 37.4938 41.3946 35.1308C41.58 35.0681 41.7612 34.9939 41.9372 34.9086C42.6989 36.1633 43.8075 37.2807 44.7 37.7076C46.1992 38.4233 47.5716 38.0752 48.1802 37.0274C48.2023 36.9904 48.1752 36.9445 48.1305 36.9404C47.2032 36.8667 44.3573 36.0548 43.1456 34.0768C43.2857 33.9501 43.4196 33.8166 43.5466 33.6769C44.8149 34.638 46.6075 35.4874 47.891 35.6608C49.3928 35.8641 51.0945 35.3869 51.1357 33.6485C51.1364 33.6138 51.1051 33.5853 51.068 33.5873C50.534 33.6195 46.9992 33.7726 44.4804 32.3334C44.568 32.1678 44.6496 31.9992 44.7251 31.8278C44.7251 31.8278 48.531 32.7234 50.3343 32.4268C52.1263 32.1324 53.1759 30.8027 52.9733 29.1482C52.9674 29.1072 52.9192 29.0827 52.8806 29.1022L52.8805 29.1017ZM19.2743 31.8274C19.35 31.9988 19.4318 32.1674 19.5195 32.3329C17.0014 33.7714 13.4682 33.6195 12.9317 33.5869C12.8941 33.5848 12.8626 33.6147 12.8635 33.6488C12.9054 35.3866 14.6065 35.8636 16.1083 35.6604C17.3913 35.487 19.1847 34.6375 20.4525 33.6767C20.5798 33.8162 20.7136 33.9496 20.8536 34.0765C19.6413 36.0543 16.7959 36.8664 15.8687 36.9401C15.8238 36.9445 15.7976 36.9903 15.8189 37.0272C16.4276 38.0751 17.8 38.4232 19.2999 37.7075C20.1915 37.2806 21.3001 36.1631 22.0615 34.9085C22.2377 34.9936 22.419 35.0678 22.6044 35.1306C22.1321 37.4937 19.7727 38.9355 19.3603 39.1717C19.345 39.1801 19.3344 39.1949 19.3313 39.2119C19.3283 39.229 19.3331 39.2465 19.3445 39.2596C20.0463 40.0455 21.6656 40.0614 22.6569 38.9245C23.2656 38.2248 23.7336 36.9248 23.9958 35.3554C24.7255 35.3554 26.3917 35.6674 26.9486 37.1359C26.9726 37.1978 27.0714 37.1817 27.0714 37.1168V33.0948C27.0714 33.0538 27.028 33.0265 26.9869 33.0397C26.071 33.3414 25.1173 33.378 24.4575 33.2506C23.1569 33.0217 22.1733 31.9655 22.1733 30.6954C22.1733 29.9652 22.4999 29.3066 23.0231 28.834C23.1349 28.7344 23.1198 28.5657 22.9905 28.4869C22.9336 28.4531 22.8772 28.4186 22.8213 28.3834C18.2786 25.5092 14.1408 18.8531 13.6947 18.122C13.6841 18.1056 13.667 18.0946 13.6476 18.0918C13.6283 18.089 13.6086 18.0947 13.5938 18.1074C12.1979 19.3307 12.0622 21.7277 13.5313 23.6071C14.5035 24.8505 16.5444 26.2103 18.6343 27.3904C18.6049 27.6106 18.5848 27.832 18.574 28.0539C14.2731 27.135 11.5432 24.1816 11.1044 23.6802C11.075 23.6459 11.0169 23.6528 10.997 23.6919C10.2055 25.2385 10.8926 27.3144 12.4618 28.1848C13.8401 28.9478 16.0027 29.397 18.6629 29.7138C18.6916 29.9058 18.7267 30.0969 18.7681 30.2867C14.7751 30.8242 11.6563 29.3725 11.1202 29.1025C11.0804 29.0823 11.0322 29.1073 11.0272 29.149C10.8252 30.8034 11.874 32.1319 13.666 32.4264C15.4611 32.7217 19.242 31.835 19.2743 31.8274ZM42.6384 43.1589L44.025 44.2448L45.4124 43.1586C46.208 43.6287 46.7072 44.4913 46.5905 45.4521C46.457 46.5487 45.4897 47.4356 44.3036 47.5513C43.2596 47.6537 42.3346 47.1754 41.834 46.4276C41.0505 45.6526 39.0706 45.0748 37.4636 45.0748C37.2132 45.0748 37.0966 44.8645 37.1826 44.6585C37.8262 43.1176 36.4424 42.0015 35.0117 42.9101C34.3873 43.3062 33.7529 44.0868 33.2741 45.3888C35.6232 45.9549 38.5729 47.5144 39.168 49.2168C39.3992 49.8739 38.6391 50.7702 37.7181 50.9504C37.6842 50.9576 37.6508 50.9362 37.6435 50.9025C37.162 48.3611 34.4173 46.4673 32.988 46.1457C32.9606 46.2184 32.9471 46.2546 32.9369 46.282C32.9306 46.2988 32.9256 46.3123 32.9194 46.329C32.9093 46.3564 32.8959 46.3924 32.8685 46.466C34.4244 47.1985 35.9326 48.7436 36.3642 50.5801C36.5612 51.4212 35.6198 52.1794 34.8409 52.3869C34.8229 52.3918 34.8037 52.3884 34.7883 52.3779C34.773 52.3673 34.7632 52.3505 34.7614 52.332C34.6142 50.0093 33.5833 48.0376 32.6608 47.1398C32.6352 47.3153 32.616 47.4916 32.6031 47.6685C32.6031 47.6685 33.5479 50.2897 33.5479 52.2024C33.5479 53.0923 32.2204 53.7134 31.9752 53.8002C31.779 53.7134 30.4505 53.0923 30.4505 52.2024C30.4505 50.2899 31.3956 47.6687 31.3956 47.6687C31.383 47.4918 31.364 47.3155 31.3387 47.14C30.4156 48.0373 29.3853 50.01 29.2374 52.3327C29.2352 52.3702 29.1968 52.3972 29.1577 52.3869C28.3798 52.1794 27.4375 51.4212 27.6354 50.5801C28.0662 48.7433 29.5751 47.1985 31.1311 46.466C31.0816 46.3345 31.0774 46.3231 31.056 46.266C31.0464 46.2403 31.0333 46.2053 31.011 46.1458C29.5825 46.4674 26.8368 48.3612 26.3554 50.9026C26.352 50.9189 26.3422 50.9331 26.3282 50.9421C26.3141 50.9512 26.2971 50.9542 26.2808 50.9507C25.3592 50.7704 24.6003 49.8744 24.8301 49.2171C25.4267 47.5147 28.3757 45.9552 30.7243 45.3891C30.2464 44.087 29.6122 43.3065 28.9878 42.9104C27.5562 42.0018 26.1725 43.1181 26.8162 44.6587C26.9021 44.8648 26.7847 45.0751 26.5352 45.0751C25.1145 45.0751 23.4027 45.5269 22.4839 46.1679C22.4839 46.1679 23.5977 47.1972 23.6153 47.2165C23.6956 47.2905 23.7539 47.3879 23.7627 47.5014C23.7833 47.7529 23.5799 47.972 23.3081 47.9901C23.1589 48.0007 23.025 47.945 22.9265 47.8557L21.8157 46.8295C21.4843 47.0225 21.0712 47.1074 20.6317 47.0196C20.0094 46.8942 19.5224 46.4116 19.4228 45.8295C19.3595 45.4569 19.4512 45.1075 19.6439 44.8228C19.6439 44.8228 15.4477 40.8763 15.4129 40.8299L15.2151 40.9251C14.7649 41.1931 14.2338 40.8587 14.2544 40.6244C13.9366 40.9154 12.4674 41.0198 12.0294 39.545C12.3273 39.5702 12.9317 39.5556 12.9317 39.5556C12.9317 39.5556 12.2086 38.4415 12.7297 37.8274C13.3229 37.2788 14.5041 37.9144 14.5041 37.9144C14.5041 37.9144 14.4813 37.3233 14.4364 37.0337C15.9668 37.3673 15.954 38.8091 15.6781 39.1386C15.9156 39.1035 16.2912 39.6014 16.0455 40.0584L16.0102 40.1404C16.0891 40.1801 20.3975 44.2408 20.3975 44.2408C20.5835 44.1721 20.7803 44.1369 20.9787 44.1368C21.4452 44.1368 21.8619 44.3248 22.1508 44.623C23.2472 44.7566 25.5847 44.2282 25.3655 43.8981C22.8725 40.4085 24.7803 38.3309 27.0715 38.4466V40.7899C27.0715 41.5425 27.7298 42.1525 28.5434 42.1525H30.1255C31.2604 42.1525 31.9993 43.2882 31.9993 43.2882C31.9993 43.2882 32.7382 42.1526 33.8731 42.1526H35.4553C36.2682 42.1526 36.928 41.5427 36.928 40.7899V38.4466C39.2192 38.3309 41.1255 40.4087 38.6332 43.8982C38.4121 44.2317 40.6861 44.7345 41.5203 44.6183C41.6783 44.0078 42.0849 43.487 42.6384 43.1589ZM35.0466 37.9209C35.0729 37.2109 34.2984 37.0632 33.8044 37.2457V37.2451C33.6573 37.3001 33.5641 37.3655 33.5989 37.548C33.69 38.0213 33.7756 38.4958 33.865 38.9907C33.9004 39.1874 33.9365 39.3873 33.9737 39.5916C34.381 39.1495 35.2196 38.9614 35.2196 39.5282C35.2196 40.1932 34.6357 40.8129 33.8391 41.2042L31.0565 33.6033C31.2578 33.5538 31.6497 33.5441 31.7939 33.5678C31.7434 33.4779 31.7243 33.3944 31.7243 33.3164C31.7243 32.9655 31.9781 32.8082 32.2065 32.8082C32.4957 32.8082 32.5869 33.0241 32.5869 33.1409C32.5869 33.3386 32.3934 33.5302 32.3295 33.5791C32.1938 33.6799 32.2193 33.7585 32.3174 33.8735C32.4183 33.9911 32.6287 34.2613 32.6728 34.425C32.9644 33.9905 34.0255 33.7635 34.4492 34.0686C34.9557 34.4319 34.8553 35.1853 34.4231 35.6719C34.3589 35.7444 34.2515 35.8537 34.1656 35.8502C34.0276 35.8453 33.9665 35.743 33.9798 35.5738C33.9816 35.5504 33.9842 35.5232 33.987 35.4935L33.987 35.4933C34.0073 35.2786 34.0399 34.9334 33.8988 34.9334C33.6009 34.9334 33.6265 35.4146 33.6963 35.6709C33.7551 35.8842 33.8092 36.0988 33.8669 36.3279L33.867 36.3282L33.8672 36.329L33.8672 36.3292C33.8951 36.4398 33.9238 36.5538 33.9543 36.6726C34.7097 36.5482 35.4313 36.8542 35.2834 37.9175C35.267 38.082 35.0403 38.082 35.0466 37.9209ZM29.8696 32.0822L30.4543 33.6991C29.9538 33.8177 29.1487 34.1809 29.1487 34.662C29.1487 35.3026 30.2875 35.7197 30.9457 35.6696C30.9131 35.8157 30.9507 35.9459 31.0531 36.065C30.8142 36.065 30.3634 36.1757 30.2154 36.3345C29.8663 36.0108 29.3201 35.8929 29.0604 36.0899C28.7996 36.2885 28.7918 36.6248 29.0641 37.0049C29.2539 37.2681 29.3251 37.5278 29.1118 37.8327C29.5998 37.8327 29.6771 37.4443 29.7367 37.1452C29.7739 36.958 29.8043 36.8058 29.9239 36.8058C29.8832 37.0049 29.908 37.2353 29.9984 37.4909C30.0581 37.6608 30.0581 37.7814 29.9557 37.9449C29.6997 38.3523 29.3016 39.2879 29.3554 40.1341C29.0953 40.1326 28.963 40.0693 29.0547 39.7155C29.0888 39.584 29.0072 39.49 28.899 39.6522C28.7796 39.8312 28.7219 40.137 28.7219 40.2676C28.7219 41.021 29.6238 41.1727 29.9678 41.0134C30.9634 41.9726 32.9191 41.7166 33.5738 41.3949L30.1306 31.9907C30.0603 31.813 29.8078 31.898 29.8696 32.0825V32.0822ZM29.7505 39.8289C29.7505 39.8289 29.7505 39.8288 29.7505 39.8289V39.8289ZM29.7505 39.8289C30.0484 39.6188 30.6414 39.5254 31.1407 39.5254C30.8533 39.2671 30.7623 38.5172 30.9088 38.082C30.2205 38.7497 29.6794 39.4418 29.7505 39.8289Z" fill="#FEFEFE"/>
</svg>
