<svg viewBox="0 0 41 41" fill="none" xmlns="http://www.w3.org/2000/svg">
    <path fill-rule="evenodd" clip-rule="evenodd" d="M39.0961 32.013C39.6691 32.013 40.1331 32.477 40.1331 33.05V38.235C40.1331 39.218 39.3381 40.013 38.3551 40.013H33.1701C32.895 40.013 32.6313 39.9037 32.4368 39.7093C32.2423 39.5148 32.1331 39.251 32.1331 38.976C32.1331 38.701 32.2423 38.4372 32.4368 38.2427C32.6313 38.0483 32.895 37.939 33.1701 37.939H38.0601V33.05C38.0601 32.477 38.5231 32.013 39.0961 32.013ZM32.1331 1.05C32.1331 0.477999 32.5971 0.0130005 33.1701 0.0130005H38.3551C39.3381 0.0130005 40.1331 0.809 40.1331 1.791V6.976C40.1331 7.25103 40.0238 7.5148 39.8293 7.70927C39.6348 7.90375 39.3711 8.013 39.0961 8.013C38.821 8.013 38.5573 7.90375 38.3628 7.70927C38.1683 7.5148 38.0591 7.25103 38.0591 6.976V2.087H33.1701C32.895 2.087 32.6313 1.97774 32.4368 1.78327C32.2423 1.58879 32.1331 1.32503 32.1331 1.05ZM1.17006 8.013C0.895026 8.013 0.631262 7.90375 0.436787 7.70927C0.242311 7.5148 0.133057 7.25103 0.133057 6.976V1.791C0.133057 0.809 0.929057 0.0130005 1.91106 0.0130005H7.09606C7.23224 0.0130005 7.36709 0.0398239 7.4929 0.091938C7.61872 0.144052 7.73303 0.220436 7.82933 0.31673C7.92562 0.413025 8.00201 0.527342 8.05412 0.653156C8.10623 0.778971 8.13306 0.913818 8.13306 1.05C8.13306 1.18618 8.10623 1.32103 8.05412 1.44684C8.00201 1.57266 7.92562 1.68697 7.82933 1.78327C7.73303 1.87956 7.61872 1.95595 7.4929 2.00806C7.36709 2.06018 7.23224 2.087 7.09606 2.087H2.20706V6.977C2.20706 7.549 1.74306 8.013 1.17006 8.013ZM8.13306 38.976C8.13306 39.549 7.66906 40.013 7.09606 40.013H1.91106C1.4395 40.013 0.98726 39.8257 0.65382 39.4922C0.32038 39.1588 0.133057 38.7066 0.133057 38.235V33.05C0.133057 32.9138 0.15988 32.779 0.211994 32.6532C0.264108 32.5273 0.340492 32.413 0.436787 32.3167C0.533081 32.2204 0.647402 32.144 0.773216 32.0919C0.899031 32.0398 1.03387 32.013 1.17006 32.013C1.30624 32.013 1.44108 32.0398 1.5669 32.0919C1.69271 32.144 1.80703 32.2204 1.90333 32.3167C1.99962 32.413 2.07601 32.5273 2.12812 32.6532C2.18023 32.779 2.20706 32.9138 2.20706 33.05V37.94H7.09706C7.66906 37.94 8.13306 38.403 8.13306 38.976Z" fill="white"/>
</svg>