<svg viewBox="0 0 48 48" fill="none" xmlns="http://www.w3.org/2000/svg">
    <circle cx="24" cy="24" r="24" fill="white"/>
    <path d="M20.5265 34C16.9546 33.9794 14 26.6879 14 22.9745C14 16.9087 18.5504 15.5808 20.3041 15.5808C21.0944 15.5808 21.9383 15.8911 22.6826 16.1658C23.2031 16.3573 23.7414 16.5551 24.0408 16.5551C24.22 16.5551 24.6423 16.3869 25.0152 16.2393C25.8103 15.9227 26.7997 15.5293 27.9519 15.5293C27.954 15.5293 27.9567 15.5293 27.9588 15.5293C28.8191 15.5293 31.4277 15.7181 32.996 18.0733L33.3634 18.6253L32.8347 19.0243C32.0794 19.5942 30.7012 20.6338 30.7012 22.6931C30.7012 25.132 32.262 26.07 33.0118 26.5211C33.3428 26.7202 33.6854 26.9255 33.6854 27.3746C33.6854 27.6678 31.3453 33.9636 27.9471 33.9636C27.1156 33.9636 26.5278 33.7137 26.0094 33.4933C25.4848 33.2701 25.0323 33.0779 24.2845 33.0779C23.9055 33.0779 23.4262 33.2571 22.9188 33.4473C22.2253 33.7061 21.4405 34 20.5499 34H20.5265Z" fill="#AAAAAA"/>
    <path d="M28.3119 10C28.4004 13.1911 26.1183 15.4049 23.8389 15.266C23.4633 12.7195 26.1181 10 28.3119 10Z" fill="#AAAAAA"/>
</svg>
