<svg viewBox="0 0 48 48" fill="none" xmlns="http://www.w3.org/2000/svg">
    <mask id="mask0" mask-type="alpha" maskUnits="userSpaceOnUse" x="0" y="0" width="48" height="48">
        <path d="M24 48C37.2548 48 48 37.2548 48 24C48 10.7452 37.2548 0 24 0C10.7452 0 0 10.7452 0 24C0 37.2548 10.7452 48 24 48Z" fill="white"/>
    </mask>
    <g mask="url(#mask0)">
        <path d="M24 48C37.2548 48 48 37.2548 48 24C48 10.7452 37.2548 0 24 0C10.7452 0 0 10.7452 0 24C0 37.2548 10.7452 48 24 48Z" fill="#EAF2EB"/>
        <path fill-rule="evenodd" clip-rule="evenodd" d="M33.3353 28.8345C33.7058 28.8345 34.0058 29.1345 34.0058 29.5042V32.8567C34.0058 33.4912 33.4913 34.0057 32.856 34.0057H29.505C29.3272 34.0057 29.1567 33.9351 29.0309 33.8094C28.9052 33.6836 28.8345 33.5131 28.8345 33.3352C28.8345 33.1574 28.9052 32.9869 29.0309 32.8611C29.1567 32.7354 29.3272 32.6647 29.505 32.6647H32.6655V29.5042C32.6655 29.1345 32.9655 28.8345 33.336 28.8345H33.3353ZM14.565 28.8345C14.9355 28.8345 15.2355 29.1345 15.2355 29.5042V32.6647H18.396C18.5739 32.6647 18.7444 32.7354 18.8701 32.8611C18.9959 32.9869 19.0665 33.1574 19.0665 33.3352C19.0665 33.5131 18.9959 33.6836 18.8701 33.8094C18.7444 33.9351 18.5739 34.0057 18.396 34.0057H15.0435C14.8926 34.0057 14.7431 33.976 14.6037 33.9182C14.4642 33.8604 14.3375 33.7757 14.2308 33.6689C14.1241 33.5622 14.0395 33.4354 13.9818 33.2959C13.9241 33.1564 13.8944 33.0069 13.8945 32.856V29.505C13.8945 29.1352 14.1945 28.8352 14.565 28.8352V28.8345ZM24.399 15.57C24.75 15.57 25.101 15.606 25.4453 15.6787C26.5512 15.8937 27.564 16.4444 28.3457 17.2556C29.1274 18.0669 29.6402 19.0994 29.814 20.2125C29.9537 21.4921 29.7813 22.7865 29.3115 23.985C29.436 24.06 29.5485 24.1537 29.6468 24.261C30.0998 24.9135 30.2183 25.7415 29.9648 26.4945C29.8873 26.882 29.6659 27.2258 29.3453 27.4567C29.1758 27.58 28.9897 27.6784 28.7925 27.7492C28.652 28.9484 28.065 30.0507 27.1484 30.8366C26.2318 31.6226 25.0529 32.0345 23.8463 31.9905C22.6422 32.0286 21.4674 31.6144 20.5535 30.8296C19.6395 30.0447 19.0526 28.946 18.9083 27.75C18.708 27.6842 18.5188 27.5883 18.3473 27.4657C18.0277 27.2323 17.8045 26.89 17.7195 26.5035C17.5897 26.1347 17.5478 25.7408 17.5973 25.353C17.6468 24.9652 17.7862 24.5943 18.0045 24.27L18.1298 24.1365C17.6409 23.3543 17.3534 22.4633 17.2928 21.543C17.2187 20.892 17.2834 20.2327 17.4825 19.6084C17.6815 18.9842 18.0105 18.4092 18.4478 17.9212C19.1826 17.227 20.1491 16.8306 21.1598 16.809C22.052 16.0144 23.2043 15.5739 24.399 15.5707V15.57ZM21.0848 20.5965C20.6243 20.964 19.8623 21.918 20.1308 24.4275C20.1735 24.7635 19.9898 25.0875 19.6785 25.2225C19.5698 25.2764 19.4494 25.3024 19.3281 25.2981C19.2069 25.2938 19.0886 25.2593 18.984 25.1977C18.918 25.5172 18.9353 25.848 19.0343 26.1592C19.0446 26.2131 19.0707 26.2627 19.1093 26.3017C19.1768 26.3475 19.2503 26.3842 19.3268 26.4105H19.4025C19.806 26.409 20.142 26.7195 20.1728 27.1215C20.195 28.0654 20.5908 28.962 21.2733 29.6144C21.9558 30.2668 22.8693 30.6218 23.8133 30.6015C24.2786 30.6146 24.742 30.5355 25.1766 30.3686C25.6112 30.2017 26.0084 29.9504 26.3454 29.6291C26.6823 29.3079 26.9523 28.9231 27.1397 28.4969C27.3271 28.0708 27.4283 27.6117 27.4373 27.1462C27.4545 26.9452 27.5513 26.7585 27.705 26.628C27.849 26.508 28.029 26.4405 28.215 26.4352H28.2908C28.3704 26.4156 28.4447 26.3784 28.5083 26.3265C28.5469 26.2875 28.573 26.2379 28.5833 26.184C28.677 25.881 28.6943 25.5592 28.6343 25.2472C28.5092 25.3353 28.3598 25.3822 28.2068 25.3815C28.1407 25.3946 28.0726 25.3946 28.0065 25.3815C27.8356 25.3407 27.6843 25.2415 27.5789 25.101C27.4734 24.9605 27.4204 24.7875 27.429 24.612C27.486 23.8733 27.3009 23.1362 26.9018 22.512C26.7611 22.3211 26.5766 22.1668 26.3639 22.062C26.1511 21.9572 25.9164 21.905 25.6793 21.9097C22.9928 21.8932 21.687 21.1567 21.0848 20.5972V20.5965ZM24.3818 16.95C23.4634 16.9649 22.587 17.337 21.9383 17.9872C21.7898 18.1185 21.6008 18.192 21.402 18.1965H21.2768C20.5822 18.1884 19.9101 18.4422 19.3943 18.9075C19.1001 19.2612 18.882 19.6719 18.7538 20.1138C18.6255 20.5556 18.5897 21.0192 18.6488 21.4755C18.6638 21.7477 18.7118 22.0177 18.7913 22.278C19.176 19.953 20.616 19.284 20.9423 19.167C21.0308 19.1347 21.1238 19.1175 21.2183 19.1167C21.4838 19.1145 21.7313 19.251 21.8708 19.4767C21.8963 19.518 22.6328 20.589 25.6883 20.589C26.1478 20.5882 26.6008 20.6971 27.0097 20.9066C27.4187 21.1161 27.7717 21.4201 28.0395 21.7935C28.1618 21.9675 28.2683 22.152 28.3575 22.3455C28.4918 21.7155 28.5195 21.069 28.4415 20.43C28.3114 19.5947 27.9263 18.8201 27.3389 18.2122C26.7515 17.6043 25.9906 17.1928 25.1603 17.034C24.9046 16.9776 24.6436 16.9494 24.3818 16.95ZM32.8568 13.8937C33.4913 13.8937 34.0058 14.4082 34.0058 15.0435V18.3952C34.0058 18.5731 33.9351 18.7436 33.8094 18.8694C33.6837 18.9951 33.5131 19.0657 33.3353 19.0657C33.1575 19.0657 32.9869 18.9951 32.8612 18.8694C32.7354 18.7436 32.6648 18.5731 32.6648 18.3952V15.2347H29.5043C29.3265 15.2347 29.1559 15.1641 29.0302 15.0384C28.9044 14.9126 28.8338 14.7421 28.8338 14.5642C28.8338 14.3864 28.9044 14.2159 29.0302 14.0901C29.1559 13.9644 29.3265 13.8937 29.5043 13.8937H32.8568ZM18.396 13.8937C18.5739 13.8937 18.7444 13.9644 18.8701 14.0901C18.9959 14.2159 19.0665 14.3864 19.0665 14.5642C19.0665 14.7421 18.9959 14.9126 18.8701 15.0384C18.7444 15.1641 18.5739 15.2347 18.396 15.2347H15.2355V18.3952C15.2355 18.5731 15.1649 18.7436 15.0391 18.8694C14.9134 18.9951 14.7429 19.0657 14.565 19.0657C14.3872 19.0657 14.2167 18.9951 14.0909 18.8694C13.9652 18.7436 13.8945 18.5731 13.8945 18.3952V15.0427C13.8945 14.4082 14.409 13.8937 15.0443 13.8937H18.396Z" fill="#317D34"/>
    </g>
</svg>
