<svg viewBox="0 0 64 64" fill="none" xmlns="http://www.w3.org/2000/svg">
    <circle cx="32" cy="32" r="31" stroke="#F94110" stroke-width="2"/>
    <path fill-rule="evenodd" clip-rule="evenodd" d="M42.4786 22.8564L40.5642 21L32.2394 29.5847L23.9146 21L22.0002 22.8564L30.3821 31.4999L22 40.1437L23.9144 42.0001L32.2394 33.4152L40.5644 42.0001L42.4788 40.1437L34.0967 31.4999L42.4786 22.8564Z" fill="#F94110"/>
    <path d="M40.5642 21L40.7731 20.7846L40.5577 20.5758L40.3489 20.7912L40.5642 21ZM42.4786 22.8564L42.694 23.0653L42.9028 22.8499L42.6874 22.6411L42.4786 22.8564ZM32.2394 29.5847L32.024 29.7935L32.2394 30.0156L32.4548 29.7935L32.2394 29.5847ZM23.9146 21L24.1299 20.7912L23.9211 20.5758L23.7057 20.7846L23.9146 21ZM22.0002 22.8564L21.7914 22.6411L21.576 22.8499L21.7848 23.0653L22.0002 22.8564ZM30.3821 31.4999L30.5975 31.7088L30.8 31.4999L30.5975 31.2911L30.3821 31.4999ZM22 40.1437L21.7846 39.9348L21.5758 40.1502L21.7912 40.359L22 40.1437ZM23.9144 42.0001L23.7055 42.2155L23.9209 42.4243L24.1297 42.209L23.9144 42.0001ZM32.2394 33.4152L32.4548 33.2064L32.2394 32.9843L32.024 33.2064L32.2394 33.4152ZM40.5644 42.0001L40.3491 42.209L40.5579 42.4243L40.7733 42.2155L40.5644 42.0001ZM42.4788 40.1437L42.6876 40.359L42.903 40.1502L42.6942 39.9348L42.4788 40.1437ZM34.0967 31.4999L33.8813 31.2911L33.6788 31.4999L33.8813 31.7088L34.0967 31.4999ZM40.3554 21.2154L42.2697 23.0718L42.6874 22.6411L40.7731 20.7846L40.3554 21.2154ZM32.4548 29.7935L40.7796 21.2088L40.3489 20.7912L32.024 29.3758L32.4548 29.7935ZM32.4548 29.3758L24.1299 20.7912L23.6992 21.2088L32.024 29.7935L32.4548 29.3758ZM23.7057 20.7846L21.7914 22.6411L22.209 23.0718L24.1234 21.2154L23.7057 20.7846ZM21.7848 23.0653L30.1667 31.7088L30.5975 31.2911L22.2156 22.6476L21.7848 23.0653ZM22.2154 40.3525L30.5975 31.7088L30.1667 31.2911L21.7846 39.9348L22.2154 40.3525ZM24.1232 41.7847L22.2088 39.9283L21.7912 40.359L23.7055 42.2155L24.1232 41.7847ZM32.024 33.2064L23.699 41.7913L24.1297 42.209L32.4548 33.6241L32.024 33.2064ZM32.024 33.6241L40.3491 42.209L40.7798 41.7913L32.4548 33.2064L32.024 33.6241ZM40.7733 42.2155L42.6876 40.359L42.2699 39.9283L40.3556 41.7847L40.7733 42.2155ZM42.6942 39.9348L34.3121 31.2911L33.8813 31.7088L42.2634 40.3525L42.6942 39.9348ZM42.2632 22.6476L33.8813 31.2911L34.3121 31.7088L42.694 23.0653L42.2632 22.6476Z" fill="white"/>
</svg>
