<?xml version="1.0" encoding="utf-8"?>
<!-- Generator: Adobe Illustrator 24.1.2, SVG Export Plug-In . SVG Version: 6.00 Build 0)  -->
<svg version="1.1" id="Layer_1" xmlns="http://www.w3.org/2000/svg" xmlns:xlink="http://www.w3.org/1999/xlink" x="0px" y="0px"
	 viewBox="0 0 975 732" style="enable-background:new 0 0 975 732;" xml:space="preserve">
<style type="text/css">
	.st0{fill:none;}
	.st1{fill:#FF4F12;}
	.st2{opacity:0.81;}
	.st3{fill:#7700FF;}
	.st4{fill:#101828;}
</style>
<g>
	<path class="st0" d="M454.17,358.41c0,0-0.02,0.02-0.05,0.05c-17.6,17.49-29.23,29.04-37.8,37.59
		c-7.61,7.59-12.81,12.8-17.63,17.69c-6.07,6.05-10.11,10.09-10.13,10.11l-0.02,0.02c0,0,0,0,0,0c-2.96,3.14-4.77,7.67-4.77,12.32
		c0,7.3,4.48,13.27,10.83,15.88h0v0c0,0,0.01,0,0.01,0c0.22,0.09,0.44,0.19,0.67,0.27c0.18,0.07,0.43,0.13,0.73,0.2
		c2.6,0.81,5.36,1.27,8.23,1.29c0,0,145.09,0,145.09,0L454.17,358.41L454.17,358.41z"/>
	<path class="st1" d="M394.6,452.05L394.6,452.05L394.6,452.05C394.61,452.05,394.61,452.06,394.6,452.05
		c0.23,0.1,0.45,0.19,0.68,0.28c0.18,0.07,0.43,0.13,0.73,0.2c2.6,0.81,5.36,1.27,8.23,1.29c0,0,5.54,0,14.44,0
		c13.54,0,34.87,0,56.4,0c36.83,0,74.24,0,74.24,0l-95.16-95.41l0,0c0,0-0.02,0.02-0.05,0.05c-17.6,17.49-29.23,29.04-37.8,37.59
		c-7.61,7.59-12.81,12.8-17.63,17.69c-6.07,6.05-10.11,10.09-10.13,10.11l-0.02,0.02c0,0,0,0,0,0c-2.96,3.14-4.78,7.67-4.78,12.32
		C383.77,443.48,388.25,449.44,394.6,452.05z"/>
	<g>
		<defs>
			<path id="SVGID_1_" d="M394.6,452.05L394.6,452.05L394.6,452.05C394.61,452.05,394.61,452.06,394.6,452.05
				c0.23,0.1,0.45,0.19,0.68,0.28c0.18,0.07,0.43,0.13,0.73,0.2c2.6,0.81,5.36,1.27,8.23,1.29c0,0,5.54,0,14.44,0
				c13.54,0,34.87,0,56.4,0c36.83,0,74.24,0,74.24,0l-95.16-95.41l0,0c0,0-0.02,0.02-0.05,0.05c-17.6,17.49-29.23,29.04-37.8,37.59
				c-7.61,7.59-12.81,12.8-17.63,17.69c-6.07,6.05-10.11,10.09-10.13,10.11l-0.02,0.02c0,0,0,0,0,0c-2.96,3.14-4.78,7.67-4.78,12.32
				C383.77,443.48,388.25,449.44,394.6,452.05z"/>
		</defs>
		<clipPath id="SVGID_2_">
			<use xlink:href="#SVGID_1_"  style="overflow:visible;"/>
		</clipPath>
	</g>
	<g class="st2">
		<defs>
			<path id="SVGID_3_" class="st2" d="M394.6,452.05L394.6,452.05L394.6,452.05C394.61,452.05,394.61,452.06,394.6,452.05
				c0.23,0.1,0.45,0.19,0.68,0.28c0.18,0.07,0.43,0.13,0.73,0.2c2.6,0.81,5.36,1.27,8.23,1.29c0,0,5.54,0,14.44,0
				c13.54,0,34.87,0,56.4,0c36.83,0,74.24,0,74.24,0l-95.16-95.41l0,0c0,0-0.02,0.02-0.05,0.05c-17.6,17.49-29.23,29.04-37.8,37.59
				c-7.61,7.59-12.81,12.8-17.63,17.69c-6.07,6.05-10.11,10.09-10.13,10.11l-0.02,0.02c0,0,0,0,0,0c-2.96,3.14-4.78,7.67-4.78,12.32
				C383.77,443.48,388.25,449.44,394.6,452.05z"/>
		</defs>
		<clipPath id="SVGID_4_">
			<use xlink:href="#SVGID_3_"  style="overflow:visible;"/>
		</clipPath>
	</g>
	<path class="st3" d="M383.77,436.17c0-4.65,1.82-9.18,4.77-12.32c0,0,0,0,0,0l0.02-0.02c0.02-0.02,4.06-4.05,10.13-10.11
		c4.82-4.89,10.02-10.1,17.63-17.69c8.57-8.54,20.2-20.1,37.8-37.59c0.03-0.03,0.05-0.05,0.05-0.05l0,0
		c5.18-5.15,10.87-10.8,17.15-17.05c0.11-0.11,0.23-0.23,0.34-0.34c28.49-28.32,69.04-68.67,128.5-127.92L469.51,82.38l-73.97,74.06
		c-22.11,22.11-19.12,36.58-19.12,66.27c0,29.77,0,203.15,0,203.19c0,12.01,7.56,22.2,18.19,26.15v0
		C388.25,449.44,383.77,443.48,383.77,436.17z"/>
</g>
<g>
	<polygon class="st4" points="716.05,560.68 694.28,560.68 668.28,586.98 668.28,560.68 649.87,560.68 649.87,633.14 668.28,633.14 
		668.28,603.19 694.72,633.14 716.92,633.14 682.74,594.28 	"/>
	<path class="st4" d="M132.54,530.88H86.09v102.26h19.28v-35.64h27.17c23.08,0,38.27-11.83,38.27-33.31
		C170.82,542.71,155.62,530.88,132.54,530.88z M131.96,580.26h-26.59v-32.14h26.59c13.44,0,19.57,6.43,19.57,16.07
		C151.53,573.83,145.4,580.26,131.96,580.26z"/>
	<path class="st4" d="M214.34,558.64c-19.87,0-39.59,12.86-39.59,38.27c0,25.42,19.72,38.27,39.59,38.27
		c19.87,0,39.59-12.85,39.59-38.27C253.93,571.49,234.21,558.64,214.34,558.64z M214.34,617.94c-10.81,0-20.89-7.74-20.89-21.04
		c0-13.29,10.08-21.03,20.89-21.03c10.81,0,20.89,7.74,20.89,21.03C235.23,610.2,225.15,617.94,214.34,617.94z"/>
	<path class="st4" d="M300.92,617.94c-11.1,0-19.28-8.03-19.28-21.04c0-12.85,8.47-21.03,19.28-21.03c6.57,0,12.27,3.07,16.8,9.93
		l15.78-9.06c-5.26-11.25-16.65-18.11-32.43-18.11c-20.6,0-38.13,15.19-38.13,38.27c0,23.08,16.65,38.27,38.13,38.27
		c15.48,0,25.86-7.01,33.16-19.43l-15.19-8.33C314.65,613.56,309.98,617.94,300.92,617.94z"/>
	<path class="st4" d="M496.9,601.73c-0.88,11.1-3.07,13.59-6.87,13.59c-2.6,0-3.82-0.29-5.59-0.75l0.09,18.75c0,0,2.29,0.7,6.52,0.7
		c15.63,0,21.47-10.08,22.93-31.55l1.75-25.27h20.74v55.8h18.41v-72.31h-54.93L496.9,601.73z"/>
	<path class="st4" d="M444.69,558.64c-21.04,0-38.13,15.34-38.13,38.27c0,22.94,17.09,38.27,37.25,38.27
		c15.92,0,26-5.99,33.31-18.41l-14.61-7.3c-4.53,5.7-8.62,9.93-18.41,9.93c-10.81,0-18.7-7.01-19.87-18.11h55.8v-6.43
		C480.04,573.68,465.44,558.64,444.69,558.64z M424.53,587.27c2.63-8.18,9.93-14.61,19.58-14.61c10.23,0,17.09,5.55,18.84,14.61
		H424.53z"/>
	<path class="st4" d="M603.33,558.64c-21.04,0-38.13,15.34-38.13,38.27c0,22.94,17.09,38.27,37.25,38.27
		c15.92,0,26-5.99,33.31-18.41l-14.61-7.3c-4.53,5.7-8.62,9.93-18.41,9.93c-10.81,0-18.7-7.01-19.87-18.11h55.8v-6.43
		C638.68,573.68,624.07,558.64,603.33,558.64z M583.17,587.27c2.63-8.18,9.93-14.61,19.57-14.61c10.23,0,17.09,5.55,18.84,14.61
		H583.17z"/>
	<polygon class="st4" points="339.95,576.75 361.57,576.75 361.57,633.14 379.98,633.14 379.98,576.75 401.6,576.75 401.6,560.68 
		339.95,560.68 	"/>
	<path class="st4" d="M753.47,558.64c-19.87,0-39.59,12.86-39.59,38.27c0,25.42,19.72,38.27,39.59,38.27s39.59-12.85,39.59-38.27
		C793.06,571.49,773.33,558.64,753.47,558.64z M753.47,617.95c-10.81,0-20.89-7.74-20.89-21.04c0-13.29,10.08-21.04,20.89-21.04
		c10.81,0,20.89,7.74,20.89,21.04C774.36,610.2,764.28,617.95,753.47,617.95z"/>
	<polygon class="st4" points="866.29,560.67 846.32,611.41 826.34,560.67 802.28,560.67 802.28,632.99 819.78,632.99 819.78,587.21 
		839.17,632.99 853.46,632.99 872.85,587.21 872.85,632.99 890.35,632.99 890.35,560.67 	"/>
</g>
</svg>
