<?xml version="1.0" encoding="utf-8"?>
<!-- Generator: Adobe Illustrator 24.1.2, SVG Export Plug-In . SVG Version: 6.00 Build 0)  -->
<svg version="1.1" id="Layer_1" xmlns="http://www.w3.org/2000/svg" xmlns:xlink="http://www.w3.org/1999/xlink" x="0px" y="0px"
	 viewBox="0 0 292 300" style="enable-background:new 0 0 292 300;" xml:space="preserve">
<style type="text/css">
	.st0{fill:#6D6E70;}
</style>
<g>
	<path class="st0" d="M-31.26-173.55c-0.02-0.02-0.5-0.52-1.33-0.52c-0.44,0-0.89,0.14-1.34,0.4c-0.08,0.04-0.13,0.13-0.11,0.22
		c0,0.02,0.33,2.26,0.08,3.22c-0.19,0.72-0.8,1.57-1.91,1.57c-0.24,0-0.48-0.04-0.74-0.11c0,0-0.01,0-0.01,0l0.84-0.57
		c0.06-0.04,0.1-0.11,0.1-0.19c0-0.08-0.04-0.14-0.1-0.19l-1.67-1.15c0.53-0.4,0.86-0.68,0.9-0.72c0.05-0.04,0.08-0.1,0.08-0.16
		c0-0.06-0.02-0.12-0.07-0.17l-0.3-0.3c-0.04-0.04-0.1-0.07-0.16-0.07c-0.05,0-0.1,0.02-0.14,0.05c-0.02,0.01-0.46,0.35-1.13,0.81
		l-0.67-0.46l2.62-1.8l0.21,0.52c0.03,0.08,0.11,0.14,0.2,0.14c0,0,0,0,0.01,0c0.08,0,0.16-0.05,0.2-0.12l1.25-2.3
		c0.04-0.08,0.03-0.17-0.01-0.24c-0.04-0.06-0.11-0.1-0.19-0.1c-0.01,0-0.02,0-0.03,0l-2.58,0.39c-0.09,0.01-0.16,0.07-0.19,0.16
		c-0.02,0.08,0,0.17,0.07,0.23l0.42,0.37l-2.98,2.05l-2.97-2.05l0.42-0.37c0.06-0.06,0.09-0.15,0.06-0.23
		c-0.02-0.09-0.09-0.15-0.18-0.16l-2.58-0.39c-0.01,0-0.02,0-0.03,0c-0.08,0-0.15,0.03-0.19,0.1c-0.05,0.07-0.05,0.16-0.01,0.24
		l1.24,2.3c0.04,0.07,0.12,0.12,0.2,0.12c0.01,0,0.01,0,0.01,0c0.09,0,0.16-0.06,0.2-0.14l0.21-0.52l2.62,1.8l-0.67,0.46
		c-0.67-0.46-1.11-0.8-1.12-0.81c-0.04-0.03-0.09-0.05-0.14-0.05c-0.06,0-0.12,0.02-0.16,0.07l-0.3,0.3
		c-0.04,0.04-0.07,0.11-0.07,0.17c0,0.06,0.03,0.12,0.08,0.16c0.05,0.04,0.38,0.32,0.91,0.72l-1.67,1.15
		c-0.06,0.04-0.1,0.11-0.1,0.19c0,0.08,0.04,0.14,0.1,0.19l0.84,0.57c0,0,0,0-0.01,0c-0.26,0.07-0.5,0.11-0.74,0.11
		c-1.11,0-1.73-0.85-1.92-1.57c-0.25-0.96,0.08-3.2,0.08-3.22c0.01-0.09-0.03-0.18-0.11-0.22c-0.46-0.26-0.91-0.4-1.34-0.4
		c-0.84,0-1.32,0.49-1.34,0.52c-0.04,0.03-0.06,0.09-0.06,0.13c-0.01,0.14-0.27,3.37,1.23,5.01c0.55,0.6,1.28,0.91,2.15,0.91
		c0.15,0,0.32,0,0.48-0.03c0.85-0.1,1.68-0.33,2.49-0.61l1.39,0.94l-3.07,2.08c-0.06,0.05-0.1,0.11-0.1,0.19
		c0,0.07,0.03,0.14,0.1,0.19l3.08,2.13l-2.63,1.82l-0.2-0.51c-0.03-0.08-0.11-0.13-0.2-0.14c0,0,0,0-0.01,0
		c-0.08,0-0.16,0.05-0.2,0.12l-1.24,2.3c-0.04,0.07-0.03,0.17,0.01,0.23c0.04,0.06,0.11,0.1,0.19,0.1c0.01,0,0.02,0,0.03,0
		l2.58-0.38c0.09-0.01,0.16-0.08,0.18-0.16c0.03-0.09,0-0.18-0.06-0.24l-0.43-0.38l2.98-2.06l2.98,2.06l-0.43,0.38
		c-0.07,0.06-0.09,0.15-0.07,0.24c0.02,0.08,0.1,0.14,0.19,0.16l2.58,0.38c0.01,0,0.02,0,0.03,0c0.07,0,0.14-0.03,0.19-0.1
		c0.05-0.07,0.05-0.16,0.01-0.23l-1.25-2.3c-0.04-0.07-0.11-0.12-0.2-0.12c0,0-0.01,0-0.01,0c-0.1,0-0.17,0.06-0.2,0.14l-0.21,0.51
		l-2.63-1.82l3.08-2.13c0.06-0.04,0.1-0.11,0.1-0.19c0-0.08-0.04-0.14-0.1-0.19l-3.07-2.08l1.39-0.94c0.8,0.29,1.63,0.51,2.48,0.61
		c0.17,0.02,0.33,0.03,0.48,0.03c0.88,0,1.6-0.31,2.15-0.91c1.5-1.64,1.24-4.87,1.23-5.01C-31.2-173.47-31.23-173.52-31.26-173.55z
		 M-39.95-171.18l0.66,0.45c-0.21,0.13-0.43,0.27-0.66,0.41c-0.23-0.14-0.45-0.27-0.66-0.41L-39.95-171.18z M-42.35-169.53
		l0.91-0.63c0.18,0.11,0.36,0.23,0.56,0.36c-0.36,0.19-0.72,0.37-1.08,0.54L-42.35-169.53z M-37.6-164.93l-2.35,1.62l-2.34-1.62
		l2.34-1.59L-37.6-164.93z M-39.95-167.9l-1.13-0.77c0.4-0.19,0.77-0.38,1.13-0.58c0.36,0.2,0.74,0.39,1.14,0.58L-39.95-167.9z
		 M-37.94-169.26c-0.36-0.16-0.73-0.34-1.09-0.54c0.2-0.13,0.38-0.24,0.56-0.36l0.92,0.63L-37.94-169.26z"/>
	<path class="st0" d="M-30.46-171.65c0.09-0.18,0.13-0.52,0.13-0.52l-0.13-0.04V-171.65z"/>
	<path class="st0" d="M-0.91-179.67c-0.96-0.58-2.55-0.78-4.17-0.63c2.53-0.88,4.26-2.76,4.35-4.44c-1.32-0.38-2.69-0.18-3.88,0.09
		c1.23-0.92,3.25-2.6,3-5.07c-1.19-0.29-3.37,0.54-4.28,0.95c2.92-1.64,3.97-5.52,2.42-7.72c-0.92,0.54-5.09,4.8-5.77,5.29
		c2.16-2.47,3.17-4.24,3.75-5.9c0.69-1.81,0.74-4.97-1.5-6.03c-1.06,2.42-4.76,8.63-6.82,11.21c-0.23-0.2-0.41-0.47-0.7-0.52
		c-0.49,1.57-1.95,3.66-3.28,4.66c-0.07-0.13-0.2-0.49-0.43-0.88c-1.41,2.11-5.07,5-6.25,6.78c-0.92,1.32-0.92,2.51,0.36,3.74
		c0.52,0.52,1.5,1.43,0.65,2.71c-1.16,1.69-3.49,1.89-4.75,0.89c0-0.3-0.01-0.59-0.02-0.86c1.49-0.58,1.84-2.61,0.74-3.87
		c-0.24,0.46-0.64,0.8-1.12,0.97c-0.13-0.53-0.24-0.78-0.25-0.81l-0.06-0.12l-0.13,0c-0.01,0-0.5-0.03-1.23-0.11
		c0.83-0.27,1.36-1.04,1.24-2.07c-1.28,1.1-2.56,0.05-2.85-0.24c-0.8-0.94-1.03-2-0.71-3.62c0.27-1.41,1.73-3.65,2.69-4.37
		c0.14,0.13,0.36,0.4,0.83,0.36c0.27-0.09,0.72-0.32,1.06-0.45c0.97-0.29,1.91-0.07,2.51,0.32c1.1,0.67,1,1.41,0.97,1.95
		c1.67-0.94,1.09-2.51-1.1-3.09c1.5,0,2.73,1.37,3.05,1.54c0.83,0.61,2.02,0.47,2.71,0.14c1.33-0.63,1.6-2.2,1.24-2.52
		c-0.13,0.56-0.56,1.06-1.33,1.15c-1.14,0.13-2.24-0.36-3.11-0.75c-0.74-0.31-1.93-0.54-2.74-0.49c1.5-0.83,3.83-0.74,4.66,0.54
		c0.5-0.4,0.81-0.76,0.95-1.59c0.43-2.24-1.32-3.39-3.19-3.39c0.05-0.54-0.33-0.81-0.83-0.63c0-0.23-0.06-0.41-0.19-0.5
		c0.04,0,0.1-0.02,0.14-0.02c1.88-0.13,3.66-0.71,4.62-1.72c1.68-1.8-1-4.08-0.04-5.85c0.92,0.4,1.6,0.92,2.87,1.1
		c0.13,0.27,0.25,0.81,0.29,1.1c0.41,2-1.56,2.33-1.05,4.46c0.22,0.97,0.95,1.3,1.19,2.45c0,0,0.09,0.8-0.61,1.5
		c1.62,0.04,2.47-1.33,1.97-2.6c-0.22-0.52-0.78-1.01-0.78-1.62c0.83,1.1,1.57,1.06,2.85,0.65c0.58-0.18,0.63,0.63,0.27,1.28
		c0.88-0.52,1.1-1.37,1.1-1.75c0-0.9-0.7-1.32-1.37-1.14c-0.38,0.04-1.14,0.56-1.19-0.18c-0.16-1.28,1.86-1.23,1.45-3.29
		c-0.22-1.03-1.37-1.6-3.16-1.82c-0.18-0.18-0.63-0.61-0.87-0.97c-0.98-1.63-2-2.06-2.61-1.73c-0.72,0.36-1.09,0.67-1.68,0.99
		c-0.47,0.25-0.97,0.38-1.28,0.74c-0.78,0.97-0.04,2.47,0.36,3.39c0.27,0.54,0.92,1.77,0.63,2.69c-0.32,1.1-2.13,1.79-3.23,2.02
		c-0.07,0-0.12,0.02-0.19,0.02v-0.43c0.32-0.56,0.59-1.23,0.81-1.84c0.74-1.98-0.36-2.78-1.99-3.16c-0.21-0.13-0.43-0.18-0.7-0.09
		h-0.05l-0.04,0.33l-0.22-0.07l0.05-0.4h-0.1c0.19-0.13,0.27-0.36,0.27-0.58c0-0.24-0.09-0.43-0.18-0.56h0.22l-0.09-0.09
		c-0.04-0.09-0.13-0.18-0.27-0.32c-0.04-0.04-0.09-0.13-0.09-0.18c0.04,0.04,0.09,0.09,0.18,0.13c0.09,0.09,0.22,0.18,0.27,0.27
		l0.13,0.09v-1.84l-0.13,0.11c-0.04,0.04-0.18,0.13-0.27,0.23c-0.09,0.09-0.13,0.09-0.18,0.13c0-0.04,0.04-0.09,0.09-0.18
		c0.14-0.09,0.23-0.22,0.27-0.29l0.09-0.14h-1.84l0.09,0.14c0.09,0.06,0.2,0.2,0.29,0.29c0.04,0.09,0.09,0.14,0.13,0.18
		c-0.05-0.04-0.13-0.04-0.18-0.13c-0.16-0.09-0.24-0.18-0.33-0.23l-0.09-0.11v1.84l0.09-0.09c0.09-0.09,0.18-0.18,0.33-0.27
		c0.05-0.04,0.13-0.09,0.18-0.13c-0.05,0.04-0.09,0.13-0.13,0.18c-0.09,0.14-0.21,0.22-0.29,0.32l-0.09,0.09h0.29
		c-0.16,0.13-0.2,0.32-0.2,0.56c0,0.22,0.09,0.45,0.24,0.58h-0.04l0.04,0.4l-0.24,0.07l-0.05-0.33h-0.04
		c-0.27-0.09-0.49-0.04-0.67,0.09c-1.66,0.38-2.76,1.19-2.02,3.16c0.23,0.61,0.5,1.28,0.83,1.84v0.29
		c-1.66-0.54-4.65-2.36-5.45-3.46c-0.09-0.11-0.16-0.2-0.2-0.27l-0.01,0l0.03-1.19c0.58-0.97,1.1-2.16,1.5-3.25
		c1.05-2.85-0.5-4.04-2.96-4.53c-0.25-0.18-0.56-0.27-0.97-0.13l-0.09,0.45l-0.52-0.04l0.04-0.58c-0.09,0.04-0.18,0.04-0.27,0.04
		c0.35-0.18,0.6-0.61,0.6-1.05c0-0.32-0.16-0.7-0.43-0.88h0.43c-0.25-0.23-0.65-0.7-0.74-1.01c0.31,0.09,0.78,0.51,1,0.74v-2.33
		c-0.22,0.18-0.69,0.63-1,0.67c0.09-0.26,0.49-0.72,0.74-0.94h-2.33c0.18,0.23,0.63,0.68,0.67,0.94c-0.27-0.04-0.72-0.49-0.97-0.67
		v2.33c0.25-0.23,0.69-0.65,0.97-0.74c-0.04,0.31-0.49,0.78-0.67,1.01h0.4c-0.27,0.18-0.4,0.56-0.4,0.88c0,0.44,0.22,0.88,0.58,1.05
		c-0.09,0-0.18,0-0.32-0.04l0.05,0.58l-0.52,0.04l-0.05-0.45c-0.4-0.13-0.71-0.04-0.98,0.13c-2.44,0.5-3.99,1.68-2.94,4.53
		c0.36,1.09,0.88,2.29,1.5,3.25v1.23c-0.04,0.04-0.09,0.13-0.18,0.22c-0.78,1.1-3.79,2.92-5.45,3.46v-0.29
		c0.33-0.56,0.61-1.23,0.83-1.84c0.74-1.98-0.36-2.78-2.02-3.16c-0.19-0.13-0.4-0.18-0.67-0.09h-0.04l-0.05,0.33l-0.22-0.07
		l0.04-0.4h-0.04c0.13-0.13,0.22-0.36,0.22-0.58c0-0.24-0.04-0.43-0.18-0.56h0.27l-0.09-0.09c-0.09-0.09-0.18-0.18-0.27-0.32
		c-0.04-0.04-0.11-0.13-0.16-0.18c0.05,0.04,0.16,0.09,0.2,0.13c0.13,0.09,0.22,0.18,0.32,0.27l0.09,0.09v-1.84l-0.09,0.11
		c-0.09,0.04-0.18,0.13-0.32,0.23c-0.04,0.09-0.15,0.09-0.2,0.13c0.05-0.04,0.11-0.09,0.16-0.18c0.09-0.09,0.18-0.22,0.27-0.29
		l0.09-0.14h-1.84l0.09,0.14c0.04,0.06,0.16,0.2,0.25,0.29c0.09,0.09,0.13,0.14,0.13,0.18c-0.04-0.04-0.09-0.04-0.17-0.13
		c-0.11-0.09-0.25-0.18-0.29-0.23l-0.14-0.11v1.84l0.14-0.09c0.04-0.09,0.18-0.18,0.29-0.27c0.09-0.04,0.13-0.09,0.17-0.13
		c0,0.04-0.04,0.13-0.13,0.18c-0.09,0.14-0.21,0.22-0.25,0.32l-0.09,0.09h0.24c-0.11,0.13-0.21,0.32-0.21,0.56
		c0,0.22,0.09,0.45,0.3,0.58h-0.09l0.05,0.4l-0.25,0.07l-0.04-0.33h-0.05c-0.27-0.09-0.49-0.04-0.67,0.09
		c-1.66,0.38-2.76,1.19-2.02,3.16c0.23,0.61,0.5,1.28,0.83,1.84v0.43c-0.07,0-0.13-0.02-0.18-0.02c-1.1-0.23-2.94-0.92-3.25-2.02
		c-0.29-0.92,0.36-2.15,0.63-2.69c0.43-0.92,1.15-2.42,0.39-3.39c-0.34-0.36-0.83-0.49-1.31-0.74c-0.58-0.31-0.94-0.63-1.68-0.99
		c-0.59-0.33-1.59,0.09-2.61,1.73c-0.22,0.36-0.69,0.78-0.88,0.97c-1.77,0.22-2.91,0.78-3.16,1.82c-0.41,2.06,1.61,2.02,1.48,3.29
		c-0.05,0.74-0.83,0.22-1.19,0.18c-0.7-0.18-1.39,0.24-1.39,1.14c0,0.38,0.25,1.23,1.1,1.75c-0.36-0.65-0.32-1.46,0.29-1.28
		c1.28,0.41,1.99,0.45,2.83-0.65c0,0.6-0.54,1.1-0.78,1.62c-0.5,1.28,0.33,2.64,1.97,2.6c-0.74-0.7-0.59-1.5-0.59-1.5
		c0.23-1.15,0.95-1.48,1.19-2.45c0.5-2.13-1.48-2.46-1.05-4.46c0.04-0.29,0.13-0.83,0.27-1.1c1.28-0.18,1.98-0.69,2.87-1.1
		c0.92,1.77-1.73,4.05-0.04,5.85c0.97,1.01,2.76,1.59,4.62,1.72c0.04,0,0.1,0.02,0.15,0.03c-0.13,0.09-0.2,0.26-0.2,0.49
		c-0.49-0.18-0.87,0.09-0.8,0.63c-1.93,0-3.63,1.15-3.21,3.39c0.13,0.83,0.45,1.19,0.97,1.59c0.81-1.28,3.14-1.37,4.66-0.54
		c-0.83-0.05-2.02,0.18-2.75,0.49c-0.86,0.38-1.95,0.88-3.09,0.75c-0.79-0.09-1.19-0.58-1.35-1.15c-0.36,0.32-0.09,1.88,1.25,2.52
		c0.67,0.33,1.86,0.47,2.69-0.14c0.32-0.18,1.55-1.54,3.06-1.54c-2.18,0.58-2.79,2.15-1.08,3.09c-0.07-0.54-0.15-1.28,0.94-1.95
		c0.61-0.38,1.57-0.61,2.52-0.32c0.33,0.13,0.78,0.36,1.05,0.45c0.47,0.04,0.69-0.23,0.83-0.36c0.97,0.72,2.38,2.96,2.69,4.37
		c0.33,1.62,0.09,2.67-0.72,3.62c-0.27,0.29-1.57,1.34-2.84,0.24c-0.12,1.03,0.41,1.79,1.24,2.07c-0.74,0.08-1.24,0.11-1.25,0.11
		l-0.13,0l-0.05,0.12c-0.01,0.02-0.12,0.28-0.26,0.8c-0.46-0.18-0.86-0.51-1.1-0.97c-1.1,1.26-0.76,3.28,0.72,3.86
		c-0.01,0.28-0.02,0.57-0.02,0.88c-1.27,0.98-3.57,0.77-4.71-0.91c-0.88-1.28,0.13-2.2,0.63-2.71c1.28-1.23,1.28-2.42,0.35-3.74
		c-1.19-1.77-4.84-4.67-6.25-6.78c-0.23,0.38-0.36,0.74-0.41,0.88c-1.32-1-2.8-3.09-3.29-4.66c-0.27,0.04-0.47,0.32-0.7,0.52
		c-2.04-2.58-5.76-8.79-6.81-11.21c-2.22,1.06-2.18,4.22-1.5,6.03c0.6,1.66,1.61,3.43,3.74,5.9c-0.67-0.5-4.84-4.75-5.76-5.29
		c-1.54,2.2-0.49,6.08,2.42,7.72c-0.89-0.41-3.09-1.24-4.28-0.95c-0.22,2.47,1.77,4.15,3,5.07c-1.19-0.27-2.55-0.47-3.88-0.09
		c0.09,1.68,1.84,3.57,4.3,4.44c-1.57-0.16-3.16,0.05-4.13,0.63c0.18,1.75,2.16,3.26,4.53,3.62c-1.59,0.18-3,0.88-3.74,1.84
		c0.87,1.14,2.15,2.02,4.1,1.98c-0.45,0.16-0.97,0.47-1.41,0.89c-0.05-0.04-0.14-0.09-0.22-0.09c-0.1,0.04-0.13,0.18-0.1,0.27
		c0,0,0,0,0,0.07c-0.19,0.13-0.29,0.29-0.31,0.45c-0.18,0.26-0.37,0.56-0.47,0.83c0.05,0.02,0.09,0.07,0.13,0.09
		c-0.02,0.15,0.01,0.33,0.13,0.49c-0.09,0.09-0.13,0.22-0.18,0.36l-1.14-0.45c-0.06,1.04,0.17,1.89,0.69,2.42
		c0.41,0.47,0.88,0.4,0.74,0.56l1.24,0.76c0.22,0.47,0.67,0.47,0.98,0.34c0,0,0,0.04,0,0.09c0,0.49,0.34,0.89,0.78,1.05
		c-0.09,0.41,0.09,0.67,0.65,0.86l4.66,11.3c-0.18,0.54,0,1.01,0.41,1.19c-0.1,0.13-0.18,0.27-0.18,0.54
		c0.18-0.13,0.45-0.18,0.58,0.2c0.09,0.27-0.4,1.14,0.34,1.73c-0.1,0.52,0.18,1.05,0.71,1.28c0,0.27,0.25,1.14,0.29,1.45
		c-0.33,0.47-1.1,1.19-1,1.98c0.09,0.56,0.31,0.74,0.76,0.88c-0.18,1.01,0.38,1.46,1.23,1.51c0,0.74,0.69,1,1.14,1.05
		c0.43,0.32,0.61,0.45,1.1,0.7c-0.45,0.53-0.13,1.23,0.69,1.46c0.09,0.31,0.32,0.58,0.78,0.69c0.27,0.45,0.76,0.45,1.05,0.32
		c0.18-0.09,0.5-0.61,0.22-1.06c0.18-0.22,0.09-0.65-0.04-0.92c0.27-0.49,0.04-1.1-0.33-1.28c0.05-0.27-0.09-0.7-0.18-0.96
		c0.65-0.41,1.46-0.92,1.75-1.1c1.59-1.14,3.39-2.16,5.43-2.29c0.52-0.05,1.48-0.09,2.02-0.05c0.83,0.09,1.97,0.34,2.64-0.18
		c0.21-0.13,0.34-0.36,0.3-0.58c-0.09-0.52-0.65-0.97-0.83-1.43c-0.05-0.14-0.13-0.35-0.22-0.54c0.58,0.1,1.12,0.02,1.45-0.14
		c0.36-0.13,1.23-0.78,1.19-1.75c-0.7,0.33-2.38,0.78-2.56-0.92c-0.18-1.5,1.14-2.78,3.21-2.22c1.41,0.36,3.47,3.36,1.59,4.67
		c-0.92,0.63-2.33,1.23-2.15,2.87c0.6-0.74,1.41-1.1,2.46-1.01c-1.54,1.14-2.73,1.28-4.35,2.15c-1.41,0.83-2.46,2.2-3.57,2.24
		c-0.85,0.04-1.32-0.97-0.49-1.75c-0.83-0.18-1.93,0.47-2.24,1.34c-0.4,1.19-0.09,2.04,0.65,2.52c-1,0.54-1.75,1.59-1.39,3.09
		c0.34,1.23,1.57,1.23,1.1,2.8c0.69-0.18,1.14-0.65,1.34-1.32c0.09-0.47,0.18-0.96,0.41-1.19c-0.1,0.94,0.44,2.33,1.73,2.96
		c0.87,0.43,2.24,0.6,3.29-0.49c0.43,1.23,1.88,2.29,3.39,2.24c0.69,0,1.37-0.3,1.88-0.6c0.36,0.91,1.28,1.84,2.19,2.28
		c0.94-0.44,1.86-1.37,2.24-2.28c0.5,0.31,1.19,0.6,1.86,0.6c1.45,0.04,2.98-1.01,3.39-2.24c1.05,1.09,2.42,0.92,3.29,0.49
		c1.28-0.63,1.82-2.02,1.73-2.96c0.24,0.23,0.33,0.72,0.43,1.19c0.18,0.67,0.62,1.14,1.32,1.32c-0.47-1.57,0.79-1.57,1.1-2.8
		c0.36-1.5-0.38-2.56-1.37-3.09c0.72-0.47,1.06-1.32,0.63-2.52c-0.31-0.87-1.41-1.52-2.24-1.34c0.83,0.78,0.38,1.79-0.49,1.75
		c-1.1-0.04-2.15-1.42-3.57-2.24c-1.61-0.88-2.8-1.01-4.35-2.15c1.05-0.09,1.88,0.27,2.46,1.01c0.18-1.64-1.23-2.24-2.15-2.87
		c-1.86-1.31,0.18-4.31,1.62-4.67c2.04-0.56,3.39,0.72,3.18,2.22c-0.22,1.71-1.86,1.26-2.6,0.92c0,0.96,0.87,1.61,1.23,1.75
		c0.42,0.2,1.2,0.31,1.89,0.01c-0.02,0.17-0.05,0.35-0.05,0.4c-0.14,1.46-0.92,1.59-0.65,2.19c0.38,0.45,2.89,0.36,3.57,0.5
		c1.19,0.16,2.2,0.6,3.34,0.83c1.28,0.27,2.64,0.27,3.79,0.74c0.74,0.32,1.57,0.92,2.29,1.28c1.1,0.18,0.92,0.63,1.62,0.63
		c0.63,0,0.87-0.54,1.68-0.76c0.56-0.13,1.19,0.09,1.75-0.09c0.41-0.09,0.59-0.51,0.97-0.74c0.45-0.27,1.08-0.27,1.5-0.66
		c0.22-0.2,0.27-0.58,0.23-0.85l0.01,0.06c0.86-0.6,1.51-1.48,1.87-2.49c0.22-0.04,0.4-0.24,0.4-0.47c0-0.04,0-0.09,0-0.09
		c0.22-0.18,0.36-0.45,0.36-0.72c0-0.34-0.13-0.61-0.36-0.83c0,0,0-0.05,0-0.09c0-0.18-0.09-0.31-0.18-0.43
		c-0.36-1.95-1.84-3.52-3.75-4.01c0-0.05,0-0.05,0-0.09h-0.04c0-0.09-0.04-0.14-0.11-0.14c-0.27-0.27-0.59-0.69-0.63-0.96
		c0.31,0.09,0.83,0.58,1.1,0.78v-2.58c-0.27,0.2-0.78,0.69-1.1,0.78c0.04-0.32,0.53-0.88,0.78-1.1h-2.62
		c0.24,0.22,0.74,0.78,0.78,1.1c-0.31-0.09-0.83-0.58-1.09-0.78v2.58c0.27-0.2,0.78-0.69,1.09-0.78c-0.04,0.32-0.54,0.88-0.78,1.1
		l0.09,0.04c-1.95,0.45-3.52,2.07-3.88,4.06c-0.13,0.11-0.22,0.25-0.22,0.43c0,0.04,0,0.09,0,0.09c-0.23,0.22-0.36,0.49-0.36,0.83
		c0,0.26,0.13,0.54,0.36,0.72c0,0,0,0.04,0,0.09c0,0.29,0.18,0.43,0.4,0.47c0.09,0.25,0.2,0.5,0.32,0.72c0-0.02,0-0.02,0.03-0.05
		c-0.16,0.74-1.06,1.19-1.26,1.19c-1.6,0.23-3.37-0.45-4.98-1.05c-0.71-0.27-1.68-0.58-2.15-1.28c-0.29-0.51-0.42-0.83-0.27-1.28
		c0.18,0.22,0.47,0.47,0.88,0.69c0.04-0.22,0.04-0.47,0.13-0.65c0.41,0.61,1.06,0.92,1.84,0.88c-0.47-0.4-0.69-1.46-0.47-2.38
		c0.65,1.1,3.12,1.32,3.57-0.65c-0.92,0.43-1.51-0.04-1.68-0.54c-0.27-0.79,0.63-2.7-0.18-4.17c-0.65-1.1-1.39-1.77-3.11-2.04
		c0.13-0.21,0.18-0.39,0.22-0.7c-1.59,0.58-2.96,0.13-3.61-1.14c0.32,0.13,0.78,0.18,1.23,0.18c-1.41-1.15-1.32-4.4-0.31-6.08
		c0.13-0.09,0.18-0.18,0.31-0.22c0.31,0.63,1.23,0.63,1.7,1.14c0.18-0.18,0.27-0.23,0.45-0.38c0,0,0.04,2.67,0.22,3.77
		c0.18,1.23,1.37,1.1,1.98,1.64c0.72-0.79,2.02-0.75,1.82-2.11c-0.18-1.36-0.45-2.6-0.49-3.52c0.4,0.83,1.19,3.95,1.5,4.84
		c0.51,1.32,1.79,0.92,2.51,1.44c0.47-0.92,1.66-1.19,1.19-2.58c-0.13-0.36-2.08-4.46-2.37-5.25c0.69,1.01,2.58,4.62,3.16,5.63
		c0.65,1.05,1.84,0.54,2.69,0.8c0.16-0.76,1.31-1.64,0.47-2.96c-1.05-1.75-3.52-4.8-3.65-5.23c0.49,0.47,4.32,5.23,4.62,5.49
		c0.89,0.78,2.19,0.18,2.96,0.18c0-0.87,0.69-1.86-0.31-2.87c-0.92-0.88-3.03-2.38-3.48-2.89c1.41,0.97,3.07,2.51,4.06,2.76
		c1.75,0.45,2.38-0.25,3.03-0.52c-0.54-1.59,0.18-2.33-3.52-3.88c3.2,1.14,4.62,0.58,5.76-0.32c-0.45-1.14-1.59-2.1-2.52-2.42
		c1.96,0.04,3.26-0.83,4.11-1.98c-0.72-0.96-2.15-1.66-3.79-1.84C-3.07-176.41-1.14-177.92-0.91-179.67z M-75.14-167.92
		c-0.04,0-0.04,0.04-0.09,0.09c-0.27-0.04-0.27-0.36-0.22-0.63c0.13,0,0.22-0.04,0.31-0.13l0.04,0.05l-0.13,0.09
		C-75.18-168.27-75.18-168.1-75.14-167.92z M-74.27-166.04l-0.44-0.26c0.18-0.21,0.35-0.21,0.53-0.09
		C-74.18-166.26-74.18-166.12-74.27-166.04z M-72.95-168.84c-0.06,0-0.12,0-0.18,0c-0.01-0.01-0.02-0.03-0.03-0.04
		c0.08-0.02,0.17-0.02,0.24-0.04C-72.92-168.9-72.93-168.87-72.95-168.84z M-47.51-136.07c-1.1,0-1.88-0.69-1.32-1.66
		c0.29,0.44,0.87,0.64,1.37,0.69C-47.51-136.59-47.51-136.45-47.51-136.07z M-30.79-137.73c0.56,0.97-0.22,1.66-1.32,1.66
		c0-0.38,0-0.51-0.09-0.97C-31.68-137.09-31.09-137.28-30.79-137.73z M-47.56-197.09c2.51-0.54,5.07-1.95,6.22-3.14
		c0.95,0.06,2.18,0.07,3.11,0.01c1.13,1.2,3.65,2.58,6.17,3.12c-1.46,0-4.01-0.13-4.33-0.49c0.09,0.92,2.04,1.96,3.32,2.24
		c-1.06,0.13-2.04,0-2.87-0.38c0.45,0.65,0.97,1.14,1.82,1.43c-0.89,1.1-2.73,1.81-4.55,1.64c0.45,0.54,1.28,0.88,2,0.78
		c-1.64,2.61-2.85,5.29-3.14,8.39l-0.01,0l0,0.01c-0.27-3.11-1.48-5.79-3.11-8.4c0.74,0.09,1.55-0.24,1.97-0.78
		c-1.84,0.18-3.61-0.54-4.53-1.64c0.86-0.29,1.37-0.78,1.82-1.43c-0.81,0.38-1.82,0.51-2.87,0.38c1.28-0.29,3.25-1.32,3.34-2.24
		C-43.54-197.23-46.1-197.09-47.56-197.09z M-70.56-169.51c-0.23,0.1-0.51,0.22-0.72,0.31c0-0.02,0-0.04,0-0.06
		C-71.06-169.35-70.79-169.43-70.56-169.51z M-54.42-157.76c0.05,0.31,0.09,0.49,0.22,0.7c-1.73,0.27-2.46,0.94-3.09,2.04
		c-0.88,1.48,0.04,3.39-0.21,4.17c-0.18,0.49-0.75,0.97-1.67,0.54c0.45,1.98,2.91,1.75,3.56,0.65c0.22,0.92,0,1.98-0.45,2.38
		c0.77,0.04,1.42-0.27,1.82-0.88c0.09,0.18,0.09,0.43,0.13,0.65c0.43-0.22,0.7-0.47,0.88-0.69c0.07,0.22,0.15,0.74,0.05,1.16
		c-0.33,0.22-0.7,0.43-1.28,0.73c-0.92,0.45-2.6,1.1-3.56,1.23c-0.79,0.13-2.16-0.32-2.51-1.42c-0.32-1.05-1.19-1.39-1.88-0.74
		c-0.18-0.13-0.67-0.23-0.88,0.1c0,0-0.22-0.5-0.49-0.74c0.18-0.54,0.04-1.19-0.45-1.41c-0.04-1.06-0.69-1.06-0.92-1.42
		c-0.13-0.22-0.13-0.5,0.18-0.54c-0.13-0.2-0.41-0.24-0.45-0.24c0.09-0.45-0.05-1.01-0.65-1.19l-5.32-10.96
		c0.34-0.36,0.16-0.88-0.22-1.06c0,0,0-0.04,0-0.09c0.03-0.09,0.04-0.15,0.05-0.22c0.14-0.02,0.32-0.06,0.47-0.1
		c1.05-0.25,2.69-1.79,4.11-2.76c-0.5,0.52-2.56,2.02-3.48,2.89c-0.86,0.85-0.5,1.7-0.36,2.47l0.2,0.43
		c0.78,0.05,1.95,0.52,2.82-0.2c0.27-0.27,4.11-5.03,4.62-5.49c-0.2,0.43-2.62,3.48-3.72,5.23c-0.81,1.32,0.38,2.19,0.52,2.96
		c0.87-0.27,2.06,0.25,2.69-0.8c0.61-1.01,2.47-4.62,3.16-5.63c-0.27,0.79-2.24,4.89-2.38,5.25c-0.47,1.39,0.72,1.66,1.19,2.58
		c0.72-0.52,2.01-0.11,2.51-1.44c0.31-0.89,1.1-4.01,1.51-4.84c-0.05,0.92-0.32,2.16-0.5,3.52c-0.18,1.37,1.1,1.32,1.77,2.11
		c0.65-0.54,1.84-0.41,2.02-1.64c0.18-1.1,0.22-3.77,0.22-3.77c0.18,0.16,0.27,0.2,0.47,0.38c0.44-0.52,1.37-0.52,1.68-1.14
		c0.14,0.04,0.18,0.13,0.32,0.22c1.01,1.68,1.09,4.93-0.32,6.08c0.41,0,0.92-0.05,1.23-0.18
		C-51.44-157.62-52.83-157.18-54.42-157.76z M-44.49-142.39c-0.83,1.14-1.48,1.97-2.02,3.39c-0.97-0.09-0.78-1.28-0.47-1.88
		c0.65-1.19,3.29-2.74,4.62-4.29C-42.94-144.18-43.76-143.29-44.49-142.39z M-41.62-140.29c-0.54,2.1-0.92,5.2-0.74,6.59
		c-1.86-0.97-0.81-4.71-0.09-6.32c1-2.24,1.7-4.98,1.93-6.73C-39.94-145.42-41.22-141.7-41.62-140.29z M-37.26-133.7
		c0.18-1.39-0.18-4.49-0.74-6.59c-0.39-1.42-1.67-5.13-1.1-6.46c0.22,1.75,0.92,4.48,1.93,6.73
		C-36.46-138.41-35.4-134.66-37.26-133.7z M-32.65-140.89c0.32,0.61,0.5,1.79-0.47,1.88c-0.54-1.42-1.19-2.24-1.99-3.39
		c-0.75-0.88-1.57-1.79-2.16-2.78C-35.95-143.63-33.3-142.08-32.65-140.89z M-32.88-156.94c-2.43,4.72-6.88,8.56-6.93,8.51
		c-0.05,0.06-4.5-3.79-6.93-8.51c-2.43-4.71-3.99-12.12-4.07-15.66c-0.09-3.54,0.61-5.05,0.61-5.05s3.04-0.17,5.47-1.01
		c2.06-0.71,4.3-2.52,4.93-3.05c0.63,0.53,2.87,2.33,4.94,3.05c2.42,0.85,5.46,1.01,5.46,1.01s0.69,1.52,0.6,5.05
		C-28.89-169.06-30.45-161.66-32.88-156.94z"/>
</g>
<g>
	<g>
		<path class="st0" d="M168.33,114.5c-0.05-0.06-1.31-1.36-3.52-1.36c-1.15,0-2.35,0.37-3.54,1.06c-0.21,0.11-0.34,0.35-0.3,0.59
			c0.01,0.06,0.87,5.96,0.21,8.49c-0.49,1.9-2.11,4.13-5.05,4.13c-0.63,0-1.27-0.1-1.95-0.29c0,0-0.02,0-0.02-0.01l2.22-1.5
			c0.16-0.11,0.27-0.29,0.27-0.49c0-0.2-0.1-0.38-0.27-0.49l-4.4-3.02c1.39-1.04,2.27-1.79,2.38-1.89c0.13-0.11,0.21-0.26,0.21-0.43
			c0-0.16-0.06-0.33-0.19-0.44l-0.78-0.79c-0.11-0.11-0.28-0.18-0.41-0.18c-0.13,0-0.27,0.05-0.37,0.13
			c-0.05,0.03-1.21,0.92-2.98,2.14l-1.77-1.22l6.91-4.75l0.54,1.37c0.09,0.21,0.28,0.37,0.53,0.38c0,0,0.01,0,0.02,0
			c0.22,0,0.42-0.13,0.52-0.31l3.29-6.05c0.11-0.2,0.09-0.44-0.04-0.63c-0.11-0.16-0.3-0.25-0.49-0.25c-0.02,0-0.05,0-0.09,0
			l-6.81,1.02c-0.23,0.03-0.43,0.19-0.49,0.42c-0.05,0.21,0.01,0.45,0.18,0.62l1.11,0.97l-7.86,5.39l-7.83-5.39l1.1-0.97
			c0.16-0.16,0.24-0.4,0.16-0.62c-0.05-0.23-0.24-0.39-0.48-0.42l-6.81-1.02c-0.03,0-0.06,0-0.09,0c-0.2,0-0.39,0.09-0.49,0.25
			c-0.13,0.19-0.14,0.43-0.04,0.63l3.28,6.05c0.11,0.19,0.32,0.31,0.53,0.31c0.03,0,0.03,0,0.04,0c0.23-0.01,0.43-0.16,0.52-0.38
			l0.54-1.37l6.91,4.75l-1.76,1.22c-1.78-1.22-2.94-2.12-2.96-2.14c-0.11-0.07-0.24-0.13-0.36-0.13c-0.16,0-0.32,0.06-0.43,0.18
			l-0.79,0.79c-0.11,0.11-0.18,0.28-0.18,0.44c0.01,0.17,0.09,0.32,0.2,0.43c0.13,0.1,1,0.84,2.4,1.89l-4.41,3.02
			c-0.15,0.11-0.25,0.29-0.25,0.49c0.01,0.2,0.1,0.38,0.26,0.49l2.22,1.5c0,0.01-0.01,0.01-0.02,0.01
			c-0.68,0.19-1.32,0.29-1.94,0.29c-2.94,0-4.57-2.23-5.06-4.13c-0.66-2.53,0.22-8.43,0.22-8.49c0.04-0.24-0.08-0.48-0.29-0.59
			c-1.21-0.69-2.41-1.06-3.54-1.06c-2.21,0-3.48,1.3-3.53,1.36c-0.1,0.09-0.16,0.23-0.16,0.35c-0.04,0.36-0.71,8.88,3.24,13.19
			c1.46,1.59,3.37,2.39,5.67,2.39c0.4,0,0.84-0.01,1.27-0.08c2.24-0.27,4.44-0.86,6.56-1.61l3.66,2.47l-8.11,5.48
			c-0.16,0.13-0.27,0.3-0.27,0.5c0,0.19,0.09,0.38,0.27,0.49l8.13,5.62l-6.94,4.8l-0.53-1.35c-0.09-0.2-0.29-0.35-0.52-0.37
			c-0.01-0.01-0.01-0.01-0.04-0.01c-0.21,0-0.42,0.13-0.53,0.32l-3.28,6.06c-0.1,0.19-0.09,0.44,0.04,0.62
			c0.1,0.16,0.29,0.25,0.49,0.25c0.03,0,0.06,0,0.09,0l6.81-1.01c0.24-0.04,0.43-0.2,0.48-0.42c0.07-0.23,0-0.47-0.16-0.63
			l-1.12-0.99l7.86-5.43l7.87,5.43l-1.12,0.99c-0.18,0.16-0.24,0.4-0.18,0.63c0.06,0.21,0.25,0.38,0.49,0.42l6.81,1.01
			c0.04,0,0.06,0,0.09,0c0.19,0,0.38-0.09,0.49-0.25c0.12-0.18,0.14-0.43,0.04-0.62l-3.29-6.06c-0.1-0.19-0.3-0.32-0.52-0.32
			c-0.01,0-0.02,0-0.02,0.01c-0.25,0.01-0.44,0.16-0.53,0.37l-0.54,1.35l-6.92-4.8l8.13-5.62c0.16-0.11,0.27-0.3,0.27-0.49
			c0-0.2-0.1-0.38-0.27-0.5l-8.11-5.48l3.67-2.47c2.11,0.76,4.31,1.35,6.55,1.61c0.44,0.06,0.87,0.08,1.27,0.08
			c2.31,0,4.22-0.81,5.67-2.39c3.96-4.31,3.28-12.83,3.24-13.19C168.48,114.73,168.41,114.59,168.33,114.5z M145.4,120.76l1.74,1.19
			c-0.54,0.35-1.14,0.71-1.74,1.07c-0.59-0.36-1.17-0.72-1.73-1.07L145.4,120.76z M139.07,125.11l2.41-1.65
			c0.47,0.3,0.96,0.62,1.49,0.95c-0.95,0.5-1.89,0.98-2.85,1.41L139.07,125.11z M151.59,137.22l-6.19,4.27l-6.17-4.27l6.17-4.18
			L151.59,137.22z M145.4,129.41l-2.99-2.04c1.05-0.49,2.04-1.01,2.99-1.52c0.96,0.52,1.95,1.03,3.01,1.52L145.4,129.41z
			 M150.71,125.82c-0.96-0.43-1.92-0.91-2.86-1.41c0.52-0.33,1.01-0.64,1.49-0.95l2.42,1.65L150.71,125.82z"/>
		<path class="st0" d="M170.43,119.5c0.24-0.47,0.35-1.37,0.35-1.37l-0.35-0.11V119.5z"/>
		<path class="st0" d="M248.36,98.38c-2.54-1.52-6.74-2.07-11-1.65c6.68-2.31,11.24-7.27,11.47-11.71
			c-3.48-0.99-7.1-0.46-10.23,0.24c3.24-2.42,8.56-6.85,7.92-13.36c-3.13-0.77-8.88,1.42-11.3,2.5c7.69-4.32,10.47-14.54,6.39-20.34
			c-2.42,1.42-13.43,12.64-15.21,13.95c5.69-6.5,8.35-11.18,9.89-15.55c1.83-4.78,1.94-13.1-3.96-15.89
			c-2.79,6.39-12.55,22.74-17.98,29.55c-0.59-0.53-1.07-1.25-1.84-1.36c-1.3,4.15-5.15,9.64-8.64,12.29
			c-0.18-0.35-0.53-1.3-1.12-2.31c-3.72,5.56-13.37,13.18-16.5,17.86c-2.43,3.48-2.43,6.62,0.95,9.87c1.36,1.36,3.96,3.78,1.72,7.15
			c-3.05,4.46-9.19,4.98-12.54,2.36c0-0.79-0.03-1.55-0.06-2.26c3.93-1.52,4.86-6.88,1.95-10.21c-0.64,1.22-1.69,2.12-2.95,2.56
			c-0.34-1.39-0.64-2.07-0.67-2.13l-0.15-0.33l-0.34-0.01c-0.04-0.01-1.32-0.07-3.25-0.3c2.18-0.72,3.58-2.74,3.28-5.46
			c-3.37,2.9-6.75,0.13-7.52-0.64c-2.12-2.48-2.71-5.27-1.88-9.53c0.71-3.72,4.55-9.63,7.09-11.52c0.36,0.35,0.95,1.06,2.18,0.95
			c0.72-0.23,1.9-0.83,2.79-1.19c2.55-0.77,5.03-0.18,6.63,0.83c2.89,1.76,2.65,3.72,2.55,5.14c4.41-2.48,2.89-6.62-2.9-8.15
			c3.96,0,7.21,3.6,8.03,4.07c2.19,1.6,5.32,1.25,7.15,0.37c3.51-1.66,4.21-5.8,3.27-6.63c-0.35,1.49-1.48,2.78-3.51,3.03
			c-3,0.35-5.91-0.96-8.21-1.97c-1.94-0.82-5.1-1.41-7.21-1.29c3.96-2.19,10.11-1.95,12.3,1.41c1.31-1.06,2.13-2.01,2.5-4.2
			c1.12-5.9-3.49-8.92-8.41-8.92c0.13-1.42-0.88-2.13-2.18-1.65c0-0.6-0.16-1.07-0.49-1.31c0.11-0.01,0.27-0.06,0.37-0.06
			c4.97-0.34,9.65-1.88,12.18-4.54c4.44-4.74-2.65-10.76-0.11-15.42c2.43,1.06,4.21,2.42,7.57,2.89c0.35,0.72,0.66,2.13,0.77,2.9
			c1.07,5.27-4.12,6.15-2.78,11.76c0.59,2.55,2.5,3.43,3.14,6.45c0,0,0.24,2.12-1.6,3.96c4.26,0.11,6.51-3.49,5.2-6.86
			c-0.58-1.36-2.07-2.67-2.07-4.26c2.19,2.9,4.15,2.78,7.52,1.71c1.54-0.47,1.67,1.66,0.71,3.38c2.31-1.37,2.91-3.62,2.91-4.61
			c0-2.37-1.84-3.49-3.62-3.01c-1,0.11-3.01,1.47-3.13-0.48c-0.42-3.37,4.91-3.25,3.83-8.68c-0.58-2.72-3.61-4.21-8.34-4.79
			c-0.47-0.48-1.65-1.6-2.3-2.55c-2.6-4.31-5.27-5.43-6.87-4.55c-1.89,0.94-2.89,1.78-4.42,2.6c-1.25,0.65-2.55,1.01-3.38,1.95
			c-2.07,2.55-0.11,6.5,0.95,8.93c0.72,1.41,2.44,4.66,1.67,7.08c-0.83,2.9-5.63,4.72-8.51,5.32c-0.19,0-0.3,0.06-0.49,0.06V50.7
			c0.83-1.49,1.55-3.25,2.14-4.85c1.95-5.2-0.96-7.32-5.26-8.33c-0.54-0.35-1.13-0.48-1.84-0.24h-0.13l-0.11,0.88l-0.59-0.17
			l0.13-1.06h-0.25c0.49-0.35,0.72-0.94,0.72-1.54c0-0.64-0.23-1.12-0.47-1.47h0.58l-0.24-0.24c-0.1-0.24-0.34-0.47-0.71-0.83
			c-0.11-0.11-0.23-0.35-0.23-0.47c0.11,0.11,0.23,0.24,0.47,0.35c0.24,0.24,0.59,0.48,0.71,0.7l0.35,0.24v-4.84l-0.35,0.29
			c-0.11,0.12-0.47,0.35-0.71,0.59c-0.24,0.24-0.35,0.24-0.47,0.35c0-0.11,0.11-0.24,0.23-0.48c0.37-0.23,0.61-0.59,0.71-0.76
			l0.24-0.37h-4.84l0.24,0.37c0.23,0.16,0.53,0.53,0.77,0.76c0.11,0.24,0.23,0.37,0.35,0.48c-0.12-0.11-0.35-0.11-0.48-0.35
			c-0.42-0.24-0.64-0.48-0.88-0.59l-0.24-0.29v4.84l0.24-0.24c0.24-0.23,0.47-0.47,0.88-0.7c0.13-0.11,0.35-0.24,0.48-0.35
			c-0.12,0.11-0.24,0.35-0.35,0.47c-0.24,0.37-0.54,0.59-0.77,0.83l-0.24,0.24h0.77c-0.42,0.35-0.53,0.83-0.53,1.47
			c0,0.59,0.23,1.18,0.64,1.54h-0.11l0.11,1.06l-0.64,0.17l-0.13-0.88h-0.11c-0.71-0.24-1.3-0.11-1.78,0.24
			c-4.38,1.01-7.28,3.12-5.32,8.33c0.59,1.6,1.31,3.36,2.19,4.85v0.77c-4.39-1.42-12.26-6.21-14.38-9.11
			c-0.24-0.29-0.42-0.53-0.53-0.7l-0.02,0.01l0.09-3.14c1.53-2.55,2.89-5.68,3.96-8.57c2.78-7.51-1.31-10.64-7.81-11.95
			c-0.66-0.46-1.49-0.71-2.55-0.35l-0.23,1.18l-1.36-0.11L148,17.2c-0.24,0.11-0.47,0.11-0.71,0.11c0.93-0.47,1.59-1.6,1.59-2.77
			c0-0.83-0.42-1.84-1.12-2.31h1.12c-0.66-0.59-1.72-1.84-1.94-2.66c0.82,0.23,2.07,1.35,2.65,1.95V5.38
			c-0.58,0.47-1.83,1.65-2.65,1.76c0.23-0.69,1.29-1.89,1.94-2.48h-6.15c0.48,0.59,1.66,1.79,1.78,2.48
			c-0.72-0.11-1.89-1.3-2.55-1.76v6.15c0.66-0.6,1.83-1.73,2.55-1.95c-0.11,0.82-1.3,2.07-1.78,2.66h1.06
			c-0.7,0.47-1.06,1.47-1.06,2.31c0,1.17,0.59,2.31,1.54,2.77c-0.24,0-0.48,0-0.83-0.11l0.13,1.54l-1.36,0.11l-0.13-1.18
			c-1.06-0.35-1.88-0.11-2.6,0.35c-6.43,1.31-10.53,4.44-7.74,11.95c0.95,2.88,2.31,6.02,3.96,8.57v3.25
			c-0.11,0.11-0.24,0.35-0.47,0.58c-2.07,2.9-10,7.69-14.38,9.11V50.7c0.88-1.49,1.6-3.25,2.19-4.85c1.95-5.2-0.95-7.32-5.32-8.33
			c-0.49-0.35-1.06-0.48-1.78-0.24h-0.11l-0.13,0.88l-0.59-0.17l0.11-1.06h-0.11c0.35-0.35,0.59-0.94,0.59-1.54
			c0-0.64-0.11-1.12-0.48-1.47h0.72l-0.24-0.24c-0.24-0.24-0.48-0.47-0.71-0.83c-0.11-0.11-0.29-0.35-0.41-0.47
			c0.13,0.11,0.41,0.24,0.53,0.35c0.35,0.24,0.59,0.48,0.83,0.7l0.24,0.24v-4.84l-0.24,0.29c-0.24,0.12-0.48,0.35-0.83,0.59
			c-0.12,0.24-0.4,0.24-0.53,0.35c0.13-0.11,0.3-0.24,0.41-0.48c0.23-0.23,0.47-0.59,0.71-0.76l0.24-0.37h-4.84l0.23,0.37
			c0.11,0.16,0.41,0.53,0.66,0.76c0.23,0.24,0.34,0.37,0.34,0.48c-0.11-0.11-0.23-0.11-0.45-0.35c-0.3-0.24-0.67-0.48-0.77-0.59
			l-0.36-0.29v4.84l0.36-0.24c0.1-0.23,0.47-0.47,0.77-0.7c0.23-0.11,0.34-0.24,0.45-0.35c0,0.11-0.11,0.35-0.34,0.47
			c-0.24,0.37-0.54,0.59-0.66,0.83l-0.23,0.24h0.64c-0.3,0.35-0.54,0.83-0.54,1.47c0,0.59,0.24,1.18,0.78,1.54h-0.24l0.13,1.06
			l-0.67,0.17l-0.1-0.88h-0.13c-0.72-0.24-1.3-0.11-1.78,0.24c-4.38,1.01-7.28,3.12-5.32,8.33c0.59,1.6,1.31,3.36,2.2,4.85v1.12
			c-0.19,0-0.35-0.06-0.48-0.06c-2.9-0.59-7.74-2.42-8.58-5.32c-0.77-2.42,0.96-5.67,1.65-7.08c1.12-2.43,3.03-6.39,1.02-8.93
			c-0.9-0.94-2.2-1.3-3.45-1.95c-1.53-0.82-2.48-1.65-4.42-2.6c-1.55-0.88-4.2,0.24-6.87,4.55c-0.58,0.95-1.83,2.07-2.31,2.55
			c-4.67,0.58-7.68,2.07-8.32,4.79c-1.08,5.43,4.25,5.32,3.9,8.68c-0.13,1.95-2.18,0.59-3.14,0.48c-1.84-0.48-3.67,0.64-3.67,3.01
			c0,0.99,0.66,3.24,2.91,4.61c-0.95-1.71-0.83-3.84,0.76-3.38c3.37,1.07,5.26,1.18,7.45-1.71c0,1.59-1.41,2.9-2.06,4.26
			c-1.31,3.36,0.87,6.97,5.2,6.86c-1.96-1.84-1.55-3.96-1.55-3.96c0.61-3.03,2.5-3.91,3.14-6.45c1.31-5.61-3.9-6.49-2.78-11.76
			c0.11-0.77,0.35-2.18,0.71-2.9c3.38-0.47,5.21-1.83,7.57-2.89c2.43,4.66-4.55,10.69-0.11,15.42c2.55,2.66,7.28,4.2,12.18,4.54
			c0.1,0,0.27,0.06,0.39,0.08c-0.34,0.23-0.52,0.69-0.52,1.3c-1.29-0.48-2.29,0.23-2.12,1.65c-5.08,0-9.57,3.02-8.46,8.92
			c0.35,2.18,1.18,3.14,2.55,4.2c2.13-3.36,8.29-3.6,12.3-1.41c-2.18-0.13-5.32,0.47-7.27,1.29c-2.26,1.01-5.15,2.32-8.16,1.97
			c-2.08-0.24-3.14-1.54-3.56-3.03c-0.95,0.83-0.24,4.96,3.31,6.63c1.78,0.88,4.92,1.24,7.1-0.37c0.83-0.47,4.09-4.07,8.06-4.07
			c-5.75,1.54-7.35,5.67-2.85,8.15c-0.18-1.42-0.4-3.38,2.49-5.14c1.6-1.01,4.14-1.6,6.63-0.83c0.88,0.35,2.06,0.96,2.78,1.19
			c1.23,0.11,1.83-0.59,2.18-0.95c2.55,1.89,6.27,7.8,7.1,11.52c0.88,4.26,0.24,7.04-1.89,9.53c-0.71,0.77-4.14,3.54-7.5,0.64
			c-0.32,2.71,1.08,4.73,3.27,5.46c-1.96,0.21-3.27,0.29-3.31,0.3l-0.34,0.01l-0.14,0.33c-0.04,0.06-0.33,0.74-0.68,2.12
			c-1.22-0.47-2.26-1.34-2.89-2.55c-2.9,3.31-2,8.63,1.89,10.18c-0.04,0.73-0.06,1.51-0.06,2.32c-3.34,2.57-9.42,2.04-12.42-2.39
			c-2.31-3.36,0.35-5.79,1.66-7.15c3.37-3.25,3.37-6.39,0.93-9.87c-3.13-4.67-12.77-12.3-16.48-17.86
			c-0.61,1.01-0.96,1.95-1.09,2.31c-3.48-2.65-7.39-8.14-8.68-12.29c-0.72,0.11-1.25,0.83-1.84,1.36
			c-5.39-6.8-15.2-23.16-17.97-29.55c-5.87,2.78-5.75,11.11-3.96,15.89c1.58,4.37,4.25,9.05,9.86,15.55
			c-1.77-1.31-12.76-12.53-15.2-13.95c-4.07,5.8-1.3,16.01,6.38,20.34c-2.36-1.07-8.16-3.27-11.29-2.5
			c-0.59,6.5,4.67,10.94,7.92,13.36c-3.13-0.7-6.74-1.24-10.23-0.24c0.24,4.44,4.84,9.4,11.35,11.71
			c-4.14-0.42-8.34,0.13-10.88,1.65c0.48,4.61,5.69,8.58,11.94,9.53c-4.2,0.47-7.92,2.31-9.86,4.84c2.29,3.01,5.66,5.32,10.82,5.2
			c-1.19,0.42-2.55,1.23-3.72,2.36c-0.13-0.11-0.36-0.23-0.59-0.23c-0.25,0.11-0.35,0.47-0.25,0.71c0,0,0,0,0,0.18
			c-0.49,0.35-0.77,0.76-0.82,1.19c-0.48,0.68-0.97,1.49-1.24,2.18c0.13,0.06,0.23,0.18,0.35,0.24c-0.05,0.4,0.04,0.86,0.34,1.3
			c-0.23,0.24-0.34,0.59-0.46,0.94l-3.01-1.19c-0.16,2.74,0.44,4.99,1.83,6.39c1.08,1.23,2.31,1.06,1.96,1.47l3.27,2
			c0.58,1.25,1.77,1.25,2.58,0.89c0,0,0,0.11,0,0.24c0,1.3,0.89,2.36,2.07,2.77c-0.23,1.07,0.24,1.78,1.73,2.26l12.3,29.78
			c-0.48,1.41,0,2.66,1.07,3.12c-0.25,0.35-0.48,0.72-0.48,1.42c0.48-0.35,1.18-0.48,1.54,0.53c0.23,0.71-1.06,3.01,0.9,4.55
			c-0.25,1.36,0.47,2.77,1.88,3.38c0,0.71,0.66,3.01,0.77,3.83c-0.88,1.25-2.9,3.14-2.65,5.2c0.24,1.49,0.82,1.95,2,2.31
			c-0.48,2.66,1,3.84,3.25,3.97c0,1.94,1.83,2.65,3.01,2.76c1.12,0.83,1.6,1.19,2.9,1.84c-1.19,1.41-0.35,3.25,1.83,3.84
			c0.24,0.82,0.83,1.54,2.07,1.83c0.72,1.18,2.01,1.18,2.78,0.83c0.48-0.24,1.31-1.6,0.59-2.78c0.48-0.59,0.24-1.71-0.11-2.42
			c0.71-1.3,0.11-2.9-0.88-3.36c0.13-0.72-0.24-1.84-0.48-2.53c1.72-1.07,3.85-2.43,4.62-2.9c4.2-3.01,8.93-5.68,14.32-6.04
			c1.36-0.12,3.9-0.24,5.33-0.12c2.18,0.24,5.2,0.89,6.96-0.47c0.54-0.35,0.89-0.95,0.78-1.54c-0.24-1.36-1.72-2.55-2.19-3.78
			c-0.13-0.38-0.35-0.92-0.58-1.41c1.54,0.28,2.95,0.05,3.83-0.37c0.95-0.35,3.25-2.07,3.14-4.6c-1.84,0.88-6.28,2.07-6.75-2.43
			c-0.48-3.96,3.01-7.32,8.46-5.85c3.72,0.94,9.16,8.86,4.19,12.3c-2.42,1.65-6.14,3.24-5.66,7.56c1.59-1.95,3.71-2.9,6.48-2.66
			c-4.07,3.01-7.2,3.36-11.46,5.67c-3.72,2.18-6.49,5.8-9.41,5.91c-2.24,0.11-3.48-2.55-1.3-4.61c-2.18-0.47-5.08,1.25-5.91,3.54
			c-1.06,3.14-0.24,5.38,1.72,6.63c-2.65,1.41-4.6,4.2-3.67,8.15c0.9,3.25,4.15,3.25,2.91,7.38c1.83-0.48,3-1.71,3.54-3.49
			c0.24-1.23,0.47-2.53,1.07-3.13c-0.25,2.48,1.17,6.14,4.55,7.8c2.29,1.12,5.91,1.59,8.69-1.3c1.12,3.25,4.96,6.02,8.93,5.91
			c1.83,0,3.61-0.78,4.97-1.59c0.95,2.41,3.37,4.84,5.79,6.01c2.48-1.17,4.92-3.6,5.92-6.01c1.31,0.81,3.14,1.59,4.92,1.59
			c3.83,0.11,7.86-2.66,8.93-5.91c2.77,2.88,6.38,2.42,8.69,1.3c3.38-1.66,4.79-5.32,4.57-7.8c0.64,0.59,0.87,1.89,1.12,3.13
			c0.47,1.78,1.64,3.01,3.48,3.49c-1.24-4.13,2.08-4.13,2.9-7.38c0.95-3.96-1.01-6.74-3.61-8.15c1.89-1.25,2.79-3.49,1.65-6.63
			c-0.82-2.29-3.72-4.01-5.92-3.54c2.2,2.07,1.01,4.73-1.3,4.61c-2.9-0.11-5.67-3.73-9.41-5.91c-4.25-2.31-7.39-2.66-11.46-5.67
			c2.78-0.24,4.97,0.71,6.5,2.66c0.48-4.32-3.24-5.91-5.68-7.56c-4.91-3.44,0.48-11.35,4.26-12.3c5.37-1.47,8.93,1.89,8.4,5.85
			c-0.59,4.5-4.91,3.31-6.86,2.43c0,2.53,2.29,4.25,3.25,4.6c1.11,0.53,3.15,0.81,4.99,0.03c-0.06,0.44-0.14,0.92-0.14,1.05
			c-0.36,3.84-2.43,4.19-1.73,5.78c1.01,1.19,7.63,0.94,9.41,1.31c3.14,0.41,5.8,1.59,8.82,2.18c3.37,0.71,6.97,0.71,10,1.95
			c1.94,0.83,4.14,2.42,6.03,3.36c2.89,0.48,2.42,1.65,4.26,1.65c1.65,0,2.29-1.41,4.43-2c1.48-0.35,3.13,0.24,4.6-0.24
			c1.07-0.24,1.55-1.35,2.56-1.94c1.19-0.72,2.84-0.72,3.96-1.73c0.59-0.52,0.7-1.52,0.62-2.23l0.02,0.16
			c2.26-1.59,3.97-3.89,4.92-6.56c0.59-0.11,1.06-0.64,1.06-1.24c0-0.11,0-0.23,0-0.23c0.59-0.48,0.95-1.2,0.95-1.89
			c0-0.9-0.35-1.6-0.95-2.19c0,0,0-0.13,0-0.24c0-0.47-0.24-0.82-0.47-1.12c-0.95-5.14-4.86-9.27-9.89-10.57c0-0.13,0-0.13,0-0.24
			h-0.11c0-0.24-0.11-0.36-0.29-0.36c-0.72-0.71-1.55-1.82-1.65-2.53c0.82,0.24,2.18,1.54,2.89,2.07v-6.79
			c-0.71,0.53-2.07,1.83-2.89,2.07c0.1-0.83,1.4-2.31,2.06-2.9h-6.91c0.64,0.59,1.94,2.07,2.06,2.9c-0.82-0.24-2.18-1.54-2.89-2.07
			v6.79c0.71-0.53,2.07-1.83,2.89-2.07c-0.11,0.83-1.41,2.31-2.06,2.9l0.24,0.11c-5.15,1.19-9.3,5.44-10.24,10.7
			c-0.35,0.3-0.59,0.66-0.59,1.12c0,0.11,0,0.24,0,0.24c-0.59,0.59-0.95,1.3-0.95,2.19c0,0.69,0.35,1.41,0.95,1.89
			c0,0,0,0.11,0,0.23c0,0.77,0.48,1.12,1.06,1.24c0.24,0.66,0.53,1.31,0.83,1.9c0-0.06,0-0.06,0.08-0.13
			c-0.43,1.95-2.79,3.14-3.32,3.14c-4.21,0.59-8.88-1.18-13.14-2.77c-1.88-0.72-4.43-1.54-5.68-3.38c-0.77-1.33-1.1-2.18-0.71-3.36
			c0.47,0.59,1.25,1.25,2.31,1.83c0.11-0.58,0.11-1.23,0.34-1.71c1.08,1.6,2.79,2.42,4.86,2.31c-1.23-1.06-1.83-3.84-1.23-6.26
			c1.72,2.9,8.22,3.49,9.41-1.71c-2.44,1.13-3.97-0.11-4.44-1.41c-0.72-2.08,1.65-7.11-0.48-11c-1.72-2.89-3.66-4.66-8.21-5.37
			c0.35-0.54,0.47-1.02,0.58-1.84c-4.19,1.54-7.81,0.35-9.52-3.01c0.83,0.35,2.07,0.48,3.25,0.48c-3.72-3.02-3.49-11.59-0.82-16.02
			c0.35-0.24,0.47-0.48,0.82-0.59c0.82,1.65,3.25,1.65,4.49,3.01c0.48-0.48,0.72-0.59,1.2-1.01c0,0,0.1,7.03,0.58,9.93
			c0.47,3.25,3.62,2.9,5.21,4.32c1.89-2.08,5.32-1.97,4.79-5.57c-0.48-3.59-1.18-6.84-1.3-9.27c1.06,2.19,3.13,10.41,3.96,12.76
			c1.35,3.49,4.73,2.43,6.62,3.79c1.25-2.43,4.38-3.14,3.13-6.81c-0.35-0.94-5.49-11.76-6.26-13.83c1.83,2.67,6.8,12.18,8.34,14.84
			c1.72,2.77,4.84,1.41,7.09,2.12c0.43-2,3.44-4.31,1.25-7.79c-2.78-4.61-9.28-12.65-9.64-13.77c1.3,1.23,11.4,13.77,12.18,14.48
			c2.36,2.07,5.79,0.47,7.81,0.47c0-2.29,1.83-4.9-0.82-7.56c-2.43-2.31-8-6.26-9.17-7.62c3.71,2.55,8.1,6.62,10.7,7.27
			c4.62,1.18,6.27-0.65,7.99-1.36c-1.42-4.19,0.47-6.14-9.29-10.22c8.45,3.01,12.18,1.52,15.2-0.83c-1.19-3.01-4.2-5.54-6.63-6.38
			c5.16,0.11,8.59-2.19,10.83-5.2c-1.89-2.53-5.68-4.37-9.99-4.84C242.69,106.96,247.77,102.99,248.36,98.38z M52.59,129.36
			c-0.11,0-0.11,0.11-0.23,0.23c-0.72-0.11-0.72-0.95-0.59-1.65c0.34,0,0.59-0.11,0.82-0.35l0.11,0.13l-0.34,0.23
			C52.47,128.41,52.47,128.88,52.59,129.36z M54.89,134.31l-1.17-0.69c0.47-0.54,0.93-0.54,1.4-0.24
			C55.12,133.73,55.12,134.08,54.89,134.31z M58.38,126.92c-0.15,0-0.3,0-0.47,0c-0.03-0.04-0.05-0.08-0.09-0.11
			c0.21-0.05,0.44-0.05,0.64-0.11C58.45,126.77,58.41,126.85,58.38,126.92z M125.46,213.26c-2.9,0-4.97-1.83-3.49-4.37
			c0.77,1.15,2.29,1.69,3.61,1.83C125.46,211.92,125.46,212.27,125.46,213.26z M169.58,208.89c1.49,2.55-0.58,4.37-3.48,4.37
			c0-0.99,0-1.35-0.24-2.54C167.21,210.59,168.78,210.09,169.58,208.89z M125.33,52.46c6.63-1.42,13.37-5.14,16.39-8.26
			c2.51,0.15,5.75,0.17,8.21,0.04c2.99,3.15,9.64,6.8,16.27,8.23c-3.85,0-10.58-0.35-11.41-1.3c0.24,2.42,5.38,5.15,8.75,5.91
			c-2.79,0.35-5.37,0-7.58-0.99c1.2,1.71,2.55,3.01,4.79,3.78c-2.36,2.9-7.2,4.78-12.01,4.31c1.18,1.42,3.38,2.31,5.29,2.07
			c-4.31,6.88-7.52,13.94-8.27,22.12l-0.03-0.01l-0.01,0.02c-0.72-8.19-3.9-15.25-8.2-22.13c1.94,0.24,4.09-0.64,5.2-2.07
			c-4.84,0.47-9.52-1.41-11.94-4.31c2.26-0.77,3.61-2.07,4.79-3.78c-2.13,0.99-4.79,1.35-7.57,0.99c3.37-0.76,8.58-3.49,8.8-5.91
			C135.93,52.11,129.19,52.46,125.33,52.46z M64.67,125.16c-0.62,0.25-1.34,0.57-1.9,0.81c0-0.05,0-0.11,0-0.16
			C63.34,125.59,64.06,125.37,64.67,125.16z M107.23,156.12c0.13,0.82,0.24,1.3,0.59,1.84c-4.55,0.71-6.49,2.48-8.15,5.37
			c-2.32,3.89,0.1,8.92-0.56,11c-0.46,1.3-1.99,2.55-4.41,1.41c1.17,5.2,7.68,4.61,9.4,1.71c0.58,2.42,0,5.2-1.18,6.26
			c2.02,0.11,3.73-0.71,4.79-2.31c0.24,0.48,0.24,1.13,0.35,1.71c1.12-0.58,1.84-1.23,2.31-1.83c0.18,0.58,0.4,1.94,0.13,3.05
			c-0.87,0.59-1.85,1.13-3.38,1.91c-2.43,1.19-6.85,2.9-9.4,3.25c-2.08,0.35-5.69-0.83-6.63-3.73c-0.83-2.77-3.13-3.65-4.97-1.95
			c-0.46-0.35-1.76-0.59-2.31,0.25c0,0-0.58-1.31-1.3-1.95c0.48-1.42,0.11-3.14-1.19-3.72c-0.11-2.78-1.83-2.78-2.42-3.73
			c-0.35-0.59-0.35-1.31,0.48-1.42c-0.35-0.53-1.07-0.64-1.19-0.64c0.23-1.19-0.13-2.66-1.72-3.14l-14.02-28.89
			c0.89-0.95,0.43-2.31-0.59-2.79c0,0,0-0.11,0-0.23c0.09-0.23,0.1-0.4,0.13-0.58c0.38-0.06,0.83-0.15,1.24-0.25
			c2.78-0.65,7.1-4.72,10.83-7.27c-1.31,1.36-6.75,5.32-9.17,7.62c-2.26,2.24-1.31,4.49-0.95,6.5l0.53,1.12
			c2.05,0.13,5.13,1.36,7.44-0.53c0.72-0.71,10.83-13.24,12.18-14.48c-0.52,1.12-6.91,9.16-9.8,13.77c-2.14,3.48,1,5.78,1.36,7.79
			c2.29-0.71,5.43,0.66,7.09-2.12c1.6-2.66,6.51-12.17,8.34-14.84c-0.71,2.08-5.92,12.89-6.27,13.83c-1.24,3.67,1.89,4.37,3.14,6.81
			c1.89-1.36,5.31-0.3,6.62-3.79c0.82-2.36,2.9-10.57,3.97-12.76c-0.12,2.43-0.83,5.68-1.31,9.27c-0.48,3.6,2.9,3.49,4.67,5.57
			c1.72-1.42,4.86-1.07,5.32-4.32c0.48-2.9,0.59-9.93,0.59-9.93c0.48,0.42,0.72,0.53,1.25,1.01c1.17-1.36,3.61-1.36,4.43-3.01
			c0.36,0.11,0.48,0.35,0.83,0.59c2.66,4.42,2.89,12.99-0.83,16.02c1.07,0,2.43-0.13,3.25-0.48
			C115.1,156.47,111.43,157.66,107.23,156.12z M133.44,196.61c-2.19,3.01-3.91,5.19-5.32,8.92c-2.55-0.24-2.07-3.36-1.23-4.96
			c1.72-3.14,8.69-7.21,12.18-11.29C137.51,191.89,135.35,194.25,133.44,196.61z M141.01,202.16c-1.41,5.54-2.42,13.71-1.94,17.36
			c-4.92-2.55-2.13-12.41-0.24-16.66c2.65-5.91,4.49-13.12,5.08-17.73C145.44,188.64,142.04,198.43,141.01,202.16z M152.49,219.53
			c0.48-3.66-0.47-11.82-1.95-17.36c-1.02-3.73-4.41-13.52-2.9-17.02c0.59,4.61,2.44,11.82,5.1,17.73
			C154.62,207.12,157.39,216.98,152.49,219.53z M164.67,200.56c0.83,1.6,1.31,4.72-1.23,4.96c-1.43-3.73-3.14-5.91-5.26-8.92
			c-1.97-2.32-4.14-4.71-5.69-7.34C155.97,193.35,162.95,197.43,164.67,200.56z M164.06,158.27c-6.41,12.44-18.15,22.57-18.29,22.42
			c-0.14,0.15-11.88-9.98-18.29-22.42c-6.41-12.42-10.52-31.94-10.74-41.27c-0.23-9.33,1.6-13.32,1.6-13.32s8.01-0.44,14.41-2.67
			c5.44-1.88,11.35-6.64,13.02-8.03c1.65,1.39,7.58,6.15,13.03,8.03c6.39,2.23,14.4,2.67,14.4,2.67s1.83,3.99,1.59,13.32
			C174.57,126.33,170.46,145.85,164.06,158.27z"/>
	</g>
	<path class="st0" d="M49.74,248.13l0.43-4.15h-0.15l-1.66,3.6l-7.54,11.49h-1.16l-7.93-11.53l-1.59-3.52h-0.19l0.62,4.08v16.76
		h-3.64V238.9h2.9l9.17,13.24l1.43,2.82h0.08l1.35-2.89l8.71-13.16h3.06v25.96h-3.87V248.13z"/>
	<path class="st0" d="M72.57,253.73l0.54-3.86h-0.43l-1.9,3.63l-9.52,11.35h-2.75v-19.47h3.56v11.49l-0.27,3.41h0.43l1.78-3.3
		l9.32-11.61h2.79v19.47h-3.56V253.73z"/>
	<path class="st0" d="M94.78,256.36H84.56v8.49H81v-19.47h3.56v7.93h10.21v-7.93h3.56v19.47h-3.56V256.36z"/>
	<path class="st0" d="M108.98,256.1h-2.21v8.75h-3.56v-19.47h3.56v8.86l2.13-0.67l6.92-8.19h3.91l-6.62,7.56h0.04l-2.09,1.45
		l2.51,1.67l7.16,8.79h-4.49L108.98,256.1z"/>
	<path class="st0" d="M120.93,255.14c0-1.61,0.22-3.05,0.66-4.32c0.44-1.27,1.08-2.35,1.93-3.24c0.85-0.89,1.89-1.57,3.12-2.04
		c1.22-0.47,2.62-0.7,4.2-0.7c1.65,0,3.1,0.26,4.33,0.78c1.24,0.52,2.27,1.24,3.1,2.17c0.83,0.93,1.44,2.02,1.84,3.26
		c0.4,1.25,0.6,2.61,0.6,4.1c0,1.58-0.23,3-0.68,4.26c-0.45,1.26-1.1,2.34-1.93,3.23c-0.84,0.89-1.87,1.57-3.1,2.04
		c-1.22,0.47-2.61,0.7-4.16,0.7c-1.7,0-3.17-0.26-4.41-0.78c-1.24-0.52-2.26-1.24-3.08-2.15c-0.81-0.91-1.42-2-1.82-3.24
		C121.13,257.95,120.93,256.6,120.93,255.14z M124.8,255.14c0,0.91,0.11,1.81,0.32,2.69c0.22,0.88,0.57,1.66,1.05,2.35
		c0.48,0.69,1.11,1.25,1.87,1.67c0.76,0.42,1.71,0.63,2.83,0.63c3.97,0,5.96-2.45,5.96-7.34c0-0.96-0.11-1.89-0.32-2.78
		c-0.22-0.89-0.56-1.67-1.03-2.35c-0.47-0.68-1.09-1.23-1.85-1.65c-0.76-0.42-1.68-0.63-2.75-0.63c-1.99,0-3.5,0.61-4.53,1.84
		C125.32,250.78,124.8,252.64,124.8,255.14z"/>
	<path class="st0" d="M163.22,253.84l0.24-3.97H163l-1.72,3.04l-5.17,7.38h-1.2l-5.49-7.38l-1.55-3.04h-0.43l0.35,3.93v11.05h-3.29
		v-19.47h3.71l6.08,8.57l1.47,2.71l1.61-2.78l5.62-8.49h3.8v19.47h-3.56V253.84z"/>
	<path class="st0" d="M186.97,263.52c-0.9,0.62-1.96,1.08-3.17,1.39c-1.21,0.31-2.49,0.46-3.83,0.46c-1.7,0-3.15-0.25-4.35-0.74
		c-1.2-0.49-2.17-1.19-2.92-2.08c-0.75-0.89-1.29-1.97-1.63-3.23c-0.34-1.26-0.5-2.66-0.5-4.19c0-3.29,0.83-5.83,2.5-7.62
		c1.66-1.79,4.06-2.69,7.18-2.69c1.37,0,2.55,0.12,3.56,0.35c1.01,0.24,1.91,0.53,2.71,0.87l-0.92,2.78
		c-0.69-0.35-1.44-0.62-2.25-0.82c-0.81-0.2-1.68-0.3-2.63-0.3c-4.18,0-6.27,2.47-6.27,7.42c0,0.94,0.11,1.85,0.35,2.73
		c0.23,0.88,0.6,1.66,1.12,2.34c0.51,0.68,1.19,1.23,2.02,1.65c0.83,0.42,1.85,0.63,3.06,0.63c1.08,0,2.02-0.14,2.83-0.43
		c0.81-0.28,1.48-0.62,2.02-1.02L186.97,263.52z"/>
	<path class="st0" d="M190.19,245.39l1.47-0.07c0.82-0.05,1.73-0.1,2.71-0.17c0.98-0.06,2.12-0.09,3.4-0.09
		c2.99,0,5.14,0.4,6.44,1.2c1.3,0.8,1.95,2,1.95,3.58c0,0.87-0.32,1.74-0.95,2.61c-0.63,0.88-1.63,1.51-3,1.91v0.41
		c1.7,0.32,2.92,0.87,3.66,1.63c0.74,0.77,1.1,1.78,1.1,3.04c0,1.95-0.84,3.39-2.52,4.32c-1.68,0.93-4.2,1.39-7.58,1.39
		c-1.14,0-2.21-0.03-3.21-0.09c-1.01-0.06-1.99-0.13-2.94-0.2c-0.1,0-0.19-0.01-0.27-0.02c-0.08-0.01-0.17-0.02-0.27-0.02V245.39z
		 M198.16,253.62c0.57,0,1.11-0.07,1.63-0.22c0.52-0.15,0.98-0.35,1.39-0.62c0.41-0.27,0.74-0.58,0.99-0.93
		c0.25-0.35,0.37-0.74,0.37-1.15c0-1.02-0.37-1.74-1.1-2.14c-0.73-0.4-1.99-0.6-3.77-0.6c-0.59,0-1.19,0.02-1.8,0.05
		c-0.61,0.04-1.31,0.07-2.11,0.09v5.53H198.16z M193.74,262.18c0.56,0.07,1.11,0.13,1.65,0.17c0.54,0.04,1.2,0.06,2,0.06
		c2.02,0,3.48-0.25,4.37-0.76c0.89-0.51,1.34-1.34,1.34-2.5c0-0.47-0.09-0.9-0.27-1.3c-0.18-0.4-0.47-0.73-0.88-1
		c-0.41-0.27-0.97-0.49-1.67-0.65c-0.7-0.16-1.57-0.24-2.59-0.24h-3.95V262.18z"/>
	<path class="st0" d="M222.76,257.18l-3.68,0.48l-5.76,7.19h-4.41l5.11-6.38v0.04l2.17-1.41c-1.81-0.2-3.23-0.81-4.27-1.84
		c-1.05-1.03-1.57-2.28-1.57-3.76c0-1.16,0.23-2.16,0.7-3c0.46-0.84,1.13-1.53,1.99-2.08c0.86-0.54,1.91-0.94,3.13-1.19
		c1.22-0.25,2.6-0.37,4.12-0.37c0.98,0,2,0.06,3.08,0.19c1.07,0.12,2.06,0.28,2.96,0.48v19.32h-3.56V257.18z M222.76,255.06v-7.01
		c-0.41-0.12-0.88-0.2-1.4-0.24c-0.52-0.04-0.98-0.06-1.36-0.06c-1.92,0-3.36,0.3-4.33,0.89c-0.97,0.59-1.46,1.53-1.46,2.82
		c0,1.24,0.57,2.16,1.71,2.78c1.14,0.62,2.63,0.9,4.47,0.85L222.76,255.06z"/>
	<path class="st0" d="M233.52,256.21v-2.6h2.99c0.57,0,1.12-0.07,1.65-0.22c0.53-0.15,1-0.35,1.42-0.61
		c0.41-0.26,0.74-0.57,0.99-0.93c0.25-0.36,0.37-0.75,0.37-1.17c0-1.04-0.4-1.75-1.2-2.15c-0.8-0.39-2.02-0.59-3.65-0.59
		c-1.14,0-2.18,0.12-3.12,0.35c-0.95,0.24-1.71,0.48-2.31,0.72l-0.97-2.6c1.68-0.91,4.19-1.37,7.54-1.37c2.42,0,4.26,0.41,5.49,1.22
		c1.24,0.82,1.86,2,1.86,3.56c0,0.42-0.08,0.85-0.25,1.3c-0.17,0.44-0.42,0.87-0.75,1.28c-0.34,0.41-0.74,0.78-1.22,1.11
		c-0.48,0.33-1.02,0.59-1.64,0.76v0.41c1.75,0.3,2.98,0.85,3.67,1.65c0.7,0.8,1.05,1.85,1.05,3.13c0,0.82-0.19,1.58-0.58,2.28
		c-0.39,0.7-0.97,1.32-1.74,1.84c-0.77,0.52-1.75,0.93-2.92,1.22c-1.17,0.3-2.53,0.44-4.08,0.44c-1.52,0-2.78-0.1-3.77-0.3
		c-0.99-0.2-1.89-0.48-2.69-0.85l0.92-2.71c0.69,0.35,1.52,0.59,2.5,0.74c0.97,0.15,2.04,0.22,3.19,0.22c3.54,0,5.3-1.08,5.3-3.23
		c0-0.96-0.42-1.69-1.26-2.19c-0.84-0.49-2.31-0.74-4.41-0.74H233.52z"/>
	<path class="st0" d="M252.78,252.84c0.83-0.12,1.59-0.2,2.28-0.24c0.7-0.04,1.31-0.06,1.86-0.06c1.55,0,2.86,0.15,3.93,0.44
		c1.07,0.3,1.94,0.7,2.61,1.22c0.67,0.52,1.15,1.13,1.45,1.84c0.3,0.7,0.44,1.46,0.44,2.28c0,2.35-0.81,4.06-2.44,5.14
		c-1.63,1.08-4.17,1.61-7.62,1.61c-1.08,0-2.12-0.01-3.1-0.04c-0.98-0.02-1.97-0.07-2.98-0.15v-19.5h3.56V252.84z M252.78,261.96
		c1.07,0.15,2.16,0.22,3.26,0.22c1.87,0,3.24-0.32,4.12-0.95c0.88-0.63,1.32-1.5,1.32-2.61c0-0.99-0.43-1.82-1.28-2.48
		c-0.86-0.67-2.21-1-4.05-1c-0.49,0-1.02,0.02-1.61,0.06c-0.59,0.04-1.18,0.12-1.76,0.24V261.96z"/>
	<path class="st0" d="M89.36,272.58c1.08-0.22,2.26-0.38,3.54-0.46c1.28-0.09,2.53-0.13,3.77-0.13c1.32,0,2.65,0.11,4,0.33
		c1.35,0.22,2.59,0.63,3.69,1.22c1.11,0.59,2.02,1.42,2.73,2.47c0.71,1.05,1.06,2.4,1.06,4.06c0,1.56-0.32,2.89-0.97,3.99
		c-0.64,1.1-1.5,2-2.57,2.69c-1.07,0.69-2.3,1.2-3.68,1.52c-1.38,0.32-2.8,0.48-4.28,0.48c-0.15,0-0.39-0.01-0.72-0.02
		c-0.32-0.01-0.66-0.02-1.01-0.04c-0.35-0.01-0.68-0.03-1.01-0.06c-0.32-0.03-0.56-0.05-0.72-0.07v9.71h-3.87V272.58z M96.78,275.25
		c-0.7,0-1.37,0.01-2.03,0.04c-0.66,0.02-1.17,0.09-1.53,0.18v9.83c0.13,0.05,0.34,0.08,0.64,0.09c0.3,0.01,0.61,0.03,0.93,0.05
		c0.32,0.02,0.63,0.04,0.93,0.04c0.3,0,0.52,0,0.68,0c0.93,0,1.84-0.07,2.75-0.2c0.9-0.13,1.72-0.4,2.46-0.79
		c0.73-0.39,1.33-0.94,1.78-1.64c0.45-0.71,0.68-1.62,0.68-2.74c0-0.97-0.22-1.78-0.66-2.41c-0.44-0.63-1.01-1.13-1.7-1.5
		c-0.7-0.37-1.48-0.62-2.34-0.75C98.49,275.32,97.63,275.25,96.78,275.25z"/>
	<path class="st0" d="M109.05,288.56c0-1.61,0.22-3.05,0.66-4.32c0.44-1.27,1.08-2.35,1.93-3.24c0.85-0.89,1.89-1.57,3.11-2.04
		c1.22-0.47,2.62-0.7,4.2-0.7c1.65,0,3.09,0.26,4.33,0.78c1.24,0.52,2.27,1.24,3.09,2.17c0.83,0.93,1.44,2.02,1.84,3.26
		c0.4,1.25,0.6,2.61,0.6,4.1c0,1.58-0.23,3-0.68,4.26c-0.45,1.26-1.1,2.34-1.93,3.23c-0.84,0.89-1.87,1.57-3.1,2.04
		c-1.23,0.47-2.61,0.71-4.16,0.71c-1.7,0-3.17-0.26-4.41-0.78c-1.24-0.52-2.26-1.24-3.08-2.15c-0.81-0.91-1.42-2-1.82-3.24
		C109.25,291.37,109.05,290.02,109.05,288.56z M112.92,288.56c0,0.91,0.11,1.81,0.32,2.69c0.22,0.88,0.57,1.66,1.05,2.35
		c0.48,0.69,1.11,1.25,1.87,1.67c0.76,0.42,1.71,0.63,2.83,0.63c3.97,0,5.96-2.45,5.96-7.34c0-0.96-0.11-1.89-0.32-2.78
		c-0.22-0.89-0.56-1.67-1.03-2.35c-0.47-0.68-1.09-1.23-1.85-1.65c-0.76-0.42-1.68-0.63-2.75-0.63c-1.99,0-3.5,0.61-4.53,1.84
		C113.43,284.2,112.92,286.07,112.92,288.56z"/>
	<path class="st0" d="M148.32,296.94c-0.9,0.62-1.96,1.08-3.17,1.39c-1.21,0.31-2.49,0.46-3.83,0.46c-1.7,0-3.15-0.25-4.35-0.74
		c-1.2-0.49-2.17-1.19-2.92-2.08c-0.75-0.89-1.29-1.97-1.62-3.23c-0.34-1.26-0.5-2.66-0.5-4.19c0-3.29,0.83-5.83,2.5-7.62
		c1.66-1.79,4.06-2.69,7.18-2.69c1.37,0,2.55,0.12,3.56,0.35c1.01,0.24,1.91,0.53,2.71,0.87l-0.92,2.78
		c-0.69-0.35-1.44-0.62-2.25-0.82c-0.81-0.2-1.68-0.3-2.63-0.3c-4.18,0-6.27,2.47-6.27,7.42c0,0.94,0.11,1.85,0.35,2.72
		c0.23,0.88,0.6,1.66,1.12,2.34c0.51,0.68,1.19,1.23,2.02,1.65c0.83,0.42,1.85,0.63,3.06,0.63c1.08,0,2.02-0.14,2.83-0.43
		c0.81-0.28,1.48-0.62,2.02-1.02L148.32,296.94z"/>
	<path class="st0" d="M166.35,296.94c-0.9,0.62-1.96,1.08-3.17,1.39c-1.21,0.31-2.49,0.46-3.83,0.46c-1.7,0-3.15-0.25-4.35-0.74
		c-1.2-0.49-2.17-1.19-2.92-2.08c-0.75-0.89-1.29-1.97-1.62-3.23c-0.34-1.26-0.5-2.66-0.5-4.19c0-3.29,0.83-5.83,2.5-7.62
		c1.66-1.79,4.06-2.69,7.18-2.69c1.37,0,2.55,0.12,3.56,0.35c1,0.24,1.91,0.53,2.71,0.87l-0.92,2.78c-0.69-0.35-1.44-0.62-2.25-0.82
		c-0.81-0.2-1.68-0.3-2.63-0.3c-4.18,0-6.27,2.47-6.27,7.42c0,0.94,0.12,1.85,0.35,2.72c0.23,0.88,0.6,1.66,1.12,2.34
		c0.51,0.68,1.19,1.23,2.02,1.65c0.83,0.42,1.85,0.63,3.06,0.63c1.08,0,2.02-0.14,2.83-0.43c0.81-0.28,1.48-0.62,2.02-1.02
		L166.35,296.94z"/>
	<path class="st0" d="M183.99,287.15l0.54-3.86h-0.43l-1.9,3.63l-9.52,11.35h-2.75v-19.47h3.56v11.49l-0.27,3.41h0.43l1.78-3.3
		l9.32-11.61h2.78v19.47h-3.56V287.15z"/>
	<path class="st0" d="M206.85,287.15l0.54-3.86h-0.43l-1.9,3.63l-9.52,11.35h-2.75v-19.47h3.56v11.49l-0.27,3.41h0.43l1.78-3.3
		l9.32-11.61h2.79v19.47h-3.56V287.15z"/>
</g>
</svg>
