<svg width="240" height="241" viewBox="0 0 240 241" fill="none" xmlns="http://www.w3.org/2000/svg">
    <ellipse cx="120" cy="121" rx="120" ry="120" fill="#CED9F0"/>
    <mask id="mask0" mask-type="alpha" maskUnits="userSpaceOnUse" x="3" y="3" width="234" height="234">
        <circle cx="120" cy="120" r="117" fill="#5479CA"/>
    </mask>
    <g mask="url(#mask0)">
        <path d="M137.766 42.8487C129.732 32.0693 106.607 35.6744 99.2409 38.6012C91.8753 41.5459 81.4948 50.6835 78.155 62.1232C74.7971 73.563 72.8113 117.68 69.7784 124.212C66.7635 130.744 62.4127 137.936 58.7119 141.523C68.7674 147.734 85.8094 152.749 101.209 151.446C100.884 159.281 98.5368 165.956 92.1822 168.561C85.8275 171.185 43.9625 181.054 40.6047 195.76C37.301 210.483 38.9619 210.483 38.9619 210.483C131.848 278.386 204.418 210.483 204.418 210.483C203.407 201.988 203.425 200.025 200.067 192.494C196.709 184.98 165.207 175.611 149.428 169.989C142.731 167.597 142.135 150.679 142.135 150.679C148.833 151.66 177.302 148.716 183.675 139.542C175.298 134.313 173.421 125.319 172.121 120.928C169.305 111.362 168.24 74.2233 165.893 63.426C163.564 52.6645 158.545 42.2063 137.766 42.8487Z" fill="white"/>
    </g>
</svg>
