<svg width="16" height="16" viewBox="0 0 16 16" fill="none" xmlns="http://www.w3.org/2000/svg">
    <path fill-rule="evenodd" clip-rule="evenodd" d="M8 16C12.4183 16 16 12.4183 16 8C16 3.58172 12.4183 0 8 0C3.58172 0 0 3.58172 0 8C0 12.4183 3.58172 16 8 16ZM6.00912 4.88473L5.76163 5.13221L6.00201 4.87782C5.85034 4.73451 5.64877 4.65599 5.44013 4.65895C5.23149 4.6619 5.03223 4.7461 4.88468 4.89364C4.73714 5.04119 4.65294 5.24045 4.64998 5.44909C4.64703 5.65773 4.72544 5.8594 4.86875 6.01107L6.86212 8.00443L4.87566 9.99069L4.86885 9.9979C4.72555 10.1496 4.64703 10.3511 4.64998 10.5598C4.65294 10.7684 4.73714 10.9677 4.88468 11.1152C5.03223 11.2628 5.23149 11.347 5.44013 11.3499C5.64877 11.3529 5.85044 11.2745 6.0021 11.1312L7.99547 9.13779L9.98173 11.1242L9.98894 11.1311C10.1406 11.2744 10.3422 11.3529 10.5508 11.3499C10.7595 11.347 10.9587 11.2628 11.1063 11.1152C11.2538 10.9677 11.338 10.7684 11.341 10.5598C11.3439 10.3511 11.2655 10.1495 11.1222 9.9978L9.12882 8.00443L11.1152 6.01808C11.1896 5.94366 11.2486 5.85532 11.2889 5.75809C11.3292 5.66086 11.3499 5.55665 11.3499 5.4514C11.3499 5.34616 11.3292 5.24195 11.2889 5.14472C11.2486 5.04749 11.1896 4.95914 11.1152 4.88473C11.0408 4.81031 10.9524 4.75128 10.8552 4.71101C10.758 4.67073 10.6537 4.65 10.5485 4.65C10.4433 4.65 10.339 4.67073 10.2418 4.71101C10.1446 4.75128 10.0562 4.81031 9.98183 4.88473L7.99547 6.87108L6.00912 4.88473Z" fill="white"/>
</svg>
