<svg viewBox="0 0 24 24" fill="none" xmlns="http://www.w3.org/2000/svg">
    <path fill-rule="evenodd" clip-rule="evenodd" d="M18.2133 12.3421C18.1066 12.2241 17.9833 12.1221 17.8474 12.0392C18.3611 10.7282 18.5496 9.31228 18.3968 7.91252C18.2067 6.69459 17.6457 5.56489 16.7904 4.67728C15.935 3.78967 14.8268 3.18732 13.6168 2.95226C12.7933 2.77469 11.9396 2.79407 11.1251 3.00884C10.3106 3.22361 9.55835 3.62769 8.92955 4.18818C7.82408 4.2114 6.76614 4.64585 5.96246 5.4042C5.48378 5.93822 5.12367 6.56762 4.90588 7.25091C4.68809 7.9342 4.61755 8.65589 4.69891 9.36842C4.76524 10.3744 5.0803 11.3494 5.61535 12.2051L5.47716 12.3521C5.2386 12.7069 5.08627 13.1127 5.03234 13.5368C4.9784 13.961 5.02435 14.3919 5.16652 14.7952C5.25938 15.2175 5.50369 15.5911 5.85302 15.8476C6.04095 15.9814 6.24768 16.0864 6.46656 16.1582C6.62422 17.4667 7.26613 18.6687 8.26586 19.5274C9.26558 20.3862 10.5506 20.8394 11.8679 20.7979C13.1879 20.8463 14.4778 20.3958 15.4806 19.536C16.4834 18.6762 17.1255 17.4702 17.2792 16.1582C17.4947 16.0808 17.6993 15.9725 17.8839 15.8376C18.2343 15.5856 18.4764 15.2097 18.5615 14.7852C18.6983 14.3791 18.7381 13.9466 18.6776 13.5223C18.6171 13.0981 18.4581 12.6939 18.2133 12.3421ZM16.0897 14.9289C15.9213 15.0722 15.8161 15.2759 15.7967 15.4961C15.7876 16.0055 15.6775 16.508 15.4727 16.9746C15.268 17.4412 14.9727 17.8625 14.604 18.2141C14.2353 18.5658 13.8005 18.8407 13.3248 19.0232C12.849 19.2056 12.3418 19.2918 11.8325 19.2768C10.7996 19.299 9.80002 18.9105 9.05326 18.1965C8.3065 17.4825 7.87357 16.5013 7.8495 15.4684C7.83305 15.2565 7.73708 15.0586 7.58086 14.9145C7.42463 14.7704 7.21969 14.6906 7.00714 14.6913H6.92423C6.83989 14.6626 6.75991 14.6224 6.68655 14.5719C6.64459 14.5295 6.61612 14.4757 6.60474 14.4171C6.49616 14.0769 6.47712 13.7144 6.54947 13.3647C6.66388 13.4319 6.79324 13.4695 6.92584 13.4742C7.05844 13.4788 7.19011 13.4503 7.30893 13.3912C7.47447 13.3196 7.61228 13.1962 7.70159 13.0395C7.79091 12.8827 7.82691 12.7013 7.80418 12.5223C7.51123 9.77745 8.34365 8.73388 8.84775 8.33149C9.50661 8.94392 10.9349 9.74981 13.8743 9.76861C14.4005 9.75755 14.8991 10.003 15.2108 10.4264C15.6475 11.1095 15.8498 11.9154 15.7879 12.7235C15.7783 12.9155 15.8361 13.1049 15.9514 13.2587C16.0667 13.4126 16.2321 13.5212 16.4191 13.5659C16.4917 13.5804 16.5665 13.5804 16.6391 13.5659C16.8061 13.5663 16.9691 13.515 17.1056 13.4189C17.172 13.7605 17.1532 14.112 17.0504 14.4436C17.0392 14.5026 17.0107 14.5568 16.9685 14.5995C16.8991 14.6564 16.818 14.6972 16.7309 14.7189H16.648C16.4436 14.7246 16.2471 14.7986 16.0897 14.9289ZM9.78076 5.47716C9.61863 5.62026 9.41106 5.70132 9.19486 5.70599H9.05779C8.29763 5.69667 7.56187 5.97416 6.99719 6.48314C6.67537 6.8703 6.43692 7.31969 6.29673 7.80322C6.15654 8.28675 6.11764 8.794 6.18245 9.29325C6.19904 9.59173 6.25099 9.88578 6.33832 10.171C6.75951 7.6273 8.33481 6.89548 8.69077 6.76725C8.78789 6.73185 8.89031 6.71316 8.99367 6.71197C9.13644 6.71092 9.2771 6.74655 9.40214 6.81546C9.52719 6.88437 9.63244 6.98425 9.7078 7.10552C9.73544 7.15195 10.5413 8.32265 13.8832 8.32265C14.3859 8.3218 14.8815 8.44092 15.3289 8.6701C15.7763 8.89929 16.1626 9.23192 16.4556 9.64037C16.5894 9.83051 16.7054 10.0328 16.8038 10.2451C16.9498 9.55635 16.9807 8.84775 16.8956 8.14909C16.7532 7.23546 16.3318 6.38818 15.6893 5.72326C15.0467 5.05834 14.2143 4.60828 13.3061 4.4347C13.0266 4.37272 12.7412 4.34158 12.4549 4.34184C11.4498 4.3581 10.4906 4.76534 9.78076 5.47716ZM22.2671 17.3433C22.6717 17.3433 23 17.6716 23 18.0762V21.7431C23 22.4373 22.4373 23 21.7431 23H18.0762C17.8818 23 17.6954 22.9228 17.558 22.7853C17.4205 22.6479 17.3433 22.4615 17.3433 22.2671C17.3433 22.0727 17.4205 21.8863 17.558 21.7488C17.6954 21.6114 17.8818 21.5341 18.0762 21.5341H21.5341V18.0762C21.5341 17.6716 21.8625 17.3433 22.2671 17.3433ZM17.3433 1.73293C17.3433 1.32833 17.6716 1 18.0762 1H21.7431C22.4373 1 23 1.56379 23 2.25692V5.92377C23 6.11816 22.9228 6.30458 22.7853 6.44203C22.6479 6.57948 22.4615 6.6567 22.2671 6.6567C22.0727 6.6567 21.8863 6.57948 21.7488 6.44203C21.6114 6.30458 21.5341 6.11816 21.5341 5.92377V2.46696H18.0762C17.9799 2.46696 17.8845 2.44797 17.7955 2.41107C17.7065 2.37416 17.6257 2.32008 17.5576 2.2519C17.4895 2.18373 17.4355 2.1028 17.3988 2.01375C17.362 1.9247 17.3432 1.82927 17.3433 1.73293ZM1.73293 6.6567C1.53854 6.6567 1.35212 6.57948 1.21467 6.44203C1.07722 6.30458 1 6.11816 1 5.92377V2.25692C1 1.56379 1.56379 1 2.25692 1H5.92377C6.1183 1 6.30487 1.07728 6.44242 1.21483C6.57998 1.35239 6.65725 1.53895 6.65725 1.73348C6.65725 1.92801 6.57998 2.11458 6.44242 2.25213C6.30487 2.38968 6.1183 2.46696 5.92377 2.46696H2.46696V5.92377C2.46696 6.02012 2.44797 6.11551 2.41107 6.20451C2.37416 6.2935 2.32008 6.37435 2.2519 6.44242C2.18373 6.5105 2.1028 6.56446 2.01375 6.60123C1.9247 6.638 1.82927 6.65685 1.73293 6.6567ZM6.6567 22.2671C6.6567 22.4615 6.57948 22.6479 6.44203 22.7853C6.30458 22.9228 6.11816 23 5.92377 23H2.25692C1.56379 23 1 22.4373 1 21.7431V18.0762C1 17.8817 1.07728 17.6951 1.21483 17.5576C1.35239 17.42 1.53895 17.3427 1.73348 17.3427C1.92801 17.3427 2.11458 17.42 2.25213 17.5576C2.38968 17.6951 2.46696 17.8817 2.46696 18.0762V21.5341H5.92377C6.32838 21.5341 6.6567 21.8625 6.6567 22.2671Z" fill="#317D34"/>
</svg>
