<svg width="16" height="14" viewBox="0 0 16 14" fill="none" xmlns="http://www.w3.org/2000/svg">
    <path d="M0 1C0 0.447715 0.511675 0 1.14286 0H14.8571C15.4883 0 16 0.447715 16 1C16 1.55228 15.4883 2 14.8571 2H1.14286C0.511675 2 0 1.55228 0 1Z" fill="white"/>
    <path d="M0 7C0 6.44772 0.511675 6 1.14286 6H14.8571C15.4883 6 16 6.44772 16 7C16 7.55228 15.4883 8 14.8571 8H1.14286C0.511675 8 0 7.55228 0 7Z" fill="white"/>
    <path d="M0 13C0 12.4477 0.511675 12 1.14286 12H14.8571C15.4883 12 16 12.4477 16 13C16 13.5523 15.4883 14 14.8571 14H1.14286C0.511675 14 0 13.5523 0 13Z" fill="white"/>
</svg>
