<svg width="24" height="24" viewBox="0 0 24 24" fill="none" xmlns="http://www.w3.org/2000/svg">
    <path d="M22 10.335C22 9.0102 21.4943 7.73968 20.5941 6.80293C19.6939 5.86617 18.473 5.3399 17.2 5.3399L8.4 5.3399C6.70261 5.3399 5.07475 6.04159 3.87452 7.2906C2.67428 8.53961 2 10.2336 2 12C2 13.7664 2.67428 15.4604 3.87452 16.7094C5.07475 17.9584 6.70261 18.6601 8.4 18.6601H17.2C17.4122 18.6601 17.6157 18.5724 17.7657 18.4162C17.9157 18.2601 18 18.0484 18 17.8276C18 17.6068 17.9157 17.395 17.7657 17.2389C17.6157 17.0828 17.4122 16.9951 17.2 16.9951H8.4C7.12696 16.9951 5.90606 16.4688 5.00589 15.532C4.10571 14.5953 3.6 13.3248 3.6 12C3.6 10.6752 4.10571 9.4047 5.00589 8.46795C5.90606 7.53119 7.12696 7.00493 8.4 7.00493L17.2 7.00493C18.0487 7.00493 18.8626 7.35577 19.4627 7.98027C20.0629 8.60478 20.4 9.45179 20.4 10.335C20.4 11.2182 20.0629 12.0652 19.4627 12.6897C18.8626 13.3142 18.0487 13.665 17.2 13.665L10 13.665C9.57565 13.665 9.16869 13.4896 8.86863 13.1773C8.56857 12.8651 8.4 12.4416 8.4 12C8.4 11.5584 8.56857 11.1349 8.86863 10.8226C9.16869 10.5104 9.57565 10.335 10 10.335H16.4C16.6122 10.335 16.8157 10.2473 16.9657 10.0911C17.1157 9.93501 17.2 9.72325 17.2 9.50246C17.2 9.28166 17.1157 9.06991 16.9657 8.91378C16.8157 8.75766 16.6122 8.66995 16.4 8.66995H10C9.15131 8.66995 8.33737 9.02079 7.73726 9.64529C7.13714 10.2698 6.8 11.1168 6.8 12C6.8 12.8832 7.13714 13.7302 7.73726 14.3547C8.33737 14.9792 9.15131 15.33 10 15.33L17.2 15.33C18.473 15.33 19.6939 14.8038 20.5941 13.867C21.4943 12.9303 22 11.6597 22 10.335Z" fill="#B0B8C0"/>
</svg>
