<svg viewBox="0 0 48 48" fill="none" xmlns="http://www.w3.org/2000/svg">
    <circle cx="24" cy="24" r="24" fill="white"/>
    <path d="M15.4854 19.774C15.0719 19.774 14.7211 19.9182 14.4327 20.2066C14.1442 20.495 14 20.8411 14 21.245V27.4469C14 27.8609 14.1442 28.2114 14.4327 28.4999C14.7211 28.7883 15.0719 28.9326 15.4854 28.9326C15.8987 28.9326 16.2474 28.7884 16.5313 28.4999C16.8147 28.2115 16.9568 27.8609 16.9568 27.4469V21.245C16.9568 20.841 16.8126 20.495 16.5241 20.2066C16.2357 19.9182 15.8894 19.774 15.4854 19.774Z" fill="#AAAAAA"/>
    <path d="M27.4279 14.2065L28.4519 12.3174C28.5192 12.1924 28.4953 12.0965 28.38 12.029C28.2549 11.9709 28.1588 12.0003 28.0916 12.1153L27.0532 14.0195C26.1395 13.6156 25.1731 13.4132 24.1541 13.4132C23.1348 13.4132 22.1683 13.6156 21.255 14.0195L20.2165 12.1153C20.1491 12.0003 20.0529 11.9711 19.9281 12.029C19.8126 12.0968 19.7887 12.1924 19.8562 12.3174L20.8803 14.2065C19.8419 14.7361 19.0148 15.4736 18.3995 16.4207C17.7841 17.3683 17.4763 18.4038 17.4763 19.529H30.8173C30.8173 18.404 30.5095 17.3685 29.8942 16.4207C29.2788 15.4736 28.4565 14.7361 27.4279 14.2065ZM21.5073 16.9543C21.3965 17.0653 21.2643 17.1205 21.1105 17.1205C20.9564 17.1205 20.8269 17.0653 20.7212 16.9543C20.6154 16.8438 20.5626 16.712 20.5626 16.5578C20.5626 16.404 20.6154 16.272 20.7212 16.1613C20.8269 16.0508 20.9567 15.9955 21.1105 15.9955C21.2643 15.9955 21.3965 16.0508 21.5073 16.1613C21.6178 16.2723 21.6733 16.404 21.6733 16.5578C21.673 16.7118 21.6175 16.8438 21.5073 16.9543ZM27.5864 16.9543C27.4805 17.0653 27.3506 17.1205 27.1971 17.1205C27.043 17.1205 26.9108 17.0653 26.8003 16.9543C26.6896 16.8438 26.6343 16.712 26.6343 16.5578C26.6343 16.404 26.6896 16.272 26.8003 16.1613C26.9108 16.0508 27.043 15.9955 27.1971 15.9955C27.3509 15.9955 27.4804 16.0508 27.5864 16.1613C27.6922 16.2723 27.745 16.404 27.745 16.5578C27.745 16.7118 27.6922 16.8438 27.5864 16.9543Z" fill="#AAAAAA"/>
    <path d="M17.5336 29.6536C17.5336 30.0963 17.6873 30.4711 17.9949 30.7786C18.3027 31.0861 18.6774 31.2399 19.1199 31.2399H20.1872L20.2018 34.5143C20.2018 34.9278 20.3461 35.2789 20.6345 35.5673C20.9229 35.8558 21.2692 36 21.6729 36C22.0861 36 22.4372 35.8558 22.7257 35.5673C23.0141 35.2789 23.1583 34.9278 23.1583 34.5143V31.2402H25.1486V34.5143C25.1486 34.9278 25.2928 35.2789 25.5812 35.5673C25.8697 35.8558 26.2205 36 26.634 36C27.0473 36 27.3983 35.8558 27.6868 35.5673C27.9753 35.2789 28.1194 34.9278 28.1194 34.5143V31.2402H29.2012C29.6338 31.2402 30.0037 31.0864 30.3119 30.7789C30.6194 30.4713 30.7732 30.0966 30.7732 29.6539V20.0477H17.5336V29.6536Z" fill="#AAAAAA"/>
    <path d="M32.8221 19.774C32.4182 19.774 32.0721 19.916 31.7837 20.1994C31.4953 20.4833 31.3511 20.832 31.3511 21.245V27.4469C31.3511 27.8609 31.4952 28.2114 31.7837 28.4999C32.0721 28.7884 32.4184 28.9326 32.8221 28.9326C33.2354 28.9326 33.5865 28.7884 33.8749 28.4999C34.1634 28.2114 34.3075 27.8609 34.3075 27.4469V21.245C34.3075 20.832 34.1634 20.4833 33.8749 20.1994C33.5865 19.916 33.2354 19.774 32.8221 19.774Z" fill="#AAAAAA"/>
</svg>
